<?xml version="1.0" encoding="utf-8"?>
<!-- Generator: Adobe Illustrator 18.1.1, SVG Export Plug-In . SVG Version: 6.00 Build 0)  -->
<svg version="1.1" id="Calque_1" xmlns="http://www.w3.org/2000/svg" xmlns:xlink="http://www.w3.org/1999/xlink" x="0px" y="0px"
	 viewBox="14.2 132.3 566.9 566.9" enable-background="new 14.2 132.3 566.9 566.9" xml:space="preserve">
<g>
	<g>
		<path id="SVGID_1_" fill="#777777" d="M569.1,415.8c0,11.2-13.8,19.4-15.1,30.2c-0.8,6.5,11.3,15.6,10.1,21.9
			c-2.5,13.2-6.1,26-10.5,38.4c-10.3,29.1-25.4,56-44.4,79.6c-4.8,6-20.5,5.6-25.8,11.2c-8.7,9.2-7.4,24-17.4,31.8
			c-46.4,36.9-105.2,58.9-168.9,58.9c-38.7,0-75.5-8.1-108.9-22.7c-10.9-4.7-2-22.9-12-29c-6.1-3.6-31.2,5.3-37,1.2
			c-24.6-17.6-46.2-39.1-63.7-63.7c-4.8-6.7,4.1-28.4-0.2-35.6c-5.1-8.8-23.2-3.3-27.4-12.7c-14.5-33.6-22.7-70.6-22.7-109.6
			c0-18.9,16.5-32.6,20.1-50.4c1.8-8.4-10.8-21.2-8.3-29.3c2.4-8.1,5.4-16.1,8.6-24c6.9-16.7,15.5-32.7,25.4-47.5
			c2.4-3.6,7.8-6.4,10.4-9.8c16.1-21.7,32.7-41.9,54.6-58c9.9-7.3,25.6-4.1,36.5-10.1c7.7-4.2,10.3-17.8,18.4-21.3
			c32.7-13.9,68.6-21.5,106.2-21.5c44.5,0,86.6,10.7,123.6,29.6c9.3,4.8,13.8,17.4,22.4,23.2c9.1,6.1,22.4,5.3,30.6,12.3
			C532.1,259,569.1,333.1,569.1,415.8z"/>
	</g>
	<g>
		<defs>
			<path id="SVGID_2_" d="M569.1,415.8c0,11.2-13.8,19.4-15.1,30.2c-0.8,6.5,11.3,15.6,10.1,21.9c-2.5,13.2-6.1,26-10.5,38.4
				c-10.3,29.1-25.4,56-44.4,79.6c-4.8,6-20.5,5.6-25.8,11.2c-8.7,9.2-7.4,24-17.4,31.8c-46.4,36.9-105.2,58.9-168.9,58.9
				c-38.7,0-75.5-8.1-108.9-22.7c-10.9-4.7-2-22.9-12-29c-6.1-3.6-31.2,5.3-37,1.2c-24.6-17.6-46.2-39.1-63.7-63.7
				c-4.8-6.7,4.1-28.4-0.2-35.6c-5.1-8.8-23.2-3.3-27.4-12.7c-14.5-33.6-22.7-70.6-22.7-109.6c0-18.9,16.5-32.6,20.1-50.4
				c1.8-8.4-10.8-21.2-8.3-29.3c2.4-8.1,5.4-16.1,8.6-24c6.9-16.7,15.5-32.7,25.4-47.5c2.4-3.6,7.8-6.4,10.4-9.8
				c16.1-21.7,32.7-41.9,54.6-58c9.9-7.3,25.6-4.1,36.5-10.1c7.7-4.2,10.3-17.8,18.4-21.3c32.7-13.9,68.6-21.5,106.2-21.5
				c44.5,0,86.6,10.7,123.6,29.6c9.3,4.8,13.8,17.4,22.4,23.2c9.1,6.1,22.4,5.3,30.6,12.3C532.1,259,569.1,333.1,569.1,415.8z"/>
		</defs>
		<clipPath id="SVGID_3_">
			<use xlink:href="#SVGID_2_"  overflow="visible"/>
		</clipPath>
		<g clip-path="url(#SVGID_3_)">
			<path fill="#4C4A4A" d="M502.8,176.5c2.1,0.4,3,3.7,4.9,4.4c1.2,0.4,3.3-1.9,4.5-1.4c2.3,1.1,4.5,2.2,6.7,3.7
				c4.9,3.3,9.3,7.5,12.8,12.4c0.9,1.3,0.1,4.6,1,6c1.3,2.2,4.1,2.4,5.1,4.9c4.8,11.3,6.4,24.6,3.5,38.3c-1.7,8.3-4.8,15.8-8.9,22.4
				c-1.4,2.2-4.3-0.4-5.9,1.5c-1,1.2-0.4,6.8-1.4,7.9c-4.3,4.6-9.2,8.4-14.6,11.2c-1.5,0.8-5.1-2-6.6-1.3c-1.9,0.8-1.7,4.9-3.5,5.4
				c-6.8,1.9-14,2.2-21.2,0.8c-3.5-0.7-5.3-4.8-8.4-6.2c-1.5-0.7-4.4,1.5-5.8,0.7c-1.4-0.9-2.7-1.8-4-2.7c-2.8-2.2-5.4-4.5-7.7-7.2
				c-0.6-0.7-0.8-2-1.4-2.5c-3.3-4.3-6.4-8.5-8.4-13.8c-0.9-2.3,0.4-5.7-0.3-8.2c-0.5-1.8-2.8-2.8-3.1-4.7c-1.2-7.5-1-15.5,0.6-23.5
				c2-9.5,5.8-18.1,10.9-25.3c1.3-1.9,3.8-2.2,5.3-3.9c1.5-1.8,2-4.6,3.6-6.1C472.3,178.4,487.5,173.4,502.8,176.5z"/>
			<path fill="#4C4A4A" d="M235.9,460.9c2.1,0.4,3,3.7,4.9,4.4c1.2,0.4,3.3-1.9,4.5-1.4c2.3,1.1,4.5,2.2,6.7,3.7
				c4.9,3.3,9.3,7.5,12.8,12.4c0.9,1.3,0.1,4.6,1,6c1.3,2.2,4.1,2.4,5.1,4.9c4.8,11.3,6.4,24.6,3.5,38.3c-1.7,8.3-4.8,15.8-8.9,22.4
				c-1.4,2.2-4.3-0.4-5.9,1.5c-1,1.2-0.4,6.8-1.4,7.9c-4.3,4.6-9.2,8.4-14.6,11.2c-1.5,0.8-5.1-2-6.6-1.3c-1.9,0.8-1.7,4.9-3.5,5.4
				c-6.8,1.9-14,2.2-21.2,0.8c-3.5-0.7-5.3-4.8-8.4-6.2c-1.5-0.7-4.4,1.5-5.8,0.7c-1.4-0.9-2.7-1.8-4-2.7c-2.8-2.2-5.4-4.5-7.7-7.2
				c-0.6-0.7-0.8-2-1.4-2.5c-3.3-4.3-6.4-8.5-8.4-13.8c-0.9-2.3,0.4-5.7-0.3-8.2c-0.5-1.8-2.8-2.8-3.1-4.7c-1.2-7.5-1-15.5,0.6-23.5
				c2-9.5,5.8-18.1,10.9-25.3c1.3-1.9,3.8-2.2,5.3-3.9c1.5-1.8,2-4.6,3.6-6.1C205.3,463,220.7,457.9,235.9,460.9z"/>
			<path fill="#4C4A4A" d="M266.2,176.5c2.1,0.4,3,3.7,4.9,4.4c1.2,0.4,3.3-1.9,4.5-1.4c2.3,1.1,4.5,2.2,6.7,3.7
				c4.9,3.3,9.3,7.5,12.8,12.4c0.9,1.3,0.1,4.6,1,6c1.3,2.2,4.1,2.4,5.1,4.9c4.8,11.3,6.4,24.6,3.5,38.3c-1.7,8.3-4.8,15.8-8.9,22.4
				c-1.4,2.2-4.3-0.4-5.9,1.5c-1,1.2-0.4,6.8-1.4,7.9c-4.3,4.6-9.2,8.4-14.6,11.2c-1.5,0.8-5.1-2-6.6-1.3c-1.9,0.8-1.7,4.9-3.5,5.4
				c-6.8,1.9-14,2.2-21.2,0.8c-3.5-0.7-5.3-4.8-8.4-6.2c-1.5-0.7-4.4,1.5-5.8,0.7c-1.4-0.9-2.7-1.8-4-2.7c-2.8-2.2-5.4-4.5-7.7-7.2
				c-0.6-0.7-0.8-2-1.4-2.5c-3.3-4.3-6.4-8.5-8.4-13.8c-0.9-2.3,0.4-5.7-0.3-8.2c-0.5-1.8-2.8-2.8-3.1-4.7c-1.2-7.5-1-15.5,0.6-23.5
				c2-9.5,5.8-18.1,10.9-25.3c1.3-1.9,3.8-2.2,5.3-3.9c1.5-1.8,2-4.6,3.6-6.1C235.5,178.4,250.9,173.4,266.2,176.5z"/>
			<path fill="#4C4A4A" d="M447.4,596.9c2.1,0.4,3,3.7,4.9,4.4c1.2,0.4,3.3-1.9,4.5-1.4c2.3,1.1,4.5,2.2,6.7,3.7
				c4.9,3.3,9.3,7.5,12.8,12.4c0.9,1.3,0.1,4.6,1,6c1.3,2.2,4.1,2.4,5.1,4.9c4.8,11.3,6.4,24.6,3.5,38.3c-1.7,8.3-4.8,15.8-8.9,22.4
				c-1.4,2.2-4.3-0.4-5.9,1.5c-1,1.2-0.4,6.8-1.4,7.9c-4.3,4.6-9.2,8.4-14.6,11.2c-1.5,0.8-5.1-2-6.6-1.3c-1.9,0.8-1.7,4.9-3.5,5.4
				c-6.8,1.9-14,2.2-21.2,0.8c-3.5-0.7-5.3-4.8-8.4-6.2c-1.5-0.7-4.4,1.5-5.8,0.7c-1.4-0.9-2.7-1.8-4-2.7c-2.8-2.2-5.4-4.5-7.7-7.2
				c-0.6-0.7-0.8-2-1.4-2.5c-3.3-4.3-6.4-8.5-8.4-13.8c-0.9-2.3,0.4-5.7-0.3-8.2c-0.5-1.8-2.8-2.8-3.1-4.7c-1.2-7.5-1-15.5,0.6-23.5
				c2-9.5,5.8-18.1,10.9-25.3c1.3-1.9,3.8-2.2,5.3-3.9c1.5-1.8,2-4.6,3.6-6.1C416.9,599,432.2,593.9,447.4,596.9z"/>
			<path fill="#4C4A4A" d="M143.9,343.9c1,0.2,1.4,1.7,2.2,2c0.5,0.2,1.6-0.9,2.1-0.6c1.1,0.5,2.1,1.1,3,1.7
				c2.2,1.5,4.2,3.4,5.9,5.7c0.4,0.6,0.1,2.1,0.4,2.7c0.6,1,1.9,1.2,2.3,2.2c2.2,5.2,2.9,11.2,1.7,17.5c-0.8,3.8-2.2,7.2-4.1,10.3
				c-0.6,1-2-0.2-2.6,0.7c-0.4,0.5-0.2,3.1-0.6,3.6c-2,2.2-4.2,3.8-6.7,5.1c-0.7,0.4-2.3-0.9-3-0.6c-0.9,0.4-0.8,2.2-1.7,2.4
				c-3.1,0.9-6.4,1.1-9.7,0.4c-1.6-0.3-2.4-2.2-3.8-2.8c-0.7-0.3-2.1,0.7-2.6,0.3c-0.7-0.4-1.3-0.8-1.9-1.3c-1.3-1-2.4-2.1-3.5-3.3
				c-0.3-0.3-0.4-0.9-0.6-1.2c-1.6-2-2.9-3.9-3.8-6.4c-0.4-1.1,0.2-2.5-0.1-3.7c-0.2-0.8-1.3-1.3-1.5-2.2c-0.5-3.4-0.5-7,0.3-10.8
				c0.9-4.3,2.6-8.3,5-11.5c0.6-0.8,1.8-1.1,2.4-1.8c0.7-0.8,0.9-2.1,1.7-2.7C129.9,344.9,136.9,342.6,143.9,343.9z"/>
			<path fill="#4C4A4A" d="M340.2,369.6c0.5,0.1,0.7,0.9,1.2,1c0.3,0.1,0.8-0.4,1.1-0.3c0.6,0.2,1.1,0.5,1.6,0.9
				c1.2,0.8,2.2,1.8,2.9,2.9c0.2,0.3,0,1.1,0.2,1.4c0.3,0.5,1,0.6,1.2,1.2c1.1,2.6,1.5,5.8,0.8,8.9c-0.4,2-1.1,3.7-2.1,5.2
				c-0.3,0.5-1-0.1-1.4,0.4c-0.2,0.3-0.1,1.6-0.3,1.9c-1,1.1-2.2,2-3.4,2.6c-0.3,0.2-1.2-0.5-1.6-0.3c-0.4,0.2-0.4,1.2-0.8,1.3
				c-1.6,0.5-3.2,0.5-5,0.2c-0.8-0.2-1.3-1.1-2-1.5c-0.4-0.2-1,0.4-1.4,0.2c-0.3-0.2-0.7-0.4-1-0.7c-0.7-0.5-1.3-1.1-1.8-1.7
				c-0.1-0.2-0.2-0.5-0.3-0.6c-0.8-1-1.5-2-2-3.2c-0.2-0.6,0.1-1.3-0.1-2c-0.1-0.4-0.7-0.7-0.7-1.1c-0.3-1.8-0.2-3.6,0.1-5.5
				c0.5-2.2,1.4-4.2,2.5-5.9c0.3-0.4,0.9-0.5,1.3-0.9c0.4-0.4,0.5-1.1,0.9-1.5C333.1,370.1,336.6,368.9,340.2,369.6z"/>
			<path fill="#4C4A4A" d="M352.8,500.5c0.5,0.1,0.7,0.9,1.2,1c0.3,0.1,0.8-0.4,1.1-0.3c0.6,0.2,1.1,0.5,1.6,0.9
				c1.2,0.8,2.2,1.8,2.9,2.9c0.2,0.3,0,1.1,0.2,1.4c0.3,0.5,1,0.6,1.2,1.2c1.1,2.6,1.5,5.8,0.8,8.9c-0.4,2-1.1,3.7-2.1,5.2
				c-0.3,0.5-1-0.1-1.4,0.4c-0.2,0.3-0.1,1.6-0.3,1.9c-1,1.1-2.2,2-3.4,2.6c-0.3,0.2-1.2-0.5-1.6-0.3c-0.4,0.2-0.4,1.2-0.8,1.3
				c-1.6,0.5-3.2,0.5-5,0.2c-0.8-0.2-1.3-1.1-2-1.5c-0.4-0.2-1,0.4-1.4,0.2c-0.3-0.2-0.7-0.4-1-0.7c-0.7-0.5-1.3-1.1-1.8-1.7
				c-0.1-0.2-0.2-0.5-0.3-0.6c-0.8-1-1.5-2-2-3.2c-0.2-0.6,0.1-1.3-0.1-2c-0.1-0.4-0.7-0.7-0.7-1.1c-0.3-1.8-0.2-3.6,0.1-5.5
				c0.5-2.2,1.4-4.2,2.5-5.9c0.3-0.4,0.9-0.5,1.3-0.9c0.4-0.4,0.5-1.1,0.9-1.5C345.7,501,349.2,499.8,352.8,500.5z"/>
			<path fill="#4C4A4A" d="M500.3,382.9c2.1,0.4,3,3.7,4.9,4.4c1.2,0.4,3.3-1.9,4.5-1.4c2.3,1.1,4.5,2.2,6.7,3.7
				c4.9,3.3,9.3,7.5,12.8,12.4c0.9,1.3,0.1,4.6,1,6c1.3,2.2,4.1,2.4,5.1,4.9c4.8,11.3,6.4,24.6,3.5,38.3c-1.7,8.3-4.8,15.8-8.9,22.4
				c-1.4,2.2-4.3-0.4-5.9,1.5c-1,1.2-0.4,6.8-1.4,7.9c-4.3,4.6-9.2,8.4-14.6,11.2c-1.5,0.8-5.1-2-6.6-1.3c-1.9,0.8-1.7,4.9-3.5,5.4
				c-6.8,1.9-14,2.2-21.2,0.8c-3.5-0.7-5.3-4.8-8.4-6.2c-1.5-0.7-4.4,1.5-5.8,0.7c-1.4-0.9-2.7-1.8-4-2.7c-2.8-2.2-5.4-4.5-7.7-7.2
				c-0.6-0.7-0.8-2-1.4-2.5c-3.3-4.3-6.4-8.5-8.4-13.8c-0.9-2.3,0.4-5.7-0.3-8.2c-0.5-1.8-2.8-2.8-3.1-4.7c-1.2-7.5-1-15.5,0.6-23.5
				c2-9.5,5.8-18.1,10.9-25.3c1.3-1.9,3.8-2.2,5.3-3.9c1.5-1.8,2-4.6,3.6-6.1C469.7,384.9,485,379.8,500.3,382.9z"/>
			<path fill="#4C4A4A" d="M89.9,209.2c2.1,0.4,3,3.7,4.9,4.4c1.2,0.4,3.3-1.9,4.5-1.4c2.3,1.1,4.5,2.2,6.7,3.7
				c4.9,3.3,9.3,7.5,12.8,12.4c0.9,1.3,0.1,4.6,1,6c1.3,2.2,4.1,2.4,5.1,4.9c4.8,11.3,6.4,24.6,3.5,38.3c-1.7,8.3-4.8,15.8-8.9,22.4
				c-1.4,2.2-4.3-0.4-5.9,1.5c-1,1.2-0.4,6.8-1.4,7.9c-4.3,4.6-9.2,8.4-14.6,11.2c-1.5,0.8-5.1-2-6.6-1.3c-1.9,0.8-1.7,4.9-3.5,5.4
				c-6.8,1.9-14,2.2-21.2,0.8c-3.5-0.7-5.3-4.8-8.4-6.2c-1.5-0.7-4.4,1.5-5.8,0.7c-1.4-0.9-2.7-1.8-4-2.7c-2.8-2.2-5.4-4.5-7.7-7.2
				c-0.6-0.7-0.8-2-1.4-2.5c-3.3-4.3-6.4-8.5-8.4-13.8c-0.9-2.3,0.4-5.7-0.3-8.2c-0.5-1.8-2.8-2.8-3.1-4.7c-1.2-7.5-1-15.5,0.6-23.5
				c2-9.5,5.8-18.1,10.9-25.3c1.3-1.9,3.8-2.2,5.3-3.9c1.5-1.8,2-4.6,3.6-6.1C59.3,211.2,74.6,206.1,89.9,209.2z"/>
		</g>
		<radialGradient id="SVGID_4_" cx="297.5621" cy="427.0683" r="312.9744" gradientUnits="userSpaceOnUse">
			<stop  offset="0.4134" style="stop-color:#000000;stop-opacity:0"/>
			<stop  offset="0.9882" style="stop-color:#000000"/>
		</radialGradient>
		
			<circle clip-path="url(#SVGID_3_)" fill="url(#SVGID_4_)" stroke="#000000" stroke-miterlimit="10" cx="297.6" cy="427.1" r="313"/>
		<radialGradient id="SVGID_5_" cx="299.4251" cy="378.6292" r="310.6459" gradientUnits="userSpaceOnUse">
			<stop  offset="0" style="stop-color:#000000;stop-opacity:0"/>
			<stop  offset="0.3311" style="stop-color:#020000;stop-opacity:0.3311"/>
			<stop  offset="0.4677" style="stop-color:#090000;stop-opacity:0.4677"/>
			<stop  offset="0.5684" style="stop-color:#150000;stop-opacity:0.5684"/>
			<stop  offset="0.6516" style="stop-color:#270000;stop-opacity:0.6516"/>
			<stop  offset="0.724" style="stop-color:#3E0000;stop-opacity:0.724"/>
			<stop  offset="0.7888" style="stop-color:#5A0000;stop-opacity:0.7888"/>
			<stop  offset="0.848" style="stop-color:#7C0000;stop-opacity:0.848"/>
			<stop  offset="0.9028" style="stop-color:#A30000;stop-opacity:0.9028"/>
			<stop  offset="0.9521" style="stop-color:#CE0000;stop-opacity:0.9521"/>
			<stop  offset="0.9983" style="stop-color:#FD0000;stop-opacity:0.9983"/>
			<stop  offset="1" style="stop-color:#FF0000"/>
		</radialGradient>
		
			<circle clip-path="url(#SVGID_3_)" fill="url(#SVGID_5_)" stroke="#000000" stroke-miterlimit="10" cx="299.4" cy="378.6" r="310.6"/>
	</g>
</g>
</svg>
