<?xml version="1.0" encoding="utf-8"?>
<!-- Generator: Adobe Illustrator 18.1.1, SVG Export Plug-In . SVG Version: 6.00 Build 0)  -->
<svg version="1.1" xmlns="http://www.w3.org/2000/svg" xmlns:xlink="http://www.w3.org/1999/xlink" x="0px" y="0px"
	 viewBox="0 0 566.9 566.9" enable-background="new 0 0 566.9 566.9" xml:space="preserve">
<g id="Calque_5" display="none">
	<linearGradient id="SVGID_1_" gradientUnits="userSpaceOnUse" x1="-212" y1="325" x2="967" y2="325">
		<stop  offset="0" style="stop-color:#FFFFFF"/>
		<stop  offset="1" style="stop-color:#000000"/>
	</linearGradient>
	<rect x="-212" y="-68" display="inline" fill="url(#SVGID_1_)" width="1179" height="786"/>
</g>
<g id="blue_shp">
	<g>
		<path fill="#B43939" d="M216.1,453.9c-7.9-13.9-15.6-27.8-23.6-41.7c-30.6-53.3-61.2-106.5-91.8-159.8c-0.7-1.3-1.7-2.4-2.5-3.6
			c-1.7-2.1,0.3-3.7,0.8-5.5c1.7-2.1,1.4-5.9,5.1-6.3c5.2,5,9,11.1,13.2,16.8c3,4.2,6.6,6,11.8,5.8c24.4-0.7,48.9,1.6,73.3,1
			c1.8-0.1,3.7,0,5.4,0.7c0.8,0.4,1.4,1,1.9,1.7c1.3,3.7,0.6,7.6,0.7,11.4c0,2.9,1,4.6,4.1,4.2c3.5-0.4,7.3,1.3,10.5-1.4
			c1.5-4.4-0.3-9.1,1.3-13.5c0.3-0.6,0.7-1,1.3-1.4c1.4-0.7,2.9-0.7,4.4-0.7c14.8,0,29.6,0,44.4,0c1.5,0,3,0,4.4,0.8
			c2.2,1.9,1.5,4.5,1.7,6.9c-0.7,4.8-0.2,9.7-0.4,14.6c0,0.4,0.1,0.8-0.1,1.2c0.2-0.3,0.1-0.7,0.1-1.1c0-2,0-4,0-6
			c0-1.6,0-3.2,0.1-4.8c0.6-1.9,0.6-3.8,0.5-5.8c0.6-2.6-1.5-6.1,2.6-7.5c2.6,1.4,5.4,1.5,8.2,1.5c13.5,0,27,0,40.4,0
			c2.5,0,5-0.2,7.4,0.6c0.9,0.3,1.6,0.9,2.1,1.7c1.4,3,0.7,6.2,0.9,9.4c0.4,2-1.1,4.3,0.7,6.2c3.3,0.7,6.6,0.1,9.9,0.3
			c3.5,0.2,4.5-1.5,4.7-4.8c0.2-3.8-1.4-8,1.6-11.5c5.1-1.6,10.2-0.6,15.4-0.8c5.8-0.2,11.6,0,17.5-0.1c14.9,0,29.9-0.1,44.8,0.1
			c4.4,0,7.6-1.4,10.2-4.9c3.2-4.4,6.6-8.7,10.1-13c1.3-1.5,2.2-3.3,4.3-4c2.9,3.8,6.8,7.1,5.6,12.7c-13.6,22.3-27.3,44.5-40.9,66.8
			c-26.7,43.8-53.3,87.6-79.9,131.4c-1,1.7-1.8,3.5-2.7,5.3c-0.4,1.6-0.7,3.3-2.5,4c-0.6,0.2-1.1,0.3-1.7,0.4
			c-14.1,0-28.3,0.4-42.4-0.1c-2.8-0.9-5.6-1.1-8.5-0.1c-3.8,0.5-7.7,0.2-11.5,0.3c-4.7-0.1-9.5,0.2-14.2-0.3c-2.5-0.9-5-0.9-7.6,0
			c-11.1,0.5-22.3,0.2-33.4,0.2C218.8,461.4,216.8,458.3,216.1,453.9z"/>
		<path fill="#B43939" d="M343,264c-0.3-0.4-0.7-0.7-1-1.1c-1-12.4-0.5-24.9-0.2-37.3c0.1-0.6,0.2-1.2,0.3-1.8
			c1.2-7.6,0.3-15.2,0.5-22.9c0.1-4.6-1-9.4,1-13.9c5.8-2.8,11.9-1.3,17.9-1.1c0.5,0.1,1,0.4,1.5,0.8c1.1,3.2-0.1,6.4,0.4,9.6
			c0.2,1.7-0.4,3.7,2.1,4.4c1.7,0.6,3.5,0.2,5.2,0.5c0.5,0.2,0.9,0.4,1.4,0.7c0.6,0,1.2,0.1,1.8,0.1c6.8-0.9,13.6-0.2,20.4-0.4
			c2.9,0.8,5.9,0.4,8.9,0.5c2.7,0,5.3,0,8,0c3,0,6-0.2,8.9,0.5c2.7,0,5.4,0,8,0c4.4,0.1,8.8-0.4,13.2-0.4c0.6,0,1.1,0.1,1.6,0.3
			c4,4.1,6.1,9.3,8.5,14.4c2.2,4.7,4.9,7.7,10.5,7c1.3-0.2,2.7,0,3.7,1c1.2,1.1,0.2,1.6-0.6,2.2c-8.6,1.4-17.3,1.1-25.9,0.4
			c-12.7-1-25.3-0.6-37.9-0.7c-10.6-0.1-21.3,0-31.9-0.1c-4,0-5.5,1.6-5.7,5.6c-0.3,7.8-1.3,15.6-0.9,23.4c0.2,5.2,0.6,5.7,5.7,5.8
			c7,0.1,14-0.1,21,0.1c2.2,0.1,4.8-0.5,6,2.4c-11.5,0.1-23,0.2-34.5,0.2C354.8,266.2,348.9,266.2,343,264z"/>
		<path fill="#B43939" d="M128.3,197.1c8.6,0.4,17.1-0.3,25.7,0.7c-0.6,0.9-1.6,0.6-2.4,0.7c-5.2,0-10.4,0.1-15.6,0.1
			c-0.7,0.2,0.3,1.1,0,0.6c5.3-1.4,10.8-0.2,16.2-0.6c4.3,0,8.5,0,12.8,0c2.4,0.2,4.9-0.5,7.3,0.4c1.6-0.3,3.2-0.6,4.8-0.8
			c8.1,0.9,16.2,0.2,24.4,0.4c0.9-0.2,1.8-0.5,2.7-0.3c5.3,1.7,5.3,1.7,5.3,9.6c0,2,0,4.1,0,6.1c0,0.9,0,1.8,0,2.7
			c-0.2,2.4,0.5,5.1-1.7,7c-2.3,1.3-4.8,1-7.3,1c-16.3,0-32.6,0.6-48.8-0.2c-12.4-0.6-24.9-0.3-37.2-1.3c-4.4-2.8-0.5-5.2,0.4-7.7
			c4.3-5.8,7.2-12.6,12.2-18C127.4,197.1,127.9,197,128.3,197.1z"/>
		<path fill="#B43939" d="M319.1,200c4.9,0,9.8,0.1,14.7,0.1c1.2,0.6,2.3-0.5,3.5-0.3c1-0.1,2,0,3,0.1c0.8,0.1,1.5,0.4,2,0.9
			c0.9,1.3,0.6,2.9,0.7,4.4c0,0.5-0.1,1-0.1,1.4c-0.7,1.8-0.7,3.6-0.3,5.4c0.1,0.5,0,1,0,1.5c-0.6,3.2,0.3,6.5-0.8,9.6
			c-1.1,2.1-3.2,2.1-5.1,2.2c-3.6,0.1-7.2-0.1-10.8,0.2c-10,0.1-20.1,0-30.1,0c-2.1,0-4.3,0.1-6.3-0.9c-2.3-2-1.9-4.7-1.6-7.3
			c0.4-3.7,0.7-7.4,1.1-11.2c0.3-1.4,0.4-2.9,0.6-4.3c1.9-3.4,5.2-1.8,8-2.4C304.6,199.8,311.9,199,319.1,200z"/>
		<path fill="#1B1B1B" d="M465.6,225.7c-0.8-0.2-1.6-0.6-2.3-0.5c-7.7,1.6-11.3-2.5-13.9-9c-1.8-4.5-4.3-8.8-6.5-13.1
			c-0.1-2.3,1.7-1.6,2.8-1.6c4.3-0.1,8.6,0,12.9,0c0.7,0,1.3,0.4,1.9,0.3c7.9-1.5,11.1,3.6,14,9.5c3.2,6.4,6.8,12.5,10.2,18.7
			c-4.1,8.1-9.3,15.6-14.3,23.1c-0.2,0.3-0.9,0.3-1.4,0.4c-0.6-4.6-4.7-7.6-5.4-12.1c1.2-6.1,6.1-9.5,9.4-14c-0.8-0.5-2.2,0-3.5-0.2
			C468.1,227,466.5,227.3,465.6,225.7z"/>
		<path fill="#EAEAEA" d="M313,519c-1.6,4.2-1.3,9.9-8.1,10c-15.5,0.7-30.9,0.6-46.4,0.1c-1.5-0.6-3.1-0.3-4.5-1.1
			c-2.3-3.5-4-7.2-4.8-11.3c2.1-1.6,4.5-1,6.8-1.1c2,0,4,0,6.1,0c2,0,4,0,6,0c2.3,0,4.6,0,6.9,0c2.3,0,4.6,0,7,0c2.1,0,4.1,0,6.2,0
			c2.1,0,4.2,0,6.4,0c4.9,0,9.8-0.2,14.7,0.1C311,515.8,313.9,515.4,313,519z"/>
		<path fill="#363636" d="M103.3,237.6c-1.1,2.1-2.2,4.3-3.4,6.4c-2.5,1.4-4-0.6-5.5-1.9c-1.4-1.2-2.2-2.8-3.6-4
			c-7.7-13.3-15.5-26.5-23.3-39.8c-1.5-2.5-0.5-3.4,1.9-3.3c15.6,0.3,31.3-0.4,46.9,0.8c-0.8,1.2-2.1,1.4-3.4,1.6
			c-10.3,0.4-20.6-0.2-30.9,0c-1.9,0-3.9,0-5.8-0.1c-1.1,0-2.2-0.1-3.6-0.1c9.2,6,17.3,12.7,25.4,19.4c2.1,1.8,5.8,1.9,6.2,5.6
			c-2.7,2-6.2,0.2-9.2,1.6C96.8,229,102,232.1,103.3,237.6z"/>
		<path fill="#1B1B1B" d="M484.8,230c-2.3-0.1-2.8-2-3.6-3.6c-3.8-6.9-7.7-13.8-11.3-20.8c-1.1-2.1-2.5-2.7-4.7-2.7
			c-1.7,0.1-3.7,0.7-5.2-0.9c6.2-1.3,12.6-0.4,18.8-0.5c5.5-0.1,11-0.6,16.4,0.3c0.7,0,1.3,0,2,0c4-0.2,4.3,1.2,2.3,4.4
			C494.4,214.1,489.7,222.1,484.8,230z"/>
		<path fill="#303030" d="M298.1,460.1c14.9,0,29.9,0.1,44.8,0.1c-0.9,2.9-3.3,2.1-5.3,2.3c-2.1,0.2-4.3,0.1-6.4,0.1
			c-2.1-0.2-4.2-0.1-6.2-0.1c-3.8,0.1-7.5,0.1-11.3,0c-1.8,0.1-3.6-0.1-5.7-0.4c4.1,14.7,8,29.2,10.9,44c-1.1,3.6-4.5,5.9-5.1,9.8
			c-0.6,0.9-1.3,0.7-2.1,0.3c-1-0.8-1.5-1.8-1.7-2.9c-3.6-17.4-8.5-34.4-12.6-51.6C297.4,460.9,297.7,460.5,298.1,460.1z"/>
		<path fill="#353535" d="M304.2,529.1c-6.8,10.4-12.2,21.6-20.1,31.2c-0.3-0.2-0.7-0.4-0.7-0.6c-3.1-9.6-4-19.6-5.1-29.6
			c-0.1-0.6,0.5-1.2,1.1-1.5C287.7,528.8,295.9,527.9,304.2,529.1z"/>
		<path fill="#2F2F2F" d="M318.9,506c-1.9-0.8-1.7-2.6-2.1-4.2c-2.9-11.5-5.8-23-8.7-34.4c-1.6-6.4-1.6-6.4,5-6.3
			c2.2,0.6,3.7,1.8,4.4,4.2c2.9,10.2,5.6,20.5,7.7,30.9C323.5,499.6,321.3,502.9,318.9,506z"/>
		<path fill="#393939" d="M249,515c-0.3-0.2-0.4-0.5-0.3-0.9c-1.7-12.8-6-25-9.5-37.4c-1-3.7-2-7.3-3.2-10.9c-1-3-0.1-4.8,3.2-5.2
			c1.9-0.1,3.7-0.2,5.6,0.1c-0.4,3.1,0.4,6,1.3,9c3.9,13.4,8.1,26.7,10.8,40.3c0.4,1.8,1.5,3.8-0.4,5.6
			C253.9,516.1,251.4,516.6,249,515z"/>
		<path fill="#554E4E" d="M237.9,173.9c0.4,0.1,0.7,0.2,1.1,0.2c0.2,2.9-3.8,3.6-3.5,6.5c-0.3,0.7-1,0.9-1.5,1.2l0.1,0.2
			c-0.3,0.3-0.7,0.5-1.1,0.7c-0.4,0.2-0.8,0.3-1.2,0.5c-2.1,0.5-2.8,3-5.1,3.2c-5.1-0.1-10.3,0-15.4-0.1c-0.5,0-1-0.1-1.5-0.2
			c-0.5-0.1-0.9-0.3-1.3-0.5c-1.1-0.8-1-2.4-2.1-3.3c-0.6-0.7-1-1.4-1.4-2.3c-0.7-1.4-1.3-2.9-1.9-4.3c-0.4-0.9-0.8-1.8-1.2-2.7
			c-0.9-1.4-0.2-4-3-4c-0.9-0.7-1.6-1.5,0.1-1.9c1.2-0.3,2.6-0.1,3.9-0.1c0.2,0.1,0.3,0.3,0.5,0.4c1,1.4,0.2,3.5,1.7,4.7
			c0.4,0.2,0.9,0.4,1.3,0.4c8.1,0.3,16.2-0.3,24.3,0.3c1.9,0.4,3.7,1.6,5.8,1C237,173.6,237.5,173.7,237.9,173.9z"/>
		<path fill="#2D2D2D" d="M331,461c4-0.5,8.1,0.9,11.9-0.9c0.2-0.2,0.5-0.3,0.8-0.4c1.1,0,2,0.5,2.6,1.3c-1.7,3.6-3.4,7.2-5.2,10.8
			c-1.1,1.2-2.1,2.6-3.1,3.8c-0.3,1.1-0.6,2.1-1,3.2c-0.6,0.5-1,1.1-1.3,1.8c-0.5,0.9-0.9,1.8-1.3,2.7c-0.6,1.2-1.3,2.4-2.4,3.3
			c-0.7,0.4-1.3,0.7-2.1,0.3c-3-2.7-2.7-6.7-3.9-10.1c-1.3-3.8-2.2-7.7-3.1-11.6c-0.4-1.6-1.4-3.9,1.9-3.9
			C326.9,461.3,329,462,331,461z"/>
		<path fill="#3A3A3A" d="M239,461c-2.4,0.9-2.4,2.4-1.7,4.6c4.5,14.2,8.7,28.5,12.1,43.1c0.5,1.9,1.4,3.9-0.7,5.4
			c-2.9-4.2-5.6-8.4-7.8-13c-4.8-11.5-7.3-23.8-11.3-35.6c-0.6-1.7-1.2-3.6,0.7-5C233.2,460.7,236.2,460,239,461z"/>
		<path fill="#3B3B3B" d="M230,461c3.2,10.9,6.3,21.9,9.4,32.9c0.7,2.4,1,4.8,1.5,7.2c-2.4-3.7-4.8-7.4-7.2-11
			c-0.9-0.5-1.6-1.2-2.3-1.9c-0.5,0.4-0.5,1-0.7,1.5c-0.3,0.7-0.7,1.2-1.4,1.4c-3-2.4-1-6-2-8.9c-0.4-0.8-0.8-1.7-1.2-2.4
			c-0.6-0.9-1.1-1.9-1.7-2.9c-1.3-1.9-2.2-3.9-3.3-5.8c-2.3-2.1-2-5.4-3.4-7.9c-0.3-0.7-0.7-1.3-1-2
			C221.1,459.8,225.5,460.5,230,461z"/>
		<path fill="#544D4E" d="M362.5,187c-6.1,0-12.2,0.1-18.4,0.1c-1,0.6-1.8,0.4-2.3-0.7c2.4-1.9-1-2.3-0.9-3.6
			c-1.1-2-2.1-3.9-1.4-6.3c1.5-2.4,4-1.9,6.3-2c7.7-0.2,15.5,0.1,23.2,0.5c0.4,0,0.7,0,1.1,0c2.6,0.1,4.3,0.8,2.2,3.6
			c-0.9,1.2-1.8,2.3-2.7,3.4c-0.6,0.7-1.4,1.2-2,1.9C365.6,184.7,364.6,186.8,362.5,187z"/>
		<path fill="#2E2E2E" d="M325,462c-0.4,0.2-1.2,0.5-1.2,0.6c2.2,8.2,3.3,16.7,7.2,24.4c1.2,1.5-0.1,2.4-0.8,3.5
			c-0.5,0.7-1.3,1.1-2.1,1.6c-1,1.3-1.9,2.7-2.9,4c-3.6-4.5-3.2-10.3-5-15.4c-1.6-4.9-3-9.9-3.9-14.9c-0.4-2.3-1.8-3.4-3.2-4.7
			c4,0,8,0,12,0c0.3,0.2,0.4,0.4,0.3,0.6C325.2,461.9,325.1,462,325,462z"/>
		<path fill="#363636" d="M279,529.2c1.7,10.4,3.4,20.7,5.1,31.1c-0.1,0.2-0.1,0.3-0.2,0.5c-1.2,1.6-1.6,4.6-4.1,4.3
			c-1.9-0.3-2.5-2.7-3-4.6c-3.2-9.2-3.6-18.9-5.5-28.4c-0.2-1.1-0.2-2.3,0.7-3.3C274.4,528.6,276.8,527.9,279,529.2z"/>
		<path fill="#ADABAB" d="M319.1,200c-5.3,1.9-10.7,0.4-16.1,0.8c-2,0.1-4,0.1-5.9,0.1c-5.3-1.5-10.4,0.9-15.7,0.6
			c-5.4-0.3-10.9-0.2-16.3,0c-5.3-0.3-10.8,1-16-1.1c-1-1.1-1.1-2.3-0.4-3.6c2.4-1.5,4.9-0.6,7.4-0.4c7.8,0,15.6,0,23.4,0
			c3.9,0,7.8,0,11.7,0c2.5-0.2,5.1,0.4,7.6-0.4c0.7,0,1.4,0,2.2,0c1.1,0.6,2.5,0.2,3.7,0.7c4.4,0.2,8.9,0.2,13.3,0
			C319.3,197.6,318.9,198.9,319.1,200z"/>
		<path fill="#373737" d="M272,529.2c2.2,10.3,4.2,20.6,4.9,31.2c-3.5-4.8-6.9-9.6-8.9-15.3c-1.6-5.3-4.1-10.6-2-16.3
			C268,528.5,270,528,272,529.2z"/>
		<path fill="#383838" d="M266,529.2c0.2,5.4,2.4,10.5,1.9,15.9c-4.1-4-6.5-9.1-9-14.1c-0.7-1.3-0.5-2.3,1-2.4
			C262,528.6,264.1,527.9,266,529.2z"/>
		<path fill="#CECEE1" d="M222,18c1.3,7,3.1,13.8,3,21c-0.4,0.3-0.9,0.3-1.3,0c-0.3-0.4-0.5-0.8-0.7-1.3c-0.3-1.7-0.4-3.4-0.9-5
			c-0.4-3.1-0.9-6.2-1.8-9.2c-0.8-2.6-1.5-5.4-3.6-7.4c-1.5,0.8-1.4,2.3-1.9,3.5c-0.9,3.4-0.7,7.1-2.4,10.3
			c-0.4,0.4-0.9,0.5-1.4,0.2c-0.3-5.1,1-10.1,2-15c1.2-1.8,0-5.3,3.2-5.4c2.9-0.1,3.5,3.1,4.7,5.2C221.4,15.8,221.3,17.1,222,18z"/>
		<path fill="#525252" d="M337.9,501c-2.7,2-5.5,1.5-8.2,0c0.1-0.3,0.1-0.6,0.2-0.8c0.2-1.8,0.1-3.6,0.1-5.4
			c0.2-4.6,0.8-5.1,5.7-4.4c2.4,2.8,0.7,6.2,1.4,9.2C337.3,500.1,337.5,500.6,337.9,501z"/>
		<path fill="#412424" d="M230,461c-4.5,0-8.9,0.1-13.4,0.1c-0.9-2.4-1.7-4.7-0.6-7.2c2.3,5.7,6.8,6.5,12.4,6.3
			c9.8-0.4,19.6-0.1,29.4-0.2c0.3,0.6,0.2,1.1-0.3,1.5c-1.9,1.1-3.9,0.9-5.9,0.9c-2.3-0.3-4.8,0.5-6.7-1.4c-2,0-4,0-6,0
			C236,461,233,461,230,461z"/>
		<path fill="#1E1D1D" d="M495.2,201.9c-11.7,0.1-23.5,0.1-35.2,0.2c-5.7,0.5-11.5-1.5-17.1,1.1c-0.3-0.1-0.6-0.1-0.8-0.2
			c-0.5-0.8-2.5,0-2.1-1.9C458.4,201.2,476.8,200.7,495.2,201.9z"/>
		<path fill="#222225" d="M199.1,180.9c-7.2-3.2-7.2-3.2-7.2-9.6c3.9,2,7.7,3.9,11,6.7c0.2,0.2,0.3,0.5,0.3,0.8c0,0.3,0,0.4-0.1,0.4
			C202,180.3,200.9,181.5,199.1,180.9z"/>
		<path fill="#4D4D4D" d="M228,481c2.6,3-0.6,7.1,2,10c0.2,0.2,0.3,0.3,0.5,0.5c1.3,2.6,0.3,5.5,1.1,8.1c0.2,0.4,0.4,0.8,0.6,1.2
			c0.2,0.5,0,0.8-0.5,1c-1.2,0-2.5,0.1-3.7,0.1c-2.8-2.8-0.3-6.9-2.4-9.9c-0.5-0.4-1-0.8-1.4-1.2c-0.2-0.4-0.4-0.7-0.5-1.1
			c0.2-0.3,0.3-0.5,0.5-0.8c1-4-0.5-8.1,0.9-12c0.6,0.7,1.3,1.4,1.9,2.1c-0.5,1.9,0.3,3.9,0.1,5C227.1,483.5,226.7,482,228,481z"/>
		<path fill="#3F3F3F" d="M266,529.2c-2.4,0.3-5.5-1.8-7,1.8c-0.4-0.3-0.7-0.7-1.1-1c-0.3-0.7-0.7-1.5,0.5-1.9
			c13.8,0,27.6,0,41.3,0.1c1.7,0,3.7-0.7,5.2,0.8l-0.4,0.1c0,0-0.4,0-0.4,0c-8.4,0-16.8,0.1-25.1,0.1c-2.3,0-4.7,0-7,0
			C270,529.2,268,529.2,266,529.2z"/>
		<path fill="#D7D7E5" d="M355,21c1.7,6.2,3.1,12.5,3,19c-0.2,0.1-0.4,0.2-0.6,0.3c-0.4-0.2-0.8-0.4-1-0.9c-0.6-1.5-0.6-3.1-1.1-4.6
			c-0.1-0.4-0.2-0.9-0.3-1.3c-0.1-3-0.5-5.9-1.5-8.7c-1.2-3.2-2.3-6.7-6.9-6.4c0.3-2.4,0-5.6,3-5.9c2.7-0.3,3,3,4.3,4.8
			C354.7,18.4,354.1,19.9,355,21z"/>
		<path fill="#DBDBE7" d="M355,21c-1.2-0.7-0.9-2.1-1.5-3c-1.2-1.8-1.7-5.1-4.3-4.5c-1.9,0.4-2.1,3.4-2.1,5.5
			c1.5,5-0.8,9.7-1.5,14.5c-0.4,0.5-0.9,0.6-1.5,0.5c-0.3-7.2,1.4-14,3.1-20.9c0.3-1.2,0.7-2.7,2.3-2.9c1.4-0.2,1.8,1.3,2.4,2.2
			C353.7,14.9,355.3,17.6,355,21z"/>
		<path fill="#1F1F20" d="M235.1,180.8c-2-4.2,2.6-4.4,3.9-6.6c1.5-0.5,2.8-3.4,4.3-1.1c1.2,1.8,1.2,4.5-1.8,5.7
			c-0.9,0.4-1.8,0.8-2.7,1.3C237.7,180.4,236.6,181.4,235.1,180.8z"/>
		<path fill="#5B5B61" d="M334.9,178.2c-0.7-0.7-1.5-1.4-2-2.2c-1.5-2.3-5.4-3.9-4.3-6.5c0.8-1.9,4.8-0.2,7.4-0.6
			C337.6,172.2,339,175.5,334.9,178.2z"/>
		<path fill="#1F1F20" d="M369,181.8c0-1.5,0.9-2.4,2-3.2c2.8-2.1,0.1-2.5-0.9-3.4c2.2-1,7.7,1.3,8,3.5c0.2,1.1-0.7,1.3-1.4,1.7
			c-1.9,1-3.8,1.9-5.7,2.8C369.9,183.4,369.2,182.9,369,181.8z"/>
		<path fill="#B4B4E9" d="M233,182.1c0.4,0,0.7,0,1.1,0c0,2.8,0.2,5.6-0.2,8.4c-0.6,4.8,0.2,8.3,6,8.3c-1.7,2.3-4.5,1.1-6.7,2.1
			c-1.3,0.3-2.6,0.4-3.9,0.1c-1-0.3-1.8-0.9-1.8-2.1c0.1-0.5,0.3-0.8,0.6-1.1c0.7-0.3,1.7-0.1,2.3-0.8c0.7-3.5,0.4-7,0.2-10.6
			c-0.1-0.4-0.2-0.9-0.3-1.3c-0.1-0.9,0-1.8,0.9-2.3C231.8,182.5,232.5,182.5,233,182.1z"/>
		<path fill="#884545" d="M395.1,202.1c-7.1-0.1-14.2-0.1-21.3-0.2c0.4-0.3,0.7-0.9,1.1-0.9c14.8,0.1,29.6-0.4,44.4,0.8
			c-2.6,1.3-5.4,0.3-8.1,0.6c-2.7,0-5.4,0-8.2,0C400.4,202.3,397.7,202.9,395.1,202.1z"/>
		<path fill="#505050" d="M225,491c2-0.1,3.5,0.6,2.8,2.7c-0.9,2.8,0.4,5.5,0.1,8.3c-3.8,0.9-5.3-0.6-4.8-4.4
			c0.3-2.6-0.7-5.3,0.6-7.8c0.1,0.1,0.3,0.2,0.4,0.4c1,3.3-0.3,6.8,0.8,10c0.2,0.6,0.5-0.5,0-0.1C224.3,497,224.2,494,225,491z"/>
		<path fill="#353535" d="M249,515c2.7,0,5.3,0,8,0c1.7-1.7,3.8-1.3,5.8-1.4c2-0.1,4-0.1,6,0c2.2,0,4.4-0.1,6.6,0.4
			c2,0.8,4.3,0.4,6.2,1.6c0.1,0.2,0.3,0.5,0.4,0.7c-2.4,0.5-4.8,0.5-7.2,0c-2.4,0.3-4.8,0.1-7.2,0.1c-1.9,0-3.8,0-5.7,0
			c-2,0-3.9,0-5.9,0c-2.2-0.2-4.6,0.5-6.7-0.5C249.2,515.7,249.1,515.3,249,515z"/>
		<path fill="#A3A3D7" d="M237.9,173.9c-0.3,0.1-0.7,0.2-1,0.3c-1.6,0.4-3.2,0.5-4.8-0.1c-7.6,0-15.3,0-22.9-0.1
			c-1.8,0-3.7,0.6-5.2-1c0.3-0.4,0.6-0.7,1.1-0.8c0.7-0.2,1.4-0.3,2.1-0.3c0.5-0.1,1-0.1,1.4-0.1c0.5-0.1,1-0.1,1.5-0.1
			c0.5,0,1-0.1,1.6-0.1c5.5-0.1,10.9-0.1,16.3,0c0.5,0,1.1,0,1.6,0.1c0.8,0,1.6,0.1,2.4,0.2c0.8,0.2,1.5,0.6,2.1,1.1
			C235.4,173.2,237,172.4,237.9,173.9z"/>
		<path fill="#BEBEE8" d="M365.1,141.9c1.8,4.1,0.7,8.4,0.8,12.6c0.2,6.7,0.1,13.5,0.2,20.3c-0.5,0.6-1,0.6-1.5,0
			c-1.8-4.2-0.6-8.6-1-12.8c0.1-5.6-0.1-11.1,0.1-16.7C363.8,144,364,142.7,365.1,141.9z"/>
		<path fill="#7B7B91" d="M365,174.8c0.4,0,0.7,0,1.1,0c1,0.1,1.9,0.2,2.9,0.3c-8.1,2.1-16.4,0.4-24.6,1c-1.6,0.1-3.9-1.1-4.4,1.8
			c-0.4,0.4-0.9,0.4-1.3,0c-0.6-0.9-0.6-1.9-0.1-2.9c0.3-0.4,0.7-0.7,1.2-0.9c0.7-0.3,1.5-0.4,2.3-0.4c0.8-0.1,1.6-0.1,2.4-0.1
			c0.5,0,1.1-0.1,1.6-0.1c4.7,0,9.4-0.1,14.1,0c1.1,0.1,2.2,0.1,3.3,0.4C364.1,174.2,364.6,174.5,365,174.8z"/>
		<path fill="#E6E6EC" d="M222,18c-0.6-0.9-1.2-1.9-1.9-2.8c-1.3-1.6-1.7-4.5-3.9-4.6c-2.3-0.1-1.5,3.3-3.2,4.4
			c-0.3-2.4,0.4-4.7,1-7c1.4-2.2,2.8-2,4.2-0.1c1,1.3,1.8,2.8,2.8,4.1C221.3,14,222.4,15.9,222,18z"/>
		<path fill="#3A3939" d="M90.7,238.1c3.4,1.5,5.3,5.2,9.2,5.9c-0.6,1.6-1.2,3.2-1.7,4.8C93.9,246.5,93.2,241.7,90.7,238.1z"/>
		<path fill="#B1B1DD" d="M234.1,172.9c-0.8,0-1.5,0-2.3,0c-2-2.8-0.9-5.9-1.2-8.9c0.4-5.5-0.8-11,0.8-16.4c0.4-0.6,0.9-0.8,1.6-0.5
			C233.3,155.6,232.6,164.3,234.1,172.9z"/>
		<path fill="#535353" d="M225.1,476.9c-0.5,4,0.9,8.1-0.9,12c0-1.1-0.1-2.3,0-3.4c0.5-4.8,0-9.3-4.3-12.4c0.3-1.1,0.4-2.5,2.1-2.1
			C223.7,472.6,224.5,474.7,225.1,476.9z"/>
		<path fill="#BEBEE8" d="M201.9,198c0.1-5,0.1-10,0.2-15c0.7-0.7,1.5-0.8,2.5-0.6c0.6,0.2,1,0.6,1.3,1.2c0.4,3.4,2.2,7-1.7,9.5
			c-1.2-2.3-0.1-4.8-0.4-6.3c-0.1-1.7-1.2-1-0.5-1.1c0.1,0,0.1,0,0.1,0.1c-0.5,4,2.3,8.2-0.4,12.1
			C202.5,198.1,202.2,198.1,201.9,198z"/>
		<path fill="#874545" d="M202.2,199c-7,0-14,0.1-20.9,0c-1.4,0-3,0.4-4.2-0.9c8.3,0,16.6-0.1,24.9-0.1c0,0,0,0.2,0,0.2
			c0.4,0,0.6,0.2,0.5,0.4C202.3,198.8,202.3,199,202.2,199z"/>
		<path fill="#363636" d="M337,500.8c-2.1-3.1-0.5-6.5-1-9.8c-0.3-0.4-0.6-0.9-0.9-1.4c-1.1-3.2,0.3-6.4-0.1-9.6c0.4-0.9,1.2-1,2-1
			c0.9,3.6-0.7,7.4,1,11C336.6,493.5,338.3,497.3,337,500.8z"/>
		<path fill="#959595" d="M280,197c-8,0-16,0-24,0c-0.3-0.2-0.5-0.5-0.3-0.7c0.1-0.2,0.2-0.4,0.3-0.4c8,0.1,16,0.2,24,0.2
			c0.3,0.2,0.4,0.4,0.3,0.6C280.2,196.9,280.1,197,280,197z"/>
		<path fill="#A9A9A9" d="M318.1,196.8c-4.7,1.9-9.4,1.7-14.1,0.2c1.5-1.1,3.4,0.1,4.9-0.8C312,196.2,315.1,195.3,318.1,196.8z"/>
		<path fill="#ACACED" d="M336.1,165.1c0-0.7,0-1.4,0-2.1c0.9-2.3,0.2-4.7,0.4-7c0.1-1.4-0.2-2.7,0.3-4.1c0.6-0.3,1.1-0.2,1.6,0.3
			c0.7,1,0.9,2.2,0.9,3.4c0.1,4.1,0.1,8.2,0,12.3c0,1.9,0.3,4-1.7,5.3C335.1,170.8,337.5,167.6,336.1,165.1z"/>
		<path fill="#B9B9DB" d="M335.1,191c-0.1-2.6-0.1-5.2-0.2-7.8c1.6-1,2.6,0,3.4,1.2c-0.3,4.6,1.4,9.4-1.6,13.7
			c-0.6,0.1-1-0.2-1.1-0.8C335.2,195.3,336,193.1,335.1,191z"/>
		<path fill="#B3B3F1" d="M206.1,108c0-1.4,0-2.7,0-4.1c0.8-0.5,0-2.5,1.8-2.1c0.5,0.4,0.8,0.8,1,1.3c0.8,4.4,0.4,8.8,0.4,13.2
			c0,1.5-0.2,3-1.9,3.7c-1.4-0.6-1.3-1.8-1.4-2.9C206,114.2,207.3,111.1,206.1,108z"/>
		<path fill="#A8A8DF" d="M336.1,165.1c1.8,2.5,0.4,5.4,1,8.1c1.7,2.2,0.4,5,1.6,7.3c0.1,0.7,0.1,1.5-0.2,2.2
			c-2.1,1.6-2.7-0.7-3.9-1.5c-0.3-0.4-0.5-0.8-0.6-1.2c0.3-0.6,0.6-1.1,0.9-1.7c2.1-2.9,0.8-6.2,1-9.3
			C336,167.6,336,166.3,336.1,165.1z"/>
		<path fill="#D9D9D9" d="M312,516.1c0.6-0.1,1.2-0.2,1.9-0.3c0.3,1.2,0.3,2.4-0.9,3.2c-0.4-2.5-2.3-1.9-3.9-1.9
			c-5.1-0.1-10.3-0.2-15.4-0.3c0-0.7,0.2-1.2,0.8-1.5c4.7-1.6,9.5-0.4,14.3-0.7C310,514.7,311.1,515.2,312,516.1z"/>
		<path fill="#B9B9D9" d="M372,201.8c-0.3,0-0.7,0.1-1,0.1c-2-1.2-4.6,0.6-6.6-1.3c-1.5-4.4-1.1-8.9-0.3-13.4c0.4-0.8,0.8-1.7,2-1
			c0,2.2-0.1,4.3-0.2,6.5c-0.2,4-0.8,8.2,5.4,7.9C371.6,200.5,371.8,201.4,372,201.8z"/>
		<path fill="#B5B5E6" d="M205.2,172.9c-0.4,0.1-0.8,0.1-1.2,0.2c0,0,0-0.1,0-0.1c-1.2-1.8,0.6-4.2-1.2-5.9c0,0,0.1-0.1,0.1-0.1
			c0.5-5-0.8-10.2,1-15.2c0.8,0.5,1.1,1.3,1.3,2.2c0.5,3.9-0.3,7.8,0.7,11.6c0.4,1.6,0.5,3.3,0.3,5
			C206.1,171.5,205.7,172.2,205.2,172.9z"/>
		<path fill="#464646" d="M222,471c-0.7,0.7-1.4,1.4-2.1,2.1c-2.9-2.8-1.1-6.7-2.2-10C219.1,465.7,220.6,468.4,222,471z"/>
		<path fill="#DBDBDB" d="M231.7,501.9c0.1-0.3,0.1-0.6,0-0.9c-1.7-3.8,0-7.9-1.2-11.7c0.6-0.9-1.4-3,1.4-3c0.6,1.3,1.2,2.6,1.8,3.8
			c-1.5,2.3-0.4,4.9-0.8,7.3C232.8,499,233.7,500.8,231.7,501.9z"/>
		<path fill="#F5F5F6" d="M221,12c-1.4-0.7-2.4-1.7-3-3.1c-1-2-2.3-1.9-4-0.9c0.2-1.5,0.4-3.3,2.1-3.5c1.6-0.2,1.8,1.7,2.6,2.7
			C219.9,8.6,220.8,10.1,221,12z"/>
		<path fill="#B1B1DD" d="M229.1,74.9c1.7,3.9,0.6,8,1,12c0.6,0.9,0.4,1.9,0.3,2.9c-0.4,0.4-0.8,0.5-1.4,0.4c-1-0.9-1.4-2.1-1.8-3.3
			c-0.3-1.3-0.3-2.5,0-3.8c0.3-1.2,0.5-2.5,0.5-3.8C227.8,77.7,227.6,76,229.1,74.9z"/>
		<path fill="#A9A9DE" d="M359,49c0.1,0.3,0.1,0.6,0,0.9c1.1,1.9-0.3,4.2,0.9,6.1c0.1,0.3,0.1,0.6,0.1,0.9c0.8,1.8,0.3,3.7,0.4,5.5
			c-0.1,0.6-0.5,0.9-1.1,0.9c-1.9-0.9-1.3-3.1-2.4-4.4c-0.5-0.9-0.8-1.8-0.7-2.8c0.3-1.4,0.4-2.8,0.5-4.3c0.1-1,0.2-2,0.9-2.8
			C358.1,48.7,358.5,48.6,359,49z"/>
		<path fill="#8D3434" d="M440,201.1c0.7,0.6,1.4,1.2,2.1,1.9c-4.7,0-9.4,0-14.1,0c-0.3-0.2-0.4-0.4-0.3-0.6
			c0.1-0.2,0.2-0.3,0.3-0.3C432,201.7,436,201.4,440,201.1z"/>
		<path fill="#AFAFEE" d="M338.1,122c0-2.3,0-4.7,0-7c0.9-0.9-0.1-2.5,1.1-3.3c0.5,0,1,0.1,1.3,0.6c0.7,1.2,0.7,2.4,0.8,3.7
			c0,1.8,0.1,3.7-0.6,5.4c-0.2,0.5-0.6,0.8-1.2,1C339,122.5,338.5,122.4,338.1,122z"/>
		<path fill="#B0B0F1" d="M207,117c0,1,0,2.1,0.1,3.1c2,2.6,1.4,5.4,0.8,8.3c-0.3,0.5-0.7,0.9-1.3,1c-2-0.9-0.3-3.1-1.4-4.2
			c0-1.7,0-3.4,0-5c0.8-0.9,0.2-2.1,0.7-3.1C206.2,116.6,206.6,116.7,207,117z"/>
		<path fill="#222222" d="M113.4,196.2c1-0.1,1.9-0.2,2.9-0.3c4,0.2,8.3-1.5,12.1,1.2c0,0-0.2-0.1-0.2-0.1l-0.2,0.1
			c-4.1,2.4-8.5,1.6-12.8,1.1C114.2,198,113.1,197.6,113.4,196.2z"/>
		<path fill="#AEAEE6" d="M232,122c0,1.3,0,2.6,0.1,3.9c0.8,3.5,0.3,7.1,0.3,10.7c-0.3,0.6-0.8,0.8-1.5,0.6
			c-1.4-1.5-1.2-3.3-1.3-5.1c0.2-3.2-0.6-6.5,0.8-9.6C230.9,121.8,231.4,121.7,232,122z"/>
		<path fill="#B9B9DE" d="M211,30c0.3,0,0.7,0,1,0c2.3,2.5,0,5.3,0.4,7.9c-0.2,1.9,0.3,3.9-1.6,5.3c-0.3-0.1-0.5-0.1-0.8-0.2
			C209.8,38.6,210,34.3,211,30z"/>
		<path fill="#AFAFDD" d="M365.1,141.9c-0.1,1-0.1,2.1-0.2,3.1c-0.6,0.3-1.1,0.1-1.5-0.4c-1.2-4.4-1.2-8.7,0-13.1
			c0.4-0.6,0.9-0.7,1.5-0.4C365,134.6,365,138.3,365.1,141.9z"/>
		<path fill="#999999" d="M256,195.9c0,0.4,0,0.7,0,1.1c-2.3,0-4.7,0-7,0c-0.6-0.1-1-0.5-1.1-1.1C250.6,194.7,253.3,195.1,256,195.9
			z"/>
		<path fill="#B1B1DD" d="M206.9,89.9c0.1-3,0.1-5.9,0.2-8.9c0.5-0.3,0.9-0.3,1.3,0.2c0.9,1.3,0.8,2.9,0.9,4.3
			c0,1.2,0.4,2.4,0.3,3.7c-0.4,1.7-0.2,3.6-1.5,5c-0.6,0.2-1,0-1.4-0.4C206.5,92.5,206.2,91.2,206.9,89.9z"/>
		<path fill="#AFAFEB" d="M339.1,102c0-1.3,0-2.7,0-4c1.1-1.9-0.2-4.2,0.8-6.1c0.6-0.1,1.1,0,1.5,0.5c1.5,2.9,1.1,5.9,0.4,8.9
			c-0.2,0.5-0.6,0.9-1.2,1.2C340.1,102.5,339.6,102.4,339.1,102z"/>
		<path fill="#B0B0F1" d="M204.1,145c0-1.7,0-3.4,0-5c0.7-1,1.4-1.9,2.5-0.5c0.8,3,1.6,6-0.9,8.6C203.6,148,205.1,145.8,204.1,145z"
			/>
		<path fill="#B3B3DC" d="M363.9,101c0.1,3,0.1,5.9,0.2,8.9c0.7,1.6,0.4,3.3,0.2,5c-0.5,0.4-1,0.5-1.5,0.2c-1.2-1.4-1-3.2-1.1-4.8
			c0-1.9,0-3.8,0-5.7c0-1.1,0.2-2.2,0.8-3.1C362.9,100.8,363.4,100.7,363.9,101z"/>
		<path fill="#ACACDF" d="M342.9,46.9c0-0.3,0-0.6,0-0.9c1.2-1.9,0-4,0.8-5.9c0.5-0.4,0.9-0.4,1.5-0.2c0.6,0.6,0.8,1.3,1,2.1
			c0.2,1.9,0.2,3.7-0.3,5.6c-0.4,1.3-0.7,2.6-1.8,3.5c-0.6,0.2-1,0.1-1.4-0.3C342.5,49.5,342.2,48.2,342.9,46.9z"/>
		<path fill="#929293" d="M366.2,186.2c-0.4,0.3-0.8,0.5-1.2,0.8c-0.7,0.6-1.3,0.6-2.1,0.1c0,0-0.5-0.1-0.5-0.1c0.6-2.3,3-2.8,4.5-4
			c1.2-0.4,2,0.2,2.4,1.2C368.4,184.9,367.3,185.6,366.2,186.2z"/>
		<path fill="#912E2E" d="M165,199c-4.3,0-8.7,0-13,0c-0.3-0.2-0.5-0.4-0.3-0.5c0.1-0.2,0.2-0.3,0.4-0.3c0.7-0.1,1.3-0.3,2-0.4
			c3.7,0.1,7.3,0.1,11,0.2c0.3,0.2,0.4,0.4,0.3,0.6C165.2,198.9,165.1,199,165,199z"/>
		<path fill="#C0C0E8" d="M364,115c0-1.7,0.1-3.4,0.1-5.1c1.8,4.3,0.6,8.7,0.8,13.1c-0.6,0.3-1.1,0.1-1.5-0.4
			C362.4,120,362.2,117.4,364,115z"/>
		<path fill="#A0A0C2" d="M202.9,179c0-0.4,0-0.7,0-1.1c0.1-0.7,0.2-1.4,0.3-2.1c1.4,1.1,2.8,2.3,2.7,4.3c-0.3,1.1-1,2-2.2,2.2
			C201.8,181.6,200.9,180.6,202.9,179z"/>
		<path fill="#BABAEB" d="M232,137c0-3.7,0.1-7.4,0.1-11.1c1.7,3.9,0.7,8.1,0.8,12.1c-0.3,0.3-0.7,0.3-1.1,0.1
			C231.6,137.7,231.6,137.3,232,137z"/>
		<path fill="#ADADE5" d="M224,39c0.3,0,0.7,0,1,0c0.9,2.9,1.1,5.9,1.1,9c-0.2,0.1-0.5,0.2-0.7,0.2C222.5,45.5,222.6,42.3,224,39z"
			/>
		<path fill="#979797" d="M280,197c0-0.3,0-0.6,0-0.8c4,0,8,0,12,0c0.3,0.2,0.4,0.4,0.3,0.5c-0.1,0.2-0.2,0.3-0.3,0.3
			C288,197,284,197,280,197z"/>
		<path fill="#B9B9E7" d="M206,139c-0.6,0.3-1.3,0.7-1.9,1c0.2-3.1-0.8-6.2,0.8-9.1c1.6,1.3,1.3,3.4,1.9,5.1
			C207,137.1,206.9,138.2,206,139z"/>
		<path fill="#9A9A9A" d="M328,492c0.3-0.6,0.7-1.3,1-1.9c2.6,0.2,1.3,2.2,1.4,3.4c0.2,2.5,0.2,4.9,0,7.4l-0.4,0.2
			c0,0-0.4-0.1-0.4-0.1C327.7,498.3,330.4,494.7,328,492z"/>
		<path fill="#A9A9E7" d="M337.9,129.9c0-1,0.1-1.9,0.1-2.9c0.6-0.3,1.1-0.2,1.5,0.3c1.4,3,0.7,6.1,0.7,9.2
			c-0.1,0.9-0.4,1.7-0.9,2.3c-0.5,0.4-1,0.4-1.5,0.1c-0.4-1.1-0.2-2.2-0.3-3.3C337.7,133.8,337.1,131.8,337.9,129.9z"/>
		<path fill="#B0B0E7" d="M226.1,48c1.5,2.1,0.7,4.6,0.9,6.9c0.5,0.8,0.5,1.6-0.1,2.3c-3-2.9-3.3-5.7-1.1-9.2L226.1,48z"/>
		<path fill="#161616" d="M329,179c-2.7-0.1-4.2-2-6.1-3.7c3.2-0.9,4.5,1.3,6.1,3c0.3,0.2,0.4,0.3,0.3,0.5
			C329.2,178.9,329.1,179,329,179z"/>
		<path fill="#BEBEE7" d="M231.1,102.9c1.7,3.6,0.6,7.4,0.8,11.1c-0.6,0.3-1.1,0.1-1.5-0.4c-1.2-2.5-0.7-5.1-0.8-7.6
			C229.8,104.8,230,103.6,231.1,102.9z"/>
		<path fill="#313131" d="M337,500.8c0.5-3.6-1.1-7.4,1-10.8c0.6,3.7,0.5,7.3-0.1,11C337.6,500.9,337.3,500.9,337,500.8z"/>
		<path fill="#BEBEE3" d="M340,92c-0.4,2,0.7,4.2-1,6c0.2-3.4-0.8-6.9,0.9-10.1C341.2,89.2,341.2,90.6,340,92z"/>
		<path fill="#ACACDF" d="M339.1,102c0.3,0,0.6,0,0.9,0c2,3.3,2.1,6.7,0,10c-0.3,0-0.6,0-0.9,0c-0.8-1.3-0.7-2.7-0.1-4.1
			C339,105.9,339,104,339.1,102z"/>
		<path fill="#AEAEE8" d="M359,49c-0.3,0-0.7,0-1,0c-1.5-1.3-1.1-3.2-1.8-4.8c-0.1-0.5-0.2-1-0.3-1.5c0-1.1,0.1-2,1-2.8
			c0.3,0,0.6,0,1,0C358.3,43,359.4,45.9,359,49z"/>
		<path fill="#B7B7E8" d="M209,53c0.2-3.4-0.8-6.8,0.9-10.1c0,0,0.2,0.1,0.2,0.1c2,3,1.5,6.1,0.5,9.3C210.2,52.9,209.7,53.1,209,53z
			"/>
		<path fill="#B2B2DC" d="M231.1,102.9c0,1-0.1,2.1-0.1,3.1c-0.5,0.3-1,0.2-1.4-0.3c-1.2-2-0.8-4.2-0.8-6.4c0-1.1,0.2-2.2,0.8-3.1
			c0.4-0.5,0.8-0.6,1.4-0.3C231,98.3,231,100.6,231.1,102.9z"/>
		<path fill="#BDBDE7" d="M363.9,101c-0.3,0-0.6,0-0.9,0c-1.3-1.1-1.3-2.7-1.4-4.2c0.1-2.1-0.4-4.3,1.4-5.9
			C364.8,94.1,363.7,97.6,363.9,101z"/>
		<path fill="#BCBCEA" d="M208,81c-0.3,0-0.6,0-0.9,0c0.1-3.4-0.8-6.9,0.8-10.2c1.1,0.8,1.3,2,1.4,3.2C209.2,76.5,209.9,79,208,81z"
			/>
		<path fill="#B1B1E6" d="M360,63c0-2,0-4.1,0.1-6.1c1.7,2.8,0.7,5.9,1,8.9c0.4,0.5,0.4,1-0.1,1.4c-0.6,0.1-1,0-1.4-0.5
			C358.8,65.4,359,64.1,360,63z"/>
		<path fill="#424242" d="M198.9,169.1c3.1-1.1,3.1-1.1,3,4C201,171.8,199.9,170.4,198.9,169.1z"/>
		<path fill="#040404" d="M329,179c0.1-0.3,0.1-0.5,0-0.8c1.7,0.6,3.4,1.1,5,1.7c0.2,0.2,0.4,0.3,0.7,0.3c-0.1,2.7-1.8,0.9-2.8,1
			C330.6,180.9,329.4,180.5,329,179z"/>
		<path fill="#828292" d="M202.9,179c-0.5,1.3-0.5,2.4,1,3c0.3,0.2,0.4,0.4,0.3,0.6c-0.1,0.2-0.2,0.3-0.3,0.3c-0.6,0-1.2,0-1.8,0.1
			c-1-0.7-2-1.4-3-2.1C200.4,180.4,201.3,179,202.9,179z"/>
		<path fill="#7B7B91" d="M331.9,181.2c0.8-0.6,2.4,0.7,2.8-1c1.1,1,2.1,2,3.2,2.9c0.1,0.1,0.2,0.3,0.3,0.4
			c-0.1,0.1-0.2,0.3-0.3,0.4c-1-0.2-2-0.5-3.1-0.7C333.9,182.5,332.5,182.4,331.9,181.2z"/>
		<path fill="#D8D8F8" d="M337,152c0,1.3,0,2.6,0,4c-0.3,0.5-0.6,0.5-0.9,0.1c0.2-3-0.8-6.1,0.8-9c0.2,0.2,0.4,0.3,0.6,0.5
			C338.3,149.1,338.2,150.6,337,152z"/>
		<path fill="#B7B7EA" d="M344,40c-0.4,2,0.8,4.2-1.1,6c0.2-3-0.7-6.2,1-9.1C344.9,37.9,344.8,39,344,40z"/>
		<path fill="#BABAE8" d="M230.9,96c-0.3,0-0.6,0-0.9,0c-1.7-2-1.5-4,0-6c0-1,0.1-2.1,0.1-3.1C231.7,89.8,230.8,93,230.9,96z"/>
		<path fill="#C1C1EA" d="M206.9,89.9c0,1.4,0.1,2.7,0.1,4.1c1.2,1.4,1.3,3,0.5,4.6c-0.4,0.5-0.8,0.6-1.4,0.4
			C206.2,96,205.3,92.8,206.9,89.9z"/>
		<path fill="#B5B5DC" d="M232,138c0.3,0,0.6,0,0.9,0c0,3,0,6,0.1,9c0,0-0.5,0-0.5,0l-0.5,0C230,144,230,141,232,138z"/>
		<path fill="#B9B9E5" d="M208.1,65c0.1-3.1-0.8-6.2,0.8-9.1c1.7,1.5,1.3,3.6,1.4,5.6c0,1.1-0.2,2.2-0.8,3.2
			C209.1,65.2,208.7,65.3,208.1,65z"/>
		<path fill="#ACACDF" d="M363.1,90.9c0,2-0.1,4.1-0.1,6.1c-0.6,0.3-1.1,0.2-1.5-0.3c-0.9-1.5-0.8-3.3-0.8-5
			c0.1-1.4,0.1-2.9,1.4-3.9C363.3,88.6,363.1,89.8,363.1,90.9z"/>
		<path fill="#ACACDF" d="M209,62c0-2-0.1-4.1-0.1-6.1c0-1,0.1-1.9,0.1-2.9c0.3,0,0.6,0,1,0c0.2,0.2,0.4,0.4,0.5,0.5
			c0.8,1.4,0.7,3,0.7,4.5c0,1.3-0.1,2.6-0.9,3.8C210,62.3,209.5,62.3,209,62z"/>
		<path fill="#A9A9E1" d="M204.1,145c1.1,0.7,0.9,1.9,0.9,3c1.5,1.7,1.4,3.6,0.5,5.6c-0.4,0.5-0.9,0.7-1.5,0.4
			c0-0.7-0.1-1.4-0.1-2.1C204,149.6,204,147.3,204.1,145z"/>
		<path fill="#9A3131" d="M411,202.2c2.8-0.1,5.5-0.2,8.3-0.4c0.2-0.2,0.5-0.2,0.7,0.1c0.3,0.2,0.5,0.5,0.3,0.7
			c-0.1,0.2-0.2,0.4-0.3,0.4c-3,0-6,0-9,0c-0.3-0.2-0.4-0.4-0.3-0.5C410.8,202.3,410.9,202.2,411,202.2z"/>
		<path fill="#B2B2DC" d="M208.1,65c0.3,0,0.6,0,0.9,0c1.4,1.3,1.2,3,1.3,4.7c0,1.4-0.1,2.8-0.8,4c-0.4,0.5-0.9,0.6-1.4,0.3
			c0-1.1-0.1-2.1-0.1-3.2C208,68.9,208,67,208.1,65z"/>
		<path fill="#A8A8E3" d="M207,117c-0.3,0-0.6,0-0.9,0c-0.8-1-0.7-2-0.1-3.1c0-2,0.1-3.9,0.1-5.9C207.9,110.9,206.6,114,207,117z"/>
		<path fill="#A9A9EA" d="M362.9,85c-0.3,0.4-0.5,0.7-0.8,1.1c-0.4,0.4-0.9,0.4-1.4,0.1c-0.3-0.4-0.6-0.8-0.7-1.3
			c-0.4-2-0.4-4,0.2-6c0.2-0.5,0.6-0.8,1-1.1c0.6,0,0.9,0.2,1.2,0.8C362.8,80.6,362,82.9,362.9,85z"/>
		<path fill="#B9B9E5" d="M362.9,85c-1.8-2.1-0.5-4.7-1-7c-0.3-0.4-0.2-0.8,0.2-1.2C363.7,79.4,362.8,82.3,362.9,85z"/>
		<path fill="#8B383E" d="M232.7,199.8c2.2-1.7,4.9-0.3,7.3-1c0.3,0.1,0.7,0.2,1,0.3c0.3,0.7,0.1,1.2-0.5,1.5
			C237.8,201.6,235.1,202.1,232.7,199.8z"/>
		<path fill="#B5B5DC" d="M364,123c0.3,0,0.6,0,0.9,0c0,2.7,0,5.3,0,8c-0.3,0-0.6,0-0.9,0c-0.5-0.4-0.8-0.9-1-1.4
			C362.6,127.3,362.2,125,364,123z"/>
		<path fill="#BCBCEA" d="M340.1,80c0.1-2.7-0.8-5.6,0.8-8.2c0.8,0.5,1.1,1.3,1.2,2.1c0.2,1.9,0.4,3.9-0.6,5.7
			C341.1,80.2,340.7,80.3,340.1,80z"/>
		<path fill="#AAAADF" d="M229.1,74.9c0,1.7-0.1,3.4-0.1,5.1c-3.7-1.9-2.2-4.8-1.5-7.6c0.4-0.6,0.9-0.7,1.5-0.4
			C229,73,229,73.9,229.1,74.9z"/>
		<path fill="#B4B4E7" d="M229,72c-0.3,0-0.6,0-1,0c-0.7-0.6-1-1.4-1.2-2.3c-0.1-2-0.5-4.2,1.3-5.8C229.7,66.4,228.8,69.3,229,72z"
			/>
		<path fill="#BABAE8" d="M341.1,66c0.1-2.7-0.8-5.6,0.8-8.1c1.2,1,1.3,2.4,1.4,3.8c0,1.4,0,2.8-0.8,4
			C342.1,66.2,341.7,66.3,341.1,66z"/>
		<path fill="#932F2F" d="M420,203c0-0.4,0-0.7,0-1.1c2.7-0.4,5.3-0.3,8,0.1c0,0.3,0,0.6,0,1C425.3,203,422.7,203,420,203z"/>
		<path fill="#B5B5E3" d="M227,57c0-0.7,0.1-1.4,0.1-2.1c1.7,2.5,0.7,5.4,1,8.1c-0.5,0.4-0.9,0.3-1.4-0.1c-0.5-0.7-0.7-1.4-0.8-2.2
			C225.8,59.3,225.9,58,227,57z"/>
		<path fill="#AFAFDE" d="M342,62c0-1.4-0.1-2.7-0.1-4.1c0.1-1.3,0.1-2.6,0.2-3.9c0.5-0.3,1-0.2,1.3,0.2c0.6,0.9,0.7,1.9,0.8,3
			c0,1.6,0.1,3.2-0.8,4.6C343,62.3,342.5,62.3,342,62z"/>
		<path fill="#B4B4DC" d="M231,114c0.3,0,0.6,0,0.9,0c0,2.7,0,5.3,0.1,8c-0.3,0-0.7,0-1,0c-1.5-1.3-1.3-3.1-1.3-4.9
			C229.8,115.9,230,114.8,231,114z"/>
		<path fill="#B2B2DC" d="M341.1,66c0.3,0,0.6,0,0.9,0c1.4,1.3,1.2,3,1.3,4.6c0,1.1-0.2,2.2-0.8,3.1c-0.4,0.5-0.9,0.6-1.4,0.3
			c0-0.7-0.1-1.4-0.1-2.2C341,69.9,341,68,341.1,66z"/>
		<path fill="#1A1010" d="M346.3,461.1c-1-0.1-2-0.4-2.6-1.3c0.6-0.9,1.2-1.9,1.9-2.9C346,458.3,346.9,459.6,346.3,461.1z"/>
		<path fill="#A3A3A3" d="M308.9,196.2c-1.4,1.5-3.3,0.6-4.9,0.8c-1,0-2.2,0.2-2.9-0.9C303.7,196.2,306.3,196.2,308.9,196.2z"/>
		<path fill="#BEBEEB" d="M338.9,107.9c0,1.4,0.1,2.7,0.1,4.1c-0.1,1.1,0.1,2.2-0.9,3C338.2,112.6,337.4,110.1,338.9,107.9z"/>
		<path fill="#8B3333" d="M165,199c0-0.3,0-0.6,0-1c2.5,0,5-1.1,7.2,0.9C169.8,198.9,167.4,199,165,199z"/>
		<path fill="#B7B7EB" d="M343,54c-0.3,0-0.6,0-0.9,0c0.1-2.4-0.8-4.9,0.8-7.1c0,1.4,0.1,2.7,0.1,4.1C343.8,52,343.9,53,343,54z"/>
		<path fill="#AAAADE" d="M227,63c0.3,0,0.7,0,1,0c0.1,0.3,0.1,0.6,0,0.9c0,2-0.1,4.1-0.1,6.1c-0.5,0.3-1,0.3-1.4-0.2
			c-0.8-1.2-0.8-2.5-0.8-3.9C225.9,64.8,226.1,63.7,227,63z"/>
		<path fill="#B6B6DB" d="M336.1,156c0.3,0,0.6,0,0.9-0.1c-0.3,2.3,0.9,4.9-0.9,7C336.1,160.7,336.1,158.3,336.1,156z"/>
		<path fill="#AEAEDD" d="M340,92c0-1.4-0.1-2.7-0.1-4.1c0-1,0.1-1.9,0.1-2.9c0.5-0.3,1-0.3,1.4,0.2c1.1,2,1,4.1,0.2,6.2
			c-0.2,0.2-0.4,0.4-0.6,0.6C340.7,92,340.4,92,340,92z"/>
		<path fill="#787878" d="M247.9,195.9c0.4,0.4,0.8,0.7,1.1,1.1c0,0.9,0,1.8,0,2.7c-0.2,0.4-0.5,0.6-1,0.5c-0.6-0.3-1-0.7-1.1-1.4
			C247.2,197.9,246.6,196.6,247.9,195.9z"/>
		<path fill="#B1B1DC" d="M362.1,76.8c-0.1,0.4-0.1,0.8-0.2,1.2c-0.3,0-0.6,0-0.9,0c-1.8-2-1.5-4.2-0.6-6.5c0.3-0.6,0.8-0.7,1.5-0.5
			C361.9,72.9,362,74.9,362.1,76.8z"/>
		<path fill="#393939" d="M249.3,516c2.3,0.1,4.5,0.1,6.8,0.2l0,0.3c-2.3,0.1-4.6,0.2-6.9,0.3C249.1,516.5,249.2,516.2,249.3,516z"
			/>
		<path fill="#894141" d="M246.9,198.9c0.4,0.3,0.8,0.6,1.1,1c-2.3,2-4.7,1.9-7,0.1c0-0.3,0-0.6,0-0.9
			C243,199,244.9,199,246.9,198.9z"/>
		<path fill="#9B9B9B" d="M292,197c0-0.3,0-0.5,0-0.8c2.3,0,4.6,0,6.9,0C296.8,197.8,294.3,196.7,292,197z"/>
		<path fill="#B2B2DE" d="M344,40c0-1-0.1-2.1-0.1-3.1c0-1,0-2,0-2.9c0.3,0,0.6,0,1,0c0.2,0.2,0.4,0.3,0.5,0.5
			c0.7,1.4,0.7,2.9,0.4,4.3c-0.2,0.5-0.5,0.9-0.9,1.2C344.7,40,344.4,40,344,40z"/>
		<path fill="#AEAEE8" d="M360,56c-1.8-1.8-0.7-4-0.9-6.1C360.6,51.7,359.9,53.9,360,56z"/>
		<path fill="#AEAEDD" d="M338,136c0,1,0,2,0,3c0.8,0.8,0.9,1.8,0.4,2.8c-0.4,0.5-0.8,0.5-1.3,0.2c0-2,0-4,0-6
			C337.4,135.6,337.7,135.5,338,136z"/>
		<path fill="#BBBBE4" d="M205.9,113.9c0,1,0.1,2.1,0.1,3.1c-0.1,1.1,0.1,2.3-1,3C205.2,117.9,204.4,115.8,205.9,113.9z"/>
		<path fill="#A7A6DB" d="M336,197c0,0.3,0,0.7,0.1,1c0.9,0.8,1.6,1.7,1,3c-1.2,0.2-2.3-0.1-3.2-0.8c1.3-0.7,1.1-2,1.3-3.1
			C335.4,196.6,335.7,196.5,336,197z"/>
		<path fill="#C0C0EF" d="M338,136l-0.5,0c0,0-0.5,0-0.5,0c0-2.1-0.7-4.2,0.8-6.1C338,132,338,134,338,136z"/>
		<path fill="#A7A7E7" d="M206,136c-1.6-1.4-0.6-3.4-1-5.1c0-0.3,0-0.6,0.1-0.9c0.6-0.4,1.1-0.3,1.5,0.3
			C207.4,132.3,207.6,134.2,206,136z"/>
		<path fill="#676774" d="M235.1,180.8c1.3-0.3,2.5-0.5,3.8-0.8c-1.3,1.5-2.8,2.5-4.9,1.9C234.4,181.5,234.7,181.1,235.1,180.8z"/>
		<path fill="#2D2D2D" d="M338,475.8c0.2-2,1.5-3,3.1-3.8C341.1,474.1,339.6,475,338,475.8z"/>
		<path fill="#B1B1DC" d="M336,197l-0.5,0c0,0-0.5,0-0.4,0c0-2,0-4,0-6C336.8,192.8,335.7,195,336,197z"/>
		<path fill="#B0B0EE" d="M361,86c0.4,0,0.8,0,1.1,0.1c0,0.6-0.1,1.2-0.1,1.8c0,1.4,0,2.8-0.1,4.2c-0.6,0.3-1.1,0.2-1.5-0.3
			C359.6,89.7,359.4,87.8,361,86z"/>
		<path fill="#7676AA" d="M369.4,184.3c-0.8-0.4-1.6-0.8-2.4-1.2c0.3-1,1.2-1,2-1.2c0.7,0.5,1.3,0.9,2,1.4
			C370.8,184,370.1,184.1,369.4,184.3z"/>
		<path fill="#A9A9DF" d="M339,127c-0.3,0-0.6,0-0.9,0c0-1.7,0-3.3,0.1-5c0.3,0,0.6,0,0.9,0C340.3,123.7,340.5,125.3,339,127z"/>
		<path fill="#A8A8E1" d="M206,130c-0.3,0-0.7,0-1,0c0-1.7,0.1-3.3,0.1-5c1.4,1.1,0.8,2.6,0.9,4c0.2,0.2,0.3,0.4,0.2,0.7
			C206.2,129.9,206.1,130,206,130z"/>
		<path fill="#B8B8DB" d="M206.1,99c0.3,0,0.6,0,0.9,0c0.9,1,0.8,2,0,3c0,0.8-0.2,1.5-0.9,2C206.1,102.3,206.1,100.7,206.1,99z"/>
		<path fill="#A8A8E1" d="M337.1,142c0.3,0,0.6,0,0.9,0c1.4,1.4,1.3,3,0.5,4.7c-0.4,0.5-0.9,0.6-1.4,0.3c0,0-0.2,0-0.2,0
			C336.9,145.3,337,143.7,337.1,142z"/>
		<path fill="#B3B3DC" d="M341,85l-0.5,0c0,0-0.5,0-0.5,0c0-1.7,0-3.3,0.1-5c0.3,0,0.6,0,0.9,0C342.5,81.7,342.5,83.3,341,85z"/>
		<path fill="#DDDDDD" d="M258.4,528.2c-0.2,0.6-0.3,1.2-0.5,1.9c-1.3-0.7-2.6-1.3-3.9-2C255.4,528.1,256.9,528.1,258.4,528.2z"/>
		<path fill="#B4B4E6" d="M361.8,71c-0.3,0-0.6,0-0.8,0c-1.2-1.3-1-2.6,0-4c0-0.4,0.1-0.8,0.1-1.2C362.4,67.4,361.9,69.2,361.8,71z"
			/>
		<path fill="#EDEDED" d="M103.3,237.6c-3.4-4.4-6.8-8.7-10.1-13.1c-1.1-1.5-0.7-2.4,1.3-2.4c3.2,0,6.3-0.1,9.5-0.1
			c2.4-1.9,5-1.3,7.7-0.9c0.5,0.3,1,0.6,1.5,0.9c31.6,0.5,63.1,1.3,94.7,1c0.7-0.3,1.2-0.1,1.6,0.5c1.5,3.3,0.8,6.9,0.8,10.3
			c0.1,7.8,0,15.6,0,23.4c0.1,1.6-0.1,3.1-0.9,4.5c-0.4,0.6-0.9,0.7-1.5,0.3c-27.4-0.3-54.9-0.7-82.3-0.8c-3.4,0-5.5-1.1-7.4-3.8
			C113.4,250.7,108.3,244.2,103.3,237.6z"/>
		<path fill="#EDEDED" d="M465.6,225.7c2.9,0,5.8,0,9.8,0c-4.4,5.8-8.1,10.7-11.7,15.6c-5.1,6.5-10.4,12.9-15.3,19.5
			c-1.7,2.3-3.5,3-6.3,3c-15.6-0.1-31.2-0.1-46.8-0.1c-9.3-1.1-18.6-0.4-27.9-0.7c-7.1-0.2-6.3,0.8-6.2-6.6
			c0.1-9.2,0.5-18.3,0.5-27.5c0-3.5,1-4.4,4.5-4.3c31.8,0.5,63.6,0.8,95.4,1.2C463,226,464.3,225.8,465.6,225.7z"/>
		<path fill="#EDEDED" d="M288.9,224c12.3,0,24.6,0.1,36.9,0.1c4.6,0.8,9.3,0.2,13.9,0.4c1.1,0,2.3-0.4,3.3,0.6
			c0,12.6,0.6,25.2-1,37.8c-17.7-0.1-35.3-0.2-53-0.3c-1.7,0-3.9,0.8-4.3-2.1c-1.6-1.6-1.4-3.7-1.2-5.7c0.7-6.8,0.9-13.6,2.4-20.3
			c0.6-1.8,0.8-3.7,0.8-5.6C286.8,227.1,286.8,225,288.9,224z"/>
		<path fill="#272727" d="M369.9,387c0,2.1,0.1,4.3,0.1,6.4c-0.1,7.9-0.1,7.9-8,7.6c-2.4-2-3.7-4.9-4.5-7.6
			c-2.1-7.6-5.5-14.6-9-21.5c-0.2-0.4-0.4-0.9-0.6-1.3c-0.3-0.7-0.6-1.3-0.8-2c-0.4-3.2-1.8-6-3.1-8.9c-0.8-1.8-1.9-3.6-1-5.7
			c4.8,0.7,7-1.1,6.2-6.2c-0.2-1.5-0.4-3.3,0.6-4.8c1.8-0.5,2.4,0.9,2.9,2.1c5.2,12.1,11,24,15.6,36.3
			C369,383.2,368.7,385.3,369.9,387z"/>
		<path fill="#262626" d="M369.9,387c-3.1-2.8-3.3-7-4.9-10.6c-4-8.7-7-17.8-11.7-26.2c-1.3-2.3-1-5.5-3.5-7.3
			c-0.2-13.8-0.2-13.9,13.4-13.8c2.5,0,5.3-0.9,7.6,0.8c-3,2.3-6.4,1.2-9.7,1.3c-3.5,0.1-3.9,1.3-2.5,4.3
			c3.6,7.7,7.2,15.4,10.4,23.2c-0.6-3.4-0.4-6.9-0.2-10.4c0.1-1.4-0.1-3.2,2.1-3.3C371.4,359,369.9,373,369.9,387z"/>
		<path fill="#2B2B2B" d="M290.1,317.1c-3.3,2.9-2.8,5.1,1.3,6.5c7.1,2.5,10.5,7.3,8.8,15c-1.4,6.1,1.8,10.3,5.9,14.1
			c1.1,1.5,2.9,0.2,4.2,1c4.4,3.2,5.6,8.2,7.4,12.8c0.4,1.1,0,2.3-1.1,3c-3.2,1.2-6.5,0.9-9.8,0.3c-2.6-1.4-3-4.1-4.1-6.5
			c-5-11.5-10.1-22.9-17.1-33.4c-0.9-1.1-2.2-1.8-2.9-3.1c0.4-2.8-1.2-5-2.2-7.4c-0.5-1.3-2.4-3.3,0.8-4.1c2.3,0,4.6,0,6.9,0
			C289.3,315.6,290.3,315.6,290.1,317.1z"/>
		<path fill="#2D2D2D" d="M311,400.9c-3,0-6,0-9,0c-1.4-1.1-2.1-2.5-2.8-4.1c-4.2-9.9-8.5-19.7-13.3-29.4c-0.7-1.5-1.1-3.1-1.4-4.8
			c0.4-0.5-0.3-0.4-0.3-0.1c0.1,1.6-0.5,2.2-2,0.9c-1.6-5,0.6-9.8,0.6-14.7c0.3-1.3,0.8-2.5,1.6-3.6c2.1-1.1,2.4,0.8,3.2,1.9
			c5.6,7.9,8.5,17.1,12.3,25.9c0.5,1.2,0.9,2.5,1.6,3.6c1.2,3,3.8,5.1,4.6,8.3c1.2,3.6,3,6.9,4.2,10.5
			C311.1,397.2,312.4,398.9,311,400.9z"/>
		<path fill="#2F2F2F" d="M280,382c-1,0.8-1.9,1.5-2.9,2.3c-3.5-6.2-7.5-12.2-9.1-19.3c-1.7-2-3.4-4.1-5.1-6.1c-2.3-0.9-4.7,0-7-0.6
			c-3.6-2.8-4.7-7.1-6.4-11c-0.5-1.1-0.2-2.3,1-3c5.4-1.1,10.9-0.8,16.3-0.3c4.6,3.4,5.5,9.2,8.7,13.6c1.4,2,2.3,4.4,3.9,6.3
			c0.7,1.1,1.1,2.4,1.4,3.6c0.7,3.7,0.1,7.4,0.8,11.1C281.7,380,281.2,381.2,280,382z"/>
		<path fill="#363636" d="M276,515c-2.3,0-4.7,0-7,0c-1.6-1.7-1.9-3.8-2.4-5.9c-3-14.1-7-28-11.2-41.8c-1.1-3.5-1.2-6,3.2-6.6
			c1.7-1.1,3.6-0.6,5.4-0.7c5,0.1,10,0.1,15,0.2c0,0.6-0.3,1-0.8,1.4c-3.4,1.4-7,0.4-10.4,0.9c-3.4,0.4-3.3,2.3-2.4,5
			c3.8,12.4,7,25,10,37.7c0.7,3,1.9,6.1,1.1,9.3C276.3,514.6,276.2,514.8,276,515z"/>
		<path fill="#282727" d="M288.9,224c-0.4,1.7-0.7,3.3-1.1,5c-0.9,1.7,0.1,3.6-0.8,5.3c-0.8,8.7-1.6,17.5-2.4,26.2
			c-1.2,2.4-0.1,5-0.8,7.5c-1,1.6,0.2,3.5-0.8,5.1c0,1.6,0,3.2-0.1,4.8c-2.9-2.2-1-5.2-1.5-7.9c0-3.5,0.5-7.1-1.5-10.3
			c-0.8-4.2-0.4-8.4-0.5-12.6c0.1-7.3,0.4-14.6-0.2-22c-0.2-0.5-0.3-1.1-0.4-1.7c-0.3-3.4-0.6-6.8,0.3-10.1c1.8-3.4,4.2-6.2,6.8-8.9
			c1.8-1.8,2.2-1.6,4.1,0.6C289.7,211.4,289.3,217.7,288.9,224z"/>
		<path fill="#2E2E2E" d="M280,382c0.3-1,0.7-2,1-3c0.4-1.8-0.2-3.7,0-5.5c0.3-3.2-0.9-6.8,2-9.5c0.6-0.7,1.1-1.5,1.8-2.3
			c6,13.1,12.4,25.8,17.2,39.3c-5.6,1.2-9.3-0.9-12.2-5.8C287,390.4,283.3,386.3,280,382z"/>
		<path fill="#292828" d="M343,353.9c1.2,5.2,5.7,9.2,5,15c-6.2,2.8-12.7,1.1-19,1.1c-4.7-4-6.7-9.5-8.3-15.2
			c-0.2-0.7,0.3-1.2,1.1-1.3c4.1,0.2,8.3-0.5,12.4,0.4C337.1,353.9,340,353.9,343,353.9z"/>
		<path fill="#2A2929" d="M351,400.9c-6.7,0-13.3,0-20,0c-3.7-3.6-5.1-8.3-6.3-13.1c-0.3-1.3,0.1-2.3,1.4-2.8c6-0.7,12.1-0.7,18.1,0
			C349.5,389.1,351.3,394.6,351,400.9z"/>
		<path fill="#363636" d="M216,358.1c-6.7,1.2-11.7-0.6-14.9-7.1c-1.6-3.2-4-6.1-6.5-8.6c-3.7-3.8-3.7-7.1,0.2-10.7
			c1.2-1.1,2.1-2.5,3.2-3.7c1.5,0.2,2.2,1.3,3,2.4c5.3,8,10.1,16.3,15,24.6C216.5,355.9,217,357,216,358.1z"/>
		<path fill="#2B2B2B" d="M325,386.1c2,5,4,9.9,6,14.9c-6.7,0-13.3,0-20,0c-2-5.4-3.9-10.8-5.9-16.2c0.6-0.2,1.1-0.3,1.7-0.3
			c4.2,0.4,8.5,0.1,12.7,0.2C321.5,384.7,323.5,384.3,325,386.1z"/>
		<path fill="#343434" d="M201.9,322.8c1.2-2.7,3-4.9,5.1-6.9c4.5,5.1,7.4,11.3,11.3,16.8c-1.4,6.3-0.7,7.7,5.1,10.8
			c4.3,4,7.6,8.6,8.6,14.5c-2.7,0-5.3,0-8,0c-3.1-1.5-4.1-4.7-5.7-7.3c-4.9-8.1-10.2-15.9-15.2-23.9
			C202.3,325.6,201.2,324.5,201.9,322.8z"/>
		<path fill="#262525" d="M370.9,345c-2.2,5.5,0,11.3-1.3,17.5c-4.8-10.4-9.3-20.2-13.8-30.1c-1.1-2.4,0.5-2.5,2.1-2.5
			c4.3,0,8.6,0,12.9,0C370.9,335,370.9,340,370.9,345z"/>
		<path fill="#2F2F2F" d="M226.9,264c0,5,0,10,0,15c-4.9,1-9.9,0.2-14.9,0.5c-2,0.1-2.6-1-2.5-2.8c0.1-2.7,0-5.3,0-8
			c0-5.7,0.3-6.2,6.3-6.1C219.5,262.7,223.4,261.5,226.9,264z"/>
		<path fill="#252323" d="M342.9,280c0-2,0-4,0-6c0.8-0.8,0.6-1.9,0.6-2.8c0.2-6.7,0.2-6.7,7.1-6.7c9.9,0,9.9,0,9.9,9.9
			c0,6.8,0.7,6.1-6.2,6C350.5,280.4,346.7,281,342.9,280z"/>
		<path fill="#353535" d="M201.9,322.8c7.4,11.8,14.8,23.5,22.1,35.3c-2.7,0-5.3,0-8,0c-5.4-10.5-11.8-20.2-18.1-30.2
			C198.9,325.9,200,324.1,201.9,322.8z"/>
		<path fill="#282828" d="M351,400.9c-1.6-5.1-3.2-10.3-6-14.9c0.7-1.1,2.4-1.5,2.4-3.2c0.8-3.9-1.2-8.3,1.6-11.9
			c4.2,6.7,7.3,13.8,9.4,21.5c0.8,2.9,3,5.4,3.6,8.5C358.3,401,354.7,400.9,351,400.9z"/>
		<path fill="#363636" d="M232,387c-5,0-10,0-15,0c-3.1-3.3-5-7.3-6.9-11.3c-0.6-1.3-1.7-3.1,0.6-4.2c4.4-0.1,8.7,0,13.1,0
			C228.3,375.7,231.1,380.8,232,387z"/>
		<path fill="#333232" d="M213,315c3.3,0,6.7,0,10,0c2.3,2.2,4.4,4.7,5.7,7.5c2.5,5.4,6.6,7,12.1,6.1c2.8-0.1,5.6-0.1,8.4,0
			c3.2-0.2,6.5,0,9.7,0c2.7-0.1,5.5-0.1,8.2,0.2c1.2,0.6,3.6,0,2.6,2.7c-1.3,0.9-2.8,1.1-4.2,1.1c-12.9,0-25.8,0.4-38.7-0.2
			c-2.7-0.5-4.9-2-6.2-4.4C218.1,323.5,213.8,320.3,213,315z"/>
		<path fill="#2E2E2E" d="M267,330c-2.7,0-5.3,0-8,0c-4.5-4.1-7.3-9.2-9-14.9c12.9,0,25.7,0,38.6,0c0.8,0,4.7-1.3,1.5,2
			c-3.1-2.3-6.7-0.6-10.1-1.1c-2.8,2.3-6.1,1.2-9.2,1.4c-3-0.3-6.2,0.6-8.9-0.9c1.3,2.4,3.1,4.9,4.5,7.6
			C267.4,325.9,268.7,327.8,267,330z"/>
		<path fill="#303030" d="M268,365c3.3,6.3,7.6,12.1,9.1,19.3c-1.5,4.5-5.2,2.4-8.1,2.8c-1.6-4.1-3-8.3-5.7-11.8
			c-0.9-1.2-1.5-2.6-0.2-4C264.7,369.1,266.3,367.1,268,365z"/>
		<path fill="#2F2F2F" d="M250,315.1c3,5,6,10,9,14.9c-3.3,0-6.7,0-10,0c-3.5-3.3-5.8-7.5-7.9-11.8c-0.5-1-1.2-2.1-0.1-3.2
			C244,315.1,247,315.1,250,315.1z"/>
		<path fill="#303030" d="M241,315.1c1.6,5.5,6.1,9.6,8,14.9c-3,0-6,0-9,0c-3.6-4.7-8.5-8.5-9-15C234.3,315,237.7,315,241,315.1z"/>
		<path fill="#1F1D1D" d="M284.1,422.1c-1.1,8.6-2.1,17.3-3.2,25.9c-0.6,0.6-1.2,0.6-1.8,0c-0.4-8-0.8-15.9-1.2-23.9
			c-0.5-1.2-0.2-2.6-0.4-3.9c-0.2-2.7,0.6-4.5,3.7-4.3c2.8,0.1,3.5,1.8,3.3,4.3C284.4,420.8,284.4,421.5,284.1,422.1z"/>
		<path fill="#333333" d="M213,315c4.5,4.9,6.6,11.5,12,15.7c-1.9,2.1-4.3,2.5-7,2.3c-5-4.8-8.2-10.9-11-17.1
			C208.7,314.1,211,315.1,213,315z"/>
		<path fill="#313131" d="M231,315c2.2,5.5,7.1,9.3,9,15c-8.5,0-13.4-4.2-17-15C225.7,315,228.3,315,231,315z"/>
		<path fill="#323232" d="M247,371.9c3,0,6,0,9,0c3,4.6,6.5,9.1,6,15.1c-2.7,0-5.3,0-8,0C250.3,382.6,247.5,377.8,247,371.9z"/>
		<path fill="#313131" d="M262,387c-2-5-4-10.1-6-15.1c2.3-0.2,4.7,0.2,7-0.7c-0.1,3.8,3.7,5.6,4.6,8.9c0.6,2.3,2.5,4.3,1.3,6.9
			C266.7,387,264.3,387,262,387z"/>
		<path fill="#343434" d="M247,387c-2.7,0-5.3,0-8,0c-3.8-3.3-5.5-7.9-7.3-12.4c-0.5-1.2-0.7-2.6,1.2-3.1c2.4,0.2,4.8-0.5,7.2,0.4
			l0,0C242.5,376.9,246.4,381.2,247,387z"/>
		<path fill="#333333" d="M232,358.1c-3.1-4.6-5.2-9.9-9-14c2.5-2.2,5.4-1.4,8.3-1c0.8,0.3,1.5,0.7,2.1,1.4c1.9,2.9,3.7,5.8,5.2,9
			c0.7,1.6,2,3.2,0.2,5c-1.3,0.1-2.6,0.4-3.9-0.3C233.9,358.1,233,358.1,232,358.1z"/>
		<path fill="#333333" d="M247,387c-2.3-5-5.7-9.6-7-15.1c2.3,0,4.6,0,6.9,0c2.3,5,4.7,10.1,7,15.1C251.7,387,249.3,387,247,387z"/>
		<path fill="#393939" d="M210,387c-4.3,0-8.7,0-13,0c-1.4-1-2.7-1.9-2-4c3-2.7,5.9-5.5,8.9-8.2C207.6,378,210.7,381.6,210,387z"/>
		<path fill="#353535" d="M232,372.1c1.3,5.5,5.1,9.8,7,14.9c-2.3,0-4.7,0-7,0c-1.8-5.2-6.3-9.2-7-14.9
			C227.3,371.2,229.7,371.2,232,372.1z"/>
		<path fill="#383838" d="M210,387c-1-4.6-4.2-8.1-6.1-12.2c0.8-1.2,1.7-2.3,3-2.8c1-0.6,2.1-0.7,3.1,0.1c1.1,5.6,5.8,9.4,7,14.9
			C214.7,387,212.3,387,210,387z"/>
		<path fill="#AA5454" d="M208,262c0.2-0.2,0.3-0.3,0.5-0.1c3.8-2.3,8.1-1.2,12.2-1.4c2.2-0.1,4.3-0.2,6.5-0.3
			c15.2,0.6,30.4,0.1,45.6,0.3c2.6,0,5.3-0.3,7.8,1c0.6,0.4,0.7,1,0.2,1.6c-18,0-35.9,0-53.9,0.1c-5.9,0.6-11.9,0.7-17.8-0.1
			C208.7,262.7,208.4,262.3,208,262z"/>
		<path fill="#262424" d="M342.9,280c4.5,0,8.9-0.1,13.4,0c2.8,0.1,3.8-1,3.7-3.8c-0.3-13.9,1.8-10.7-10.6-11.4
			c-4.4-0.2-6.2,1.1-5.5,5.5c0.2,1.3,0.3,2.7-1,3.6c0-3.3,0-6.7,0-10c5.9,0,11.9,0.1,17.8,0.1c0,4.6,0.1,9.2,0.1,13.8
			c0,1.3,0,2.9-1.9,2.9C353.6,280.6,348.2,281.7,342.9,280z"/>
		<path fill="#312F2F" d="M209.1,263c5.9,0,11.9,0,17.8,0.1c0.1,0.3,0.1,0.6,0,0.9c-4.5,0-9,0.1-13.5,0c-2.6-0.1-3.4,1-3.5,3.5
			c-0.7,11.5-0.7,11.5,10.9,11.5c2,0,4,0,6,0c-5.2,1.9-10.7,0.6-16,0.7c-2.1,0.1-1.9-1.9-1.9-3.4C209,271.9,209.1,267.5,209.1,263z"
			/>
		<path fill="#6B2323" d="M284.1,422.1c-0.5-1.5,0.6-3.4-1-4.7c-1.7-1.4-4.8-0.1-5.1,2.2c-0.2,1.5-0.1,3-0.2,4.4
			c-1.2-1.4-0.8-3.1-0.8-4.7c-0.1-2.8-0.8-5.8,3.9-5.4c4.2,0.3,4.1,3.1,4,5.9C284.9,420.6,284.4,421.3,284.1,422.1z"/>
		<path fill="#393737" d="M210,372.1c-1,0-2.1-0.1-3.1-0.1c3.6-1.8,7.4-0.8,11.1-0.7c7.3,0.2,14.7-1.1,22,0.7c-2.7,0-5.4,0.1-8,0.1
			c-2.3,0-4.7,0-7,0C220,372.1,215,372.1,210,372.1z"/>
		<path fill="#2D2A2A" d="M334.2,353.9c-4.4,0-8.8,0.1-13.1,0.1c-3.7,2.3-7.3,1.8-11,0c-1.4-0.2-3.1,0.5-4-1.3
			c7.6,0.1,15.2,0.2,22.8,0.4C330.6,353.2,332.5,352.7,334.2,353.9z"/>
		<path fill="#343232" d="M234.9,358.1c1.4,0,2.8-0.1,4.1-0.1c5.7-2.4,11.3-2.2,17,0c2.3,0.4,4.8-0.8,6.9,0.9c-7.8,0-15.5,0-23.3,0
			C238,358.8,236.3,359.2,234.9,358.1z"/>
		<path fill="#7E2E2E" d="M282,270c0.5,2.6-1.1,5.5,1,8c0,2.3,0,4.7,0,7c-0.6,0.6-1.3,0.6-1.9,0c0.3-5-0.7-10.1,0.2-15.1
			C281.5,269.6,281.8,269.6,282,270z"/>
		<path fill="#BB7171" d="M298.1,460.1c-0.1,0.2-0.2,0.5-0.2,0.7c-0.3,0.5-0.7,0.8-1.2,1c-1.9,0.5-3.7,0.6-5.5-0.4
			c-0.5-0.4-0.6-0.9-0.3-1.4C293.3,458.4,295.7,458.4,298.1,460.1z"/>
		<path fill="#3D3A3A" d="M195,383c0.7,1.3,1.3,2.6,2,4c-1.7,0-3.5,0.6-5.2-0.4C192.3,384.8,193.7,384,195,383z"/>
		<path fill="#343434" d="M291,460c0.1,0.3,0.2,0.5,0.3,0.8c-2.8,2.6-6.4,1-9.6,1.7c-0.9,0.1-1.7-0.2-2.3-0.8
			c-0.1-0.2-0.3-0.5-0.4-0.7c0-0.2,0-0.5,0-0.7C283,460.2,287,460.1,291,460z"/>
		<path fill="#BA6E6E" d="M264,460c-1.5,1.4-3.4,0.4-5,0.9c-0.3,0.4-0.6,0.4-0.8-0.1c-0.1-0.3-0.2-0.6-0.3-0.9
			C260,458.5,262,458.4,264,460z"/>
		<path fill="#2A2727" d="M282,270c-0.3,0-0.5-0.1-0.8-0.1c-0.1-2.3-0.2-4.6-0.4-6.8c0-0.4,0-0.8-0.1-1.2c-0.4-0.7-0.3-1.3,0.4-1.8
			C282.9,263.2,281.6,266.7,282,270z"/>
		<path fill="#923232" d="M281,285c0.6,0,1.3,0,1.9,0c-0.1,1.3,0.4,2.7-1.4,3.3C280.6,287.3,281.1,286.1,281,285z"/>
		<path fill="#592727" d="M281,449c0,1.9,0.2,3.8-1.8,5.6c0-1.2,0-2,0-2.7C280.2,451.3,278.4,448.7,281,449z"/>
		<path fill="#2A2727" d="M283.1,273.2c0.1-1.7-0.7-3.6,0.8-5.1C283.9,269.8,284.3,271.6,283.1,273.2z"/>
		<path fill="#3B1F1F" d="M281,449c-0.6,1-1.2,1.9-1.8,2.9c0-1.3,0-2.6,0-3.9c0.6,0,1.2,0,1.8,0C280.9,448.3,280.9,448.7,281,449z"
			/>
		<path fill="#AC9CB9" d="M342,186c0.7,0.4,1.4,0.8,2.1,1.2c-0.1,4.6-0.1,9.1-0.2,13.7c-0.5,0.7-1.2,0.8-2,0.4
			c-0.7-0.1-1.3-0.2-2-0.3c-2.6-4.6-1.5-9.4-0.9-14.2C340.7,184.7,340.9,184.6,342,186z"/>
		<path fill="#BBBBF1" d="M363,187.1c0.7,0,1.4-0.1,2.1-0.1c0,4.7,0,9.3,0,14c0.5,0.5,0.3,0.8-0.4,0.8c-1.4-0.2-2.7-0.6-2.5-2.4
			C362.4,195.4,361.5,191.2,363,187.1z"/>
		<path fill="#9E3232" d="M342,201.3c0.7-0.1,1.3-0.3,2-0.4c0,6.1,0.1,12.3,0,18.4c0,1.6,0.5,3.4-0.9,4.7c-0.2-0.2-0.4-0.4-0.6-0.6
			c-0.8-3.7-0.6-7.3,0-11c-0.9-2.1,0.2-4.3-0.4-6.4C342,204.4,342,202.8,342,201.3z"/>
		<path fill="#B26066" d="M343,225.1c-5.7-1.2-11.5,0.5-17.2-1c3.8-0.1,7.6-0.1,11.3-0.3c1.5-0.1,3.5,0.7,3.9-1.8
			c1.9-0.6,1.1,1.6,2,2c0,0,0.1,0,0.1,0C343,224.4,343,224.7,343,225.1z"/>
		<path fill="#A73535" d="M411,202.2c0,0.3,0,0.5,0,0.8c-2.7,0-5.3,0-8,0c-0.3-0.2-0.4-0.4-0.3-0.6c0.1-0.2,0.2-0.3,0.3-0.3
			C405.7,202.2,408.4,202.2,411,202.2z"/>
		<path fill="#AC3636" d="M403,202.2c0,0.3,0,0.6,0,0.8c-2.6-0.4-5.5,0.9-7.9-0.9C397.7,202.1,400.4,202.1,403,202.2z"/>
		<path fill="#8B3A40" d="M364.7,201.9c0.1-0.3,0.2-0.6,0.4-0.8c2,0.4,4.2-0.8,6,0.9C368.9,201.9,366.8,201.9,364.7,201.9z"/>
		<path fill="#333333" d="M113.4,196.2c4.8,1.7,9.7,0.3,14.5,0.8c-3.9,6-7.8,12.1-11.7,18.1c-2.1,0.8-3.6-0.5-4.9-1.7
			c-3-2.9-6.7-5-9.6-7.9c-5.4-5.4-11.5-8.3-19.2-7.5c-0.5-0.1-1-0.3-1.4-0.6c-0.4-0.4-0.5-0.9-0.1-1.4
			C91.8,196.1,102.6,196.2,113.4,196.2z"/>
		<path fill="#343434" d="M82,197c12.8-2.9,19.4,7.4,27.9,13.5c2.1,1.5,3.8,3.7,6.3,4.6c-0.4,2.5-3.2,4-3,6.8c-0.4,0-0.8,0-1.2,0
			c-5.2-2.1-8.8-6.3-13.1-9.7c-4.8-3.9-9.8-7.4-14.4-11.4C83.3,199.8,81.4,199.2,82,197z"/>
		<path fill="#B56A86" d="M209.1,258c-0.1-11.6-0.2-23.2-0.3-34.8c-0.9-2.3,0.3-4.9-0.7-7.2c0-0.7,0-1.4,0-2.2
			c0.7-1.9,0.7-3.9,0-5.9c-0.5-3.4,1.6-8-4.2-8.9c0.3-0.5,0.6-0.8,1.1-1.1c2.4-1,2.6-3,2.7-5.3c0.1-2.6-0.6-5.3,1.3-7.6
			c0.4,0,0.8,0,1.2,0c1.8,1.9,1.5,4.3,1.5,6.6c0,19.8,0.1,39.5,0,59.3C211.5,253.6,212.4,256.6,209.1,258z"/>
		<path fill="#A73535" d="M152,198.2c0,0.3,0,0.5,0,0.8c-5.6,0-11.2,0-16.8,0c0-0.3,0-0.5,0-0.8C140.8,198.2,146.4,198.2,152,198.2z
			"/>
		<path fill="#B1B0ED" d="M205,198.8c-0.3,0.1-0.7,0.2-1,0.4c-0.6-0.1-1.2-0.1-1.7-0.2c-0.1-0.3-0.2-0.5-0.3-0.7
			c2.6-4.1,0.2-8.7,2.2-13c0,2.6,0,5.2,0,7.8C205.5,194.8,205.7,196.7,205,198.8z"/>
		<path fill="#B37FAC" d="M208.1,216.1c1.7,2.2,0.6,4.8,0.7,7.2c-0.3-0.1-0.6-0.2-0.9-0.3C208,220.7,208,218.4,208.1,216.1z"/>
		<path fill="#B2739C" d="M208.1,208.1c1.3,2,1.4,3.9,0,5.9C208.1,212,208.1,210,208.1,208.1z"/>
		<path fill="#282828" d="M290.1,205.1c-1.4-1.7-2.2-0.9-3.4,0.3c-2.4,2.4-3.6,5.8-6.8,7.5c-3.8-2.6-2.1-6.2-1.6-9.5
			c0.3-0.5,0.7-0.9,1.2-1.2c2.3-1,4.9-0.4,7.2-1c1.5-0.3,2.6,0.4,3.3,1.7C290.9,203.7,290.8,204.4,290.1,205.1z"/>
		<path fill="#CFCFF8" d="M340,186c0,5,0,10,0,15c-1,0-2,0-3,0c-0.3-1-0.6-2-1-3c1.9-2.6,0.7-5.6,0.9-8.4c0.2-1.9,0.1-3.9,1-5.6
			c0,0,0.1,0.1,0.1,0.1c0.7-0.6,1.4-0.6,2.1-0.2C340.6,184.6,340.6,185.3,340,186z"/>
		<path fill="#A24C4C" d="M290,203c-0.9-0.3-1.8-0.6-2.8-0.9c-2.3,0.8-4.9-0.1-7.2,0.8c-0.3,0.1-0.6,0.2-0.9,0.2
			c-3.8,0-7.5-0.9-11.2-0.9c-1.2,0-2.7-0.2-2.8-2.1c10.7,0.1,21.4-0.8,32.1,0.8C294.8,201.8,291.5,199.3,290,203z"/>
		<path fill="#9B4C50" d="M343,224c-0.7-0.7-1.3-1.3-2-2c0.2-3.4-0.8-6.8,1-10c0.3-0.3,0.7-0.3,1,0C343,216,343,220,343,224z"/>
		<path fill="#9A3536" d="M343,212c-0.3,0-0.7,0-1,0c0,0,0,0,0,0c-0.7-1.7-0.7-3.3,0-5c0-0.3,0-0.7,0-1
			C343.8,207.8,342.7,210,343,212z"/>
		<path fill="#B24345" d="M342,207c0,1.7,0,3.3,0,5C340.5,210.3,340.5,208.7,342,207z"/>
		<path fill="#363636" d="M268,516.2c2.3-0.2,4.5-0.5,6.8,0.1c-2.2,0.5-4.5,0.5-6.8,0L268,516.2z"/>
		<path fill="#343434" d="M282,516.3L282,516.3c1.6-2.1,3.5-1.7,5.5-0.7c0.2,0.3,0.3,0.5,0.5,0.8C286,516.8,284,516.8,282,516.3z"/>
		<path fill="#333333" d="M288,516.4L288,516.4c2-2.2,4.2-2,6.3-0.2c-0.2,0.2-0.4,0.5-0.6,0.7C291.8,516.7,289.9,516.5,288,516.4z"
			/>
		<path fill="#383838" d="M256,516.5c0,0,0-0.3,0-0.3c2,0,4,0,6,0l0,0.2C260,516.9,258,516.9,256,516.5z"/>
		<path fill="#373737" d="M262,516.4c0,0,0-0.2,0-0.2c2,0,4,0,6,0c0,0,0,0.2,0,0.2C266,516.9,264,516.9,262,516.4z"/>
		<path fill="#353535" d="M82,197c9.4,7.7,18.9,15.4,28.3,23.2c0.6,0.5,1.1,1.2,1.7,1.8c-2.7,0-5.3,0-8,0
			c-9.6-5.3-17.2-13.3-26-19.6c-2.5-1.8-5.6-2.8-7.3-5.7c1.5-1.1,3-0.4,4.4-0.6c1.8,1.3,4.1-0.3,6,1C81.3,197,81.7,197,82,197z"/>
		<path fill="#343434" d="M81,197c-2-0.3-4.2,0.8-6-1c2,0,4,0,6,0C81,196.4,81,196.7,81,197z"/>
		<path fill="#313131" d="M297,461c0.3-0.1,0.6-0.2,0.9-0.2c5.2,15.1,8.4,30.6,12.1,46.1c0.7,3.1,1.4,6.1,2,9.2c-1,0-2,0-3,0
			c-5.9,0.2-7-3.8-7.9-8.5c-2.5-12.6-5.8-25-9.2-37.3C289.7,462.3,289.7,462.3,297,461z"/>
		<path fill="#2D2D2D" d="M325,462c0-0.3,0-0.6,0-1c2,0,4,0,6,0C329.2,462.8,327,461.7,325,462z"/>
		<path fill="#383838" d="M263,515c-2,0-4,0-6,0c-3.7-13.7-7.3-27.3-11-40.9c-0.8-3-1.7-6.1-2.9-8.9c-1-2.4,0.4-3.1,1.9-4.1
			c2.3,0,4.7,0,7,0c-0.8,2.9-0.5,5.7,0.4,8.7c4,13.2,7.7,26.5,10.7,40C263.4,511.5,264.3,513.3,263,515z"/>
		<path fill="#B43939" d="M209.1,258c1.3-1.4,0.8-3.1,0.8-4.7c0.1-22.7,0.1-45.4,0.2-68c5.9,0,11.8-0.9,17.6,0.6
			c0.6,0.3,1,0.7,1.2,1.2c0.5,3.8,1.4,7.6-0.9,11.1c-0.2,0.9,0.4,1.4,1,1.8c2.3,3.7,1.7,7.6,0.7,11.5c-1.1,1.5-1.4,3.3-1.4,5.1
			c0.1,7.9-0.1,15.8,0.2,23.7c0.1,5,0.1,9.9,0,14.9c0,2,0.1,4-1.4,5.6c-6.1,2.5-12.4,0.6-18.6,1.1
			C208.7,260.6,208.9,259.3,209.1,258z"/>
		<path fill="#E4DFF1" d="M205,198.8c-1.2-1.8-0.9-3.8-0.9-5.8c1.9-3.2,0.4-6.7,1.1-10c0.6-0.4,1.1-0.1,1.5,0.3
			c0.6,0.5,1,1.1,1.5,1.6c0.3,0,0.6,0.1,0.8,0.3c0.1,3.3,0,6.5,0.3,9.8C209.5,198.4,208.2,199.5,205,198.8z"/>
		<path fill="#B8B8BA" d="M232,183c-0.8,0.4-0.9,1.2-1,2c-0.1,0.7-0.5,1.1-1.1,1.4c-0.6,0.2-1.2,0.1-1.7-0.4l-0.3,0
			c0,0-0.2-0.2-0.2-0.2c1.1-1.6,1.6-4,4.3-3.7c0.2,0.2,0.3,0.4,0.2,0.6C232.1,182.9,232.1,183,232,183z"/>
		<path fill="#CCCCD4" d="M206,184c-0.3-0.3-0.6-0.6-0.9-1c-0.4,0-0.8-0.1-1.2-0.1c0.1-0.3,0.1-0.6,0.1-0.9c0.6-0.6,1.3-1.3,1.9-1.9
			c0.4,0.6,0.8,1.1,1.3,1.7C207.6,183,207.9,184.1,206,184z"/>
		<path fill="#A3A3D7" d="M202.8,167.2c2.4,1.6,0.9,3.9,1.2,5.9C202.3,171.3,203.7,169,202.8,167.2z"/>
		<path fill="#BCBCC0" d="M206,184c0.9-0.5,1-1.3,1.1-2.2c1.3,0.7,1.7,1.7,1,3.1C207.2,185.1,206.4,184.9,206,184z"/>
		<path fill="#454546" d="M232.1,174.1c1.6,0,3.2,0,4.8,0.1C235.3,175.4,233.7,175.4,232.1,174.1z"/>
		<path fill="#ABABB1" d="M232,183c0-0.3,0-0.6,0-0.9c0.3,0,0.7,0,1,0C232.7,182.4,232.3,182.7,232,183z"/>
		<path fill="#434343" d="M330.4,500.9c-1.4-3.5,0.9-7.4-1.4-10.8c0.4-1.2,2.2-1.6,1.9-3.1c0.3-0.3,0.7-0.7,1-1
			c1.2,0.9,1.5,2.6,3,3.2c0.3,0.3,0.7,0.6,1,0.9c0,0.3,0,0.7,0,1c-3.6-0.5-5.6,0.6-5,4.7C331.2,497.4,331.4,499.2,330.4,500.9z"/>
		<path fill="#4F4F4F" d="M335,490c-3.2,0.3-3-1.9-3-4c0.7-1,1.3-2,2-3C336.8,484.9,335.3,487.6,335,490z"/>
		<path fill="#464646" d="M335,490c-0.4-2.3,0.9-4.9-1-7c0.4-1,0.7-1.9,1.1-2.9c2,3.2,0.5,6.6,1,9.9c0,0-0.5,0-0.5,0L335,490z"/>
		<path fill="#4F4F4F" d="M228,481c-0.2,2.8,0.5,5.7-1,8.3c-1.2-3.5-1.8-6.9-0.1-10.3C227.3,479.7,227.7,480.3,228,481z"/>
		<path fill="#333333" d="M230.8,489c2.3,3.8,1,7.9,1,11.9c-0.2,0-0.5,0-0.7,0c-1.5-3.2,0.4-6.7-1-9.9c0,0,0,0,0,0c0-0.7,0-1.3,0-2
			C230.3,488.6,230.6,488.5,230.8,489z"/>
		<path fill="#4D4D4D" d="M230.8,489c-0.3,0-0.5,0-0.8,0c0.8-0.8-1.8-4,1.9-2.7C230.5,486.8,231.1,488.1,230.8,489z"/>
		<path fill="#E5E4F3" d="M339.9,184c-0.6,0-1.2,0-1.9,0.1c0-0.3,0-0.6-0.1-0.9c0-0.7,0-1.3,0.1-2c-0.4-1.5-1.4-3.2,1.4-3.3
			c0.2,0.1,0.4,0.2,0.6,0.2c0.7,1.6,1.4,3.3,2.1,4.9C342.1,184.6,341.2,184.7,339.9,184z"/>
		<path fill="#C3C2D7" d="M339.9,184c0.9,0,1.8-0.2,2.2-1.1c0.5,1.1,2.7,2.2-0.1,3.2c-0.6-1.3-1.4-0.1-2-0.1
			C339.9,185.3,339.9,184.6,339.9,184z"/>
		<path fill="#B43939" d="M229,212c0-4,0-8,0-12c1.2-0.1,2.5-0.1,3.7-0.2c2.8,0,5.5,0.1,8.3,0.1c2.3,0,4.7-0.1,7-0.1
			c0.3,0,0.6,0,1-0.1c5.3,0.1,10.7,0.3,16,0.4c2.2,1.7,4.8,0.8,7.2,0.8c2.6,0,4.9,0.4,6.9,2.2c0.2,3.3-0.7,6.7,0.8,9.9
			c-0.1,3.7-0.2,7.4-0.3,11.1c-1.6,1.5-3.7,1.5-5.6,1.5c-13.6,0-27.2,0.4-40.8-1c-1.5-0.2-3-0.3-4.3-1.2
			C227.5,219.5,227.4,215.8,229,212z"/>
		<path fill="#A4A4E6" d="M227,57c0,1.3,0,2.7,0,4c-0.5,0.3-0.9,0.4-1.4,0c-1.7-1.7-1.7-4.1-2.5-6.2c-0.3-1.2-0.4-2.4-0.4-3.6
			c0-1.6,0.1-3.3-1-4.7c-0.7-1.1-1-2.3-1-3.6c-0.1-1.3-0.1-2.6-0.1-3.8c0-4.3-1.6-8-3.4-11.8c-1-2-2.7-3.9-1.3-6.5
			c2.2-0.9,3.3,0.4,4.2,2.2c1.4,3,2.6,6,2.4,9.3c1.1,1.7,0.6,3.9,1.5,5.7c0,0.3,0,0.6,0,1c0.5,3.1-0.3,6.4,1.9,9.1
			C225.1,51.2,225.7,54.1,227,57z"/>
		<path fill="#B0B0DF" d="M222,33c-0.8-4.6-0.7-9.7-6-12c-0.7,3.9-1.8,7.8-1.7,11.8c-0.1,1.9-0.4,3.7-1.8,5.1
			c-0.5,0.4-0.9,0.4-1.4,0.1c0.3-2.7,0.6-5.4,1-8c0-3.8,0.7-7.4,2-11c2.2-3.6,3.2-3.6,5.1-0.3c0.8,1.4,1.2,3,2,4.3
			c1.8,3.1,2,6.5,2,10C222.7,33.4,222.4,33.4,222,33z"/>
		<path fill="#B8B8DC" d="M221,23c-0.8-1.2-1.7-2.4-2.3-3.7c-1.5-3.2-3-2.3-4.7-0.3c0.1-1.9,0.1-4.1,2.1-4.6
			c2.5-0.7,2.4,2.1,3.3,3.5C220.4,19.4,221.2,21.1,221,23z"/>
		<path fill="#ADADE5" d="M222,33c0.3,0,0.7,0,1,0c1.5,1.4,0.8,3.3,1,5C222.4,36.7,223.2,34.4,222,33z"/>
		<path fill="#373737" d="M263,515c-3.8-16.5-8-33-13.3-49.1c-1-3.1,0.5-3.7,2.3-4.8c2.1-0.1,4.2-0.1,6.3-0.2c0.3-0.1,0.5,0,0.8,0.1
			c-2.8,1-3.6,2.3-2.5,5.6c4.9,14.9,8.8,30.2,12.2,45.5c0.2,1,0.1,2,0.2,3C267,515,265,515,263,515z"/>
		<path fill="#4A4A4A" d="M225,491c0,2.9,0,5.8,0,8.7c-0.3,0-0.6,0-0.9,0c0-3.2,0-6.4,0-9.7C224.4,490.4,224.7,490.7,225,491z"/>
		<path fill="#3B3B3B" d="M230,491c2.1,3.1,0.5,6.6,1,9.9C228.9,497.8,230.5,494.3,230,491z"/>
		<path fill="#B2B2DE" d="M345,34c-0.4-5.1,1.5-9.9,2.1-14.9c2.1-3.3,3.6-2.6,5.3,0.5c2.4,4.6,4,9.3,3.7,14.5c-3.4-0.7-2-4.3-3.6-6
			c-0.9-1.1-0.7-4.7-3.7-2C347,28.4,348.8,32.5,345,34L345,34z"/>
		<path fill="#A6A6E0" d="M348,25c0.7-3.5,1.8-3.3,3.9-0.8c2.4,2.9,2.2,6.8,4.1,9.8c0,0.3,0,0.6,0,1c1.1,1.5-0.3,3.5,1,5
			c0,0,0,0,0,0c0,1,0,2,0,3c-0.4,0.3-0.9,0.4-1.4,0.1c-1.7-1.2-1.6-3-2-4.8c-0.8-4-2.1-7.9-5.3-10.7C347.7,26.9,347.1,26,348,25z"/>
		<path fill="#ABABE5" d="M357,40c-1.7-1.4-0.8-3.3-1-5C357.6,36.4,356.8,38.3,357,40z"/>
		<path fill="#F6F3F7" d="M228.2,186.1c0.6-0.1,1.1-0.2,1.7-0.3c2,3.7,1,7.5,0.6,11.3c-0.1,0.9-0.9,1.2-1.8,1.1l-0.4,0
			c0,0-0.4,0-0.4,0C228.1,194.2,228.1,190.1,228.2,186.1z"/>
		<path fill="#EFEFFB" d="M228.8,198.2c2.6-3.9,0.7-8.3,1.2-12.4c0.4-0.3,0.7-0.5,1.1-0.8c0,0,0,0.1,0,0.1c0.9,4.6,0.9,9.1,0,13.7
			C230.1,198.9,229.4,198.9,228.8,198.2z"/>
		<path fill="#DEDEFC" d="M231,198.8c0-4.6,0-9.1,0-13.7C232.6,189.7,232.6,194.3,231,198.8z"/>
		<path fill="#323232" d="M297,461c-6.6,0.6-5.2,4.6-3.9,8.9c4,13.5,7.7,27,9.9,40.9c0.6,3.9,3.7,4,6,5.3c-4.9,0.4-9.8,0.5-14.7,0.1
			c-2.1-0.1-4.2-0.4-6.3,0.2c-2-0.6-4-0.5-6-0.1c-1.9-0.9-4.3,0.6-6-1.3h0c2-1.7,4.4-1.4,6.7-1.4c1.9-0.1,3.9,0,5.8,0
			c6.5,0,6.5,0,5.2-6.2c-2.6-13.2-6.3-26.1-9.9-39.1c-0.6-2.3-1.7-4.3-2.9-6.3c3.2-2.2,6.9-0.4,10.3-1.1
			C293.2,460.9,295.1,460.9,297,461z"/>
		<path fill="#FEFEFE" d="M229,173c-6.3,0-12.7,0-19-0.1c-1.1-4.1-0.4-8.2-0.2-12.3c0.9-14.9,1.9-29.8,1.9-44.7
			c0-3.8,1.3-7.2,2.4-10.6c0.8-2.5,2.6-2.1,4.2-0.4c1.5,1.6,1.8,3.5,1.8,5.6c0,3.4,1.3,6.4,2.7,9.5c3,6.5,5.1,13.3,5.2,20.5
			c0,1.7,0.6,3.2,1.1,4.9c1,6.2-0.5,12.6,1,18.7C230.3,167.1,231.1,170.3,229,173z"/>
		<path fill="#F8F8FE" d="M228,145c-1.2-0.7-1.4-2-1.4-3.1c-0.3-8.8-2.1-17-7.1-24.5c-1.2-1.8-1.4-4.9-0.9-7.2c0.6-3-1-4.2-2.6-6.1
			c-3.1,6-3.1,12.2-3,18.3c0.2,10.3-1.3,20.5-1.3,30.8c0,6.5-0.3,13.2-1.8,19.7c-0.3,0-0.7,0-1,0c-1.8-2.1-1.5-4.7-1.2-7.2
			c1.3-11.6,1.4-23.2,1.7-34.8c0.5-16.9,1.4-33.9,2.2-50.8c0.1-2.5,0.8-4.9,1.4-7.3c0.3-1,1-1.8,2.1-1.8c1.3-0.1,1.6,1,1.9,1.9
			c1.4,4.6,2.3,9.4,2.2,14.2c0.1,3.1-0.4,6.2,0.4,9.3c-0.4,7.5,4.7,13.1,7.1,19.6c0.6,2,0.4,4.2,1.1,6.2c0.7,2.9,0,6,1.1,8.9
			c0.3,1.4,0.3,2.9,0.4,4.3C229,138.6,230.4,142.1,228,145z"/>
		<path fill="#F5F5FE" d="M218,88c0.2-5.5-1.1-10.8-3-16.1c-4.4,33.6-3.6,67.4-6,101.1c-0.3,0-0.7,0-1,0c-2.8-5.2-1.7-10.8-1.1-16
			c0.7-7.1,0.5-14.2,0.8-21.3c0-0.9,0.1-1.8,0.3-2.7c1.1-6.5,0.7-13,1-19.6c0-1.2,0-2.4,0.2-3.6c1.1-7.1-0.2-14.3,0.8-21.4
			c0.7-5.1,0.6-10.3,0.9-15.4c0.3-1.4,0.8-2.8,1.2-4.3c0.9-2,0.4-5.6,3.2-5.5c3.1,0.1,2.9,3.5,3.1,5.9c0.6,6.2,3.1,12.3,1.1,18.6
			C219.1,88.2,218.6,88.3,218,88z"/>
		<path fill="#EAEAFE" d="M231,132.1c0,1.6,0,3.3,0,4.9c1.1,6.9,0.2,13.8,0.5,20.7c0.1,2.1-0.5,4.3,0.5,6.3
			c-0.1,2.9-0.1,5.9-0.2,8.8c-0.6,0.1-1.2,0.1-1.8,0.2c-1.2-9.1-1-18.3-1-27.5c-0.2-3.9,0.4-7.8-0.4-11.7c-0.3-3.5-0.8-6.9-0.6-10.4
			c-0.2-2.2-0.3-4.5-0.9-6.7c-0.3-4.2-1.3-8.3-1.5-12.5c0.5-3-1.1-6,0-9.1c0.4-0.4,0.9-0.6,1.5-0.5c2.4,1.3,1.7,3.6,1.9,5.7
			c0.1,2-0.3,3.9,0.4,5.8c0.6,0.9,0.7,2,1,3c-0.7,2.9,0.5,5.7,0.1,8.6C230.8,122.6,229.9,127.4,231,132.1z"/>
		<path fill="#ECECFE" d="M209,135c-0.3,12.7-0.7,25.3-1,38c-0.3,0-0.7,0-1,0c-1.7-6.3-1.7-12.7-0.9-19.1c0.4-3.1,1-6.2,0.9-9.4
			c0.2-3-0.4-6.1,0.5-9C207.9,134.8,208.4,134.7,209,135z"/>
		<path fill="#E5E5FD" d="M208,144c-0.5,9.7-1.4,19.3-1,29c-0.6,0-1.2-0.1-1.8-0.1c0-0.6-0.1-1.2-0.1-1.8c1.1-6.2-0.7-12.5,0.4-18.8
			c0.4-2.6,1.6-5.1,1.2-7.8C206.9,143.8,207.3,143.7,208,144z"/>
		<path fill="#F6F6FD" d="M230,145c0,9.3,0,18.7,0,28c-0.3,0-0.7,0-1,0c0-3,0-6,0-9c-1-6.1-0.3-12.3-0.4-18.4
			C228.8,144.8,229.3,144.7,230,145z"/>
		<path fill="#B0B0E8" d="M364,145c0.3,0,0.6,0,0.9,0c0,5.7,0,11.3,0.1,17c-0.6,0.3-1.1,0.2-1.5-0.4c-1.4-3.1-0.6-6.5-0.8-9.7
			C362.8,149.5,362,147,364,145z"/>
		<path fill="#B8B8EF" d="M364,162c0.3,0,0.6,0,1,0c0,4.3,0,8.5,0,12.8c-0.4,0-0.7,0-1.1,0.1C362,170.6,361.9,166.3,364,162z"/>
		<path fill="#FEFEFE" d="M361,175c-5.3,0-10.7,0-16-0.1c-1.9-2.1-1.7-4.8-1.2-7.1c1.1-5.4,0.6-10.9,0.8-16.3c0-1.8,0-3.5,0.3-5.3
			c1.2-3.5,0.5-7.1,0.7-10.7c0-1.1,0.1-2.1,0.4-3.2c0.9-2.4,0.5-5,0.9-7.5c0.1-0.5,0.2-1,0.3-1.5c0.3-0.8,0.4-1.6,0.6-2.4
			c0.3-1.3,0.6-2.7,2.1-3c1.8-0.4,2,1.4,2.5,2.5c1.6,3.5,5.6,5.2,6.3,9.2c0.2,0.5,0.3,1,0.4,1.5c0.2,1.8,0.3,3.6,0.9,5.3
			c0.3,1.3,0.4,2.7,0.4,4.1c1.4,8.2,0.6,16.5,1.4,24.7c0.6,2.4,0.4,4.8,0.7,7.2C362.7,173.7,361.9,174.4,361,175z"/>
		<path fill="#F7F7FE" d="M358,131c0-0.3,0-0.7,0-1c-1-1.3,0.2-2.7-0.3-4c0-4.2-0.5-8.4-2.9-11.9c-4.6-6.7-6.3-14.2-7.1-22.5
			c-1.6,26.4-2.7,52.5-3.6,78.5c-0.1,1.9-0.4,3.6-2,4.8c-0.7,0-1.3,0-2,0c-1-6.3-0.8-12.7-0.3-18.9c1.1-13.2,0.8-26.5,2.1-39.8
			c1.7-6.8,0.1-13.8,1-20.7c1.2-3.3,0.6-6.8,0.8-10.2c0-1.4,0.1-2.8,0.4-4.1c0.9-2.3,0.5-4.8,0.8-7.2c0.1-0.6,0.2-1.1,0.3-1.6
			c0.4-0.9,0.5-1.9,1-2.8c0.5-0.9,1.2-1.8,2.2-1.7c1.1,0.1,1.4,1.2,1.8,2.1c1.3,3,1.2,6.2,1.4,9.3c0.5,11.1,2.9,21.6,8.5,31.3
			c2.4,11.4,2.2,23.1,2.7,34.6c0.3,7.5,0.1,14.9,0,22.4c0,1.8,0.5,3.7-1,5.2c-1.9-2.1-0.6-4.7-1-7c-1-2.9-0.4-5.9-0.4-8.8
			c0-5.4,0-10.8-1-16.2c0.2-2.9-0.3-5.8-0.7-8.7C358.6,131.8,358.4,131.4,358,131z"/>
		<path fill="#F9F9FE" d="M342,174.9c0.8-2.6,1.1-5.1,1-7.8c-0.6-13.4,0.8-26.8,1.3-40.2c0.4-11.2,0.3-22.5,1.7-33.6
			c0.3-2.3,0.9-4.5,1.8-7.2c2.4,3.4,1.3,7,1.9,10.1c1.2,6.1,2.8,11.7,6.3,16.9c2.8,4.1,3.3,8.9,3,13.8c-2.7-0.4-2.9-2.6-3.3-4.7
			c0-4.4-3.9-6.7-5.5-10.4c-2.8,7.6-3.1,15.4-3.7,23.3c0,1.1,0.1,2.1-0.2,3.2c-0.2,4.3-0.9,8.6-0.8,13c-0.2,7.9-0.7,15.8-1.5,23.6
			C343.3,175,342.7,175,342,174.9z"/>
		<path fill="#F0F0FE" d="M362,173c0.3-21.1-0.4-42.1-3-63c-0.5-1.9-1.4-3.9-0.2-5.8c0.5-0.4,1.1-0.4,1.6,0.1
			c2.5,3.7,1.2,8.1,1.8,12.1c0.3,1.9,0.1,4,0.7,5.9c0.4,5.3-0.4,10.6,0.5,15.9c0.5,4.6-0.5,9.3,0.6,14c0,3.3,0,6.6,0.1,9.9
			c0,4.3-0.1,8.6-0.1,12.9c-1,0-1.9,0.1-2.9,0.1C361.3,174.3,361.7,173.7,362,173z"/>
		<path fill="#EEEEFE" d="M343,116c-0.3,18.6-2.2,37-2.1,55.6c0,1.1-0.6,2.2-0.9,3.3c-0.3,0.1-0.7,0.1-1,0.2c-1.2-4-0.2-8-0.4-12
			c1.1-5.9-0.2-11.9,0.3-17.8c1.3-13.5,2-27,2.1-40.5c0-1.7-0.7-4.1,2-4.9C343.7,105.3,343.9,110.6,343,116z"/>
		<path fill="#FCFCFE" d="M344,175c-0.3-8,0.2-16,1-24c0.3-0.5,0.7-0.5,1,0c0.7,8-1.1,16-1,24C344.7,175,344.3,175,344,175z"/>
		<path fill="#D8D8F8" d="M339,163c0,4,0,8.1,0,12.1c0.1,0.9,0.2,1.8,0.4,2.6c-1.4,0.7-1.4,2-1.4,3.3c-1.9-2.5-0.5-5.3-0.9-7.9
			c1.9-6,0.4-12.1,0.9-18.1c0.6-0.4,1-0.2,1.4,0.4C339.3,157.9,340,160.5,339,163z"/>
		<path fill="#B7B7EF" d="M232,164.1c-1.9-4.8-0.6-9.8-0.9-14.7c-0.2-4.1-0.1-8.3-0.1-12.4c0.3,0,0.7,0,1,0c0,0.3,0,0.7,0,1
			c0,3,0,6,0,9C232,152.7,232,158.4,232,164.1z"/>
		<path fill="#C0C0EF" d="M339,155c-0.3,0-0.6,0-0.9,0.1c0-1,0-2,0-3c-0.7-1.7-0.7-3.3,0-5c0-1.7,0-3.3,0-5c0-1,0-2,0-3
			c0.3,0,0.7,0,1,0C340.1,144.3,339.6,149.6,339,155z"/>
		<path fill="#A8A8E7" d="M338,147c0,1.7,0,3.3,0,5c0,0-0.5,0-0.5,0s-0.5,0-0.5,0c0-1.7,0-3.3,0-5C337.4,147,337.7,147,338,147z"/>
		<path fill="#DFDFFC" d="M208,144c-0.3,0-0.7,0-1,0c-0.8-5-0.8-10,0-15c0-3,0-6,0-8.9c2-5.9,0.5-12,1-18c0.3-0.1,0.6-0.1,0.8-0.2
			c0.2,0.2,0.4,0.4,0.6,0.6c0.1,0.3,0.2,0.5,0.3,0.8c0.7,3.4-0.5,6.8-0.3,10.2c0,4.1,0.1,8.2,0,12.2c-0.9,3.1,0.1,6.4-1.4,9.4
			C208,138,208,141,208,144z"/>
		<path fill="#AEAEED" d="M207,102c0-1,0-2,0-3c0-1.7,0-3.3,0-5c0.3,0,0.6,0,0.9,0c2,2.7,1.8,5.3,0,8c0,0,0,0,0,0
			C207.7,102,207.3,102,207,102z"/>
		<path fill="#C6C6FA" d="M207,129c0,5,0,10,0,15c-1.3,8.1-0.9,16.2-1,24.3c0,1-0.1,2-1,2.7c0-1.7-0.1-3.4-0.1-5.1
			c-0.6-4-0.8-8,0.1-12c0-2,0-4,0-6c1.9-2.8,0.6-6,1-9c0-1,0-2,0-3c0-2,0-4,0-6c0-0.3,0-0.6,0-1C206.3,129,206.7,129,207,129z"/>
		<path fill="#ADADED" d="M205,154c0,4,0,8-0.1,12c-1.9-3.9-0.5-8-0.9-12C204.4,154,204.7,154,205,154z"/>
		<path fill="#D6D6FD" d="M229,107c-2.4-3.7,0.4-8.3-2-12c-2.1-3.5-1.4-7.5-2.3-11.2c-0.4-13.5-4.6-26.2-7.7-39.2
			c-1.9,0.4-1.5,1.7-2,2.5c-0.2,0.5-0.6,0.9-1,1.2c-0.6,0.1-1.1,0-1.4-0.5c-1.5-2.7-0.3-5.2,0.7-7.6c0.6-1.5,1.4-3.2,3.4-3.2
			c1.9,0.1,2.9,1.8,3.3,3.3c0.9,3.9,2.9,7.4,3.2,11.4c0.2,2.1,0.7,4.3,1.3,6.3c1.2,3.2,1.7,6.6,2,10c0.1,1.9,0.7,3.6,1.1,5.4
			c-0.4,3.2,0.6,6.3,0.5,9.5c0,1.3,0,2.7,0,4c0.9,2.3,0.7,4.9,1.4,7.2c0.1,1.7,0,3.4,0.1,5.1C229.2,101.9,230.1,104.5,229,107z"/>
		<path fill="#ACACED" d="M228,83c-1.1-3.2-1.1-6.6-1-10c-0.6-1-0.7-2,0-3.1c0.3,0,0.7,0,1,0c0,0.7,0,1.3,0,2c0.4,2.7-1,5.5,1,8
			C229,81.1,229.2,82.3,228,83z"/>
		<path fill="#ADADEA" d="M229,99c0-1.7,0-3.3-0.1-5c-0.7-1.4-0.7-2.7,0-4c0.3,0,0.6,0,1,0c0,2,0,4,0,6c0,1,0,2,0,3
			C229.7,99.5,229.3,99.5,229,99z"/>
		<path fill="#BABAE8" d="M229,90c0,1.3,0,2.7,0,4c-1.8-2.1-0.6-4.7-1-7C229.2,87.7,229,88.9,229,90z"/>
		<path fill="#C2C2F9" d="M357,56c0,0.8,0.1,1.6,0.9,2c1.3,1.8-0.3,4.3,1.4,6.1c0.2,1.6,0.3,3.2,0.6,4.8c0,1.1,0.1,2.2-0.7,3.1
			c-2.1,0.6-2.2-1.1-2.4-2.3c-1.3-6.6-3.2-13.1-4.1-19.9c0-0.8,0.2-1.6,0.5-2.3c0.3-0.5,0.7-0.8,1.2-0.9c0.3,0.1,0.5,0.1,0.8,0.2
			c0.7,0.4,1.2,1,1.5,1.8C356.6,51.1,358.1,53.5,357,56z"/>
		<path fill="#AEAEE8" d="M357,56c-0.1-2.7-1.5-5.2-1.1-8c0.4-0.3,0.8-0.3,1.3,0c0.6,1.3-0.3,2.8,0.8,4
			C357.9,53.4,358.5,54.9,357,56z"/>
		<path fill="#A6A6E0" d="M358,52c-1.5-1.1-0.9-2.6-1-4c-1-1.3-1.2-2.7,0-4c1.7,1.4,0.8,3.3,1,5C358,50,358,51,358,52z"/>
		<path fill="#A9A9EB" d="M359,69c0-1.7,0-3.3-0.1-5c-0.3-0.2-0.4-0.5-0.3-0.7c0.1-0.2,0.2-0.3,0.3-0.3c0.3,0,0.7,0,1,0
			c0,1.3,0,2.7,0,4c0.6,0.6,0.5,1.3,0.3,2C359.9,69.3,359.5,69.3,359,69z"/>
		<path fill="#AEAEE8" d="M359,63c0,0.3,0,0.7,0,1c-1.8-1.8-0.7-4-1-6C359.7,59.4,358.7,61.3,359,63z"/>
		<path fill="#DFDFFD" d="M339,155c0-5.3,0-10.7,0-16c0-0.7,0-1.3,0-2c1.4-4.9-0.4-10.1,1-15c0-2,0-4,0.1-6c1.3-4.6-0.4-9.4,0.9-14
			c0-3.3,0-6.6,0.1-10c0,0,0,0,0,0c1.1-3.9,0.2-7.8,0.6-11.7c0.5-3,0.8-6.1,0.9-9.1c0-1.9,0-3.9,0-5.8c1.1-3.6,1.2-7.4,1.6-11.2
			c0.7-2.6,1.1-5.3,2.2-7.8c0.9-1.4,1.8-3.1,3.8-2.4c1.8,0.6,2.3,2.3,2.6,4c1.2,6.8,3,13.5,4.2,20.3c0.7,4.1,3,7.7,3,11.9
			c0,1.8,0.3,3.6-0.4,5.4c-3,1.1-2.5-1.6-2.9-2.9c-2.5-8.8-4-17.7-5.8-26.6c-0.3-1.5-0.2-3.3-1.3-4.1c-1.1-0.8-0.8,0.8-1.1,1.4
			c-0.4,2.5-1.1,5-1.2,7.5c-0.1,0.5-0.2,1-0.3,1.6c-0.8,2.3-0.3,4.8-0.8,7.2c-1.4,5-1,10.3-1.7,15.4c-0.6,5-0.1,10.1-1.3,15.1
			c-0.9,0.7-1,1.7-1,2.7c0.7,10.8-0.9,21.5-1.2,32.3c-0.2,8.6-1,17.2-0.9,25.8c0,0.7-0.6,1.5-0.9,2.2C339,160.3,339,157.7,339,155z"
			/>
		<path fill="#C0C0EF" d="M340,122c-0.5,5,1.1,10.1-1,15c0-3.3,0-6.7,0-10c0-1.7,0-3.3,0-5C339.3,122,339.6,122,340,122z"/>
		<path fill="#BEBEEB" d="M341,102c-0.4,4.7,1,9.5-0.9,14c0-1.3,0-2.7-0.1-4c0-3.3,0-6.7,0-10C340.3,102,340.6,102,341,102z"/>
		<path fill="#BABAEB" d="M231,132.1c-2-4.9-0.5-10-0.9-15.1c0.3-0.5,0.7-0.5,1,0c0,1.7,0,3.3,0,5C231,125.4,231,128.7,231,132.1z"
			/>
		<path fill="#AAAAE4" d="M211,38c0.3,0,0.6,0,1,0c1.2,1.1,1,2.5,0.9,3.8c-0.3,1.3-0.5,2.6-0.5,4c-0.9,2.3,0.6,4.9-1,7
			c-0.4,0.5-0.9,0.5-1.4,0.2c0,0,0,0,0,0c0-3.3,0-6.6,0.1-9.9C211.6,41.6,210.8,39.7,211,38z"/>
		<path fill="#BEBEE8" d="M364,152.1c-1.9-4.6-0.5-9.4-1-14.1c-0.9-2.5-0.3-5.1-0.4-7.6c0.3-0.6,0.8-0.7,1.4-0.4c0,0.3,0,0.7,0,1
			c0,4.7,0,9.3,0,14C364,147.3,364,149.7,364,152.1z"/>
		<path fill="#DFDFFC" d="M209,89c-0.3-1-0.6-2-0.9-2.9c1.1-2,0.1-4.1,0.7-6.2c0.3-3.1,0.9-6.3,0.8-9.5c0-1.3,0-2.7,0-4
			c0.3-1,0.5-2.1,1.6-2.7c0.6-0.1,1.1,0.2,1.4,0.7c0.7,1.7,0.4,3.4-0.3,5c-1.2,10.6-2,21.3-1.8,32c-0.3,0.7-0.7,0.9-1.4,0.5l0,0
			C208.2,97.6,208.2,93.3,209,89z"/>
		<path fill="#C1C1EA" d="M209,89c0,4.3,0,8.7,0,13c-0.3,0-0.6,0-0.9,0c0-2.7,0-5.4,0-8C208.2,92.3,207.3,90.4,209,89z"/>
		<path fill="#B0B0ED" d="M209,80c-0.3,2,0.8,4.3-1,6c0-1.7,0-3.4,0-5.1c0-2.3,0-4.7,0-7c0.3,0,0.6,0,1,0C209.8,76,209.7,78,209,80z
			"/>
		<path fill="#B3B3ED" d="M364,130c-0.3,0-0.6,0-0.9,0c-0.9-4.1-0.6-8.4-1-12.5c0.1-0.9,0.2-1.8,1-2.5c0.3,0,0.6,0,1,0
			c0,2.7,0,5.3,0,8C364,125.3,364,127.7,364,130z"/>
		<path fill="#AEAEEB" d="M362,97c0.3,0,0.6,0,0.9,0c0,1.3,0,2.7,0,4c0,1,0,2,0,3c-0.5,0.3-1,0.3-1.4-0.2c-0.6-0.9-0.8-2-0.8-3.1
			C360.8,99.3,360.8,98,362,97z"/>
		<path fill="#C0C0E8" d="M363,115c0,0.7,0,1.4-0.1,2.1c-0.6,0.3-1,0.2-1.3-0.4c-0.1-2.1-0.2-4.3,0-6.4c0.4-0.5,0.8-0.6,1.4-0.2
			C363,111.7,363,113.3,363,115z"/>
		<path fill="#BABAEA" d="M363,110c-0.3,0-0.6,0-0.9,0c-0.8-2-1.7-4,0-6c0.3,0,0.7,0,1,0C363,106,363,108,363,110z"/>
		<path fill="#BDBDF6" d="M345,40c0-0.3,0-0.6,0-1c0.7-0.7,0.4-1.8,1-2.6c4.1-4,5.3-3.6,6.8,2.2c-0.1,0.5-0.2,0.9-0.5,1.3
			c-2,0.1-4.2-0.1-4.3,2.8c-0.1,0.4-0.4,0.8-0.6,1.2c-0.4,0.3-0.8,0.4-1.2,0.3c-0.9-0.5-0.4-1.7-1.1-2.3C345,41.3,345,40.7,345,40z"
			/>
		<path fill="#B6B6F0" d="M345,54c-0.6,3.7-0.4,7.5-2,11c-0.7-1-0.7-2,0-3c0-1.7,0-3.3,0-5c1.3-1.8-0.3-4.2,1-6c0-1.1-0.2-2.3,1-3
			c0.2,0.2,0.3,0.4,0.5,0.6C345.3,50.4,345.9,52.3,345,54z"/>
		<path fill="#B6B6F0" d="M345,42c0.8,0.4,1,1.2,1,2c0.9,1.6,1.5,3.2-1,4c0,0,0,0,0,0C345,46,345,44,345,42z"/>
		<path fill="#ABABE2" d="M344,51c-0.3,2,0.8,4.2-1,6c0-1,0-2,0-3c0-1,0-2,0-3C343.4,51,343.7,51,344,51z"/>
		<path fill="#B0B0EC" d="M231,117c-0.3,0-0.7,0-1,0c0.5-2.7-2.1-5.3,0-7.9c-0.6-1-0.7-2.1,0-3.1c0.3,0,0.6,0,0.9,0c0,2.7,0,5.3,0,8
			C231,115,231,116,231,117z"/>
		<path fill="#A4A4E6" d="M357,44c0,1.3,0,2.7,0,4c-0.3,0-0.7,0-1,0c-0.3-0.3-0.6-0.7-0.9-1c-0.2-1.5-0.3-2.9,1-4c0.3,0,0.7,0,1,0
			C357,43.3,357,43.7,357,44z"/>
		<path fill="#B9B9F3" d="M230,106c0,1,0,2,0,3.1c-0.8-0.5-0.9-1.2-1-2.1c0-2.7,0-5.3,0-8c0.3,0,0.6,0,1,0
			C230,101.3,230,103.7,230,106z"/>
		<path fill="#A9A9EA" d="M360,69c0-0.7,0-1.3,0-2c0.3,0,0.6,0,0.9,0c0,1.3,0,2.6,0,4c0,2.3,0,4.7,0,7c0,0,0,0,0,0
			c-0.5,0.3-1,0.3-1.4-0.2c-0.6-1-0.5-2.1-0.6-3.2C359.1,72.7,359.4,70.8,360,69z"/>
		<path fill="#AEAEEB" d="M210,66c0,1.3,0,2.6-0.1,4c-0.3,0.5-0.6,0.5-1,0c0-1.7,0-3.3,0-5c0-1,0-2,0-3c0.3,0,0.6,0,1,0
			C211,63.3,210.6,64.7,210,66z"/>
		<path fill="#BDBDE7" d="M362,97c0,1.4,0,2.7-0.1,4.1c-2.9-0.7-2-3.1-2.3-5c0.1-1.5,0.1-3,1.4-4.1c0.3,0,0.6,0,0.9,0
			C362,93.7,362,95.3,362,97z"/>
		<path fill="#B9B9E5" d="M210,66c0-1.4,0-2.7,0-4.1c0-1.3,0-2.7,0-4c0.6-0.3,1.1-0.2,1.5,0.3c1.1,2,1,3.9-0.5,5.7
			C210.7,64.7,210.4,65.4,210,66z"/>
		<path fill="#AEAEEB" d="M211,58c-0.3,0-0.6,0-1,0c0-1.7,0-3.3,0-5c0.3,0,0.6,0,1,0c0.7,0.5,1,1.3,1.1,2.1
			C212.1,56.2,211.9,57.2,211,58z"/>
		<path fill="#BCBCEA" d="M209,70c0.3,0,0.7,0,1,0c-0.4,3.3,0.9,6.8-0.9,10c0-2,0-4,0-6.1C209,72.7,209,71.3,209,70z"/>
		<path fill="#D2D2FB" d="M361.1,92c0,1.3,0,2.7-0.1,4c-4.1-1.9-1.7-5.4-2.2-8.3c0.2-0.8,0.7-1.6,0.8-2.4c0.4-0.6,0.8-0.7,1.4-0.3
			c0,0.3,0,0.6,0,1C361,88,361,90,361.1,92z"/>
		<path fill="#B8B8E9" d="M361,85c-0.3,0-0.6-0.1-1-0.1c-0.7-2.3-0.9-4.6,0-7c0.3,0,0.7,0,1,0C361,80.3,361,82.7,361,85z"/>
		<path fill="#AFAFEB" d="M342,80c-0.5,4,0.9,8.1-1,12c0-2.3,0-4.7,0-7c0-1.7,0-3.3,0-5c0-2,0-4,0-6c0.3,0,0.6,0,1,0
			C342.8,76,342.7,78,342,80z"/>
		<path fill="#ADADE9" d="M343,62c0,1,0,2,0,3c0,2,0,4,0,6c-0.3,0.5-0.6,0.5-1,0c0-1.7,0-3.3,0-5c0-1.3,0-2.7,0-4
			C342.3,62,342.7,62,343,62z"/>
		<path fill="#A7A7E8" d="M226,61c0.3,0,0.7,0,1,0c0,0.7,0,1.3,0,2c0,1,0,2,0,3c-0.5,0.4-1,0.3-1.4-0.3C225.7,64.2,225,62.5,226,61z
			"/>
		<path fill="#BCBCEA" d="M342,71c0.3,0,0.7,0,1,0c-0.3,3,0.9,6.2-0.9,9c0-2,0-4,0-6C342,73,342,72,342,71z"/>
		<path fill="#B4B4E7" d="M226,66c0.3,0,0.6,0,1,0c0,1.3,0,2.7,0,4c0,1,0,2,0,3.1c-1.6-1.4-0.8-3.3-1-5
			C225.4,67.3,225.4,66.6,226,66z"/>
		<path fill="#ABABE5" d="M346,37c0,0.8-0.2,1.6-1,2c0-1.7,0-3.3,0-5c2-2.7,0.8-6.4,3-9c0,0.8,0.2,1.6,1,2c0.8,2.5-1,4.6-1.1,6.9
			C347.4,35.1,346.9,36.1,346,37z"/>
		<path fill="#2B2B2B" d="M287.1,234.4c0.1-1.8-0.7-3.7,0.8-5.3C288,230.9,287.9,232.7,287.1,234.4z"/>
		<path fill="#B43939" d="M349.1,371c0,4.6-0.1,9.2-0.1,13.8c-0.3,0.2-0.5,0.6-0.8,0.6c-14,0-28.1,0.5-42.1-0.2
			c-0.3-0.2-0.6-0.3-1-0.5c-0.8-2.9-4-4.5-4.3-7.8c0.7-4,2.5-6.9,6.9-7.4c12.2-1.2,24.3,0.1,36.5,0c1.6,0,3.3-0.5,4.8,0.6
			C348.9,370.4,349,370.7,349.1,371z"/>
		<path fill="#2D2A2A" d="M349,370.1c-14.3-0.1-28.7-0.1-43-0.2c-0.2-0.3-0.2-0.6,0-0.9c3.7,0,7.3,0,11-0.1c3.7-2.2,7.3-1.9,11,0
			c6.7,0,13.3,0,20,0C348.3,369.3,348.6,369.7,349,370.1z"/>
		<path fill="#2C2C2C" d="M306,369c0,0.3,0,0.6,0,0.9c-1.7,2.3-3.5,4.7-5.2,7c-3-4.7-4.6-10.1-6.7-15.3c-2.4-5.9-5.7-11.3-9.1-16.7
			c-0.6-0.5-0.9-1.2-1.1-2c-0.2-1.3-0.1-2.6,0.2-3.8c0.7-1.9,0.6-3.9,0.6-5.9c0-1.3,0.1-2.5,0.7-3.7c0.2-0.2,0.4-0.4,0.6-0.5
			c1.9,0.8,2.6,2.6,3.4,4.1C295.2,345,302.2,356.2,306,369z"/>
		<path fill="#2B2929" d="M328,368.9c-3.7,0-7.3,0-11,0c-1-5.6-4.2-10.2-7-14.9c3.7,0,7.3,0,11,0C323.4,359,325.7,364,328,368.9z"/>
		<path fill="#2C2B2B" d="M270,316c3.3,0,6.7,0,10,0c1.2,2.3,2.1,4.9,3.7,7c1.6,2,0.5,2.9-0.7,4c-1,1.2-2.5,1.3-3.9,1.5
			c-1,0-1.9-0.3-2.8-0.8C273.2,324.3,270,321,270,316z"/>
		<path fill="#111111" d="M278.9,328c1.1-1.4,2.7-0.9,4.1-1c1.4,0,2.4,0.7,3,2c0,0,0,0,0,0c-2.1,1.6-4.3,1.6-6.6,0.5
			C278.8,329.1,278.7,328.6,278.9,328z"/>
		<path fill="#222020" d="M279,329c2.3,0,4.6,0,7,0c0,1.3,0,2.7,0,4c-1.3,1.8,0.3,4.2-1,6c0,1.3,0,2.7,0,4c-1.2,1.5,0.2,3.5-1,5
			c0.7,5.4-1.4,10.6-1,16c-0.5,3.3-1.4,6.6-1,10c-2.3,0-1.4-1.7-1.4-2.8c-0.1-2.7-0.1-5.4-1.2-8c-0.3-0.5-0.5-1.1-0.6-1.7
			c-0.3-2.9-0.1-5.8-0.2-8.8c0-5.5,0-10.9,0-16.4c0-1.8,0.2-3.6-0.1-5.4c0-0.2,0-0.5-0.1-0.7C278.5,329.8,278.7,329.4,279,329z"/>
		<path fill="#222121" d="M284,348c0.2-1.7-0.7-3.6,1-5c0,0.7,0,1.3,0,2C285,346.1,285.2,347.3,284,348z"/>
		<path fill="#323131" d="M256,357.9c-5.7,0-11.3,0-17,0c-0.8-4.9-4.9-8.2-6-12.9c5.7-2.2,11.3-2.2,17,0
			C251.3,349.7,254.1,353.6,256,357.9z"/>
		<path fill="#2F2E2E" d="M279,364c-3.9-1.6-3.9-5.9-6-8.7c-2.3-3-4-6.5-5-10.3c2.2-2,4.9-1.3,7.4-1.1c0.8,0.2,1.6,0.6,2.2,1.3
			c1.2,1.3,1.4,2.9,1.4,4.6c0,1.1,0,2.1,0.1,3.2c0.8,2.9,0.3,5.8,0.4,8.7C279.5,362.5,279.6,363.4,279,364z"/>
		<path fill="#343232" d="M276.2,344.9c-2.7,0-5.5,0.1-8.2,0.1c-6,0-12,0-18,0c-5.7,0-11.3,0-17,0c-0.3-0.3-0.7-0.6-1-0.9
			c1.5-1.7,3.6-1.6,5.5-1.7c10.9-0.1,21.9-0.1,32.8,0C272.5,342.5,275.1,342,276.2,344.9z"/>
		<path fill="#282727" d="M280.1,363c2.5,3.3-0.7,7.7,1.9,11c-0.2,1.7,0.7,3.6-1,5c-1.9-3.9-0.6-8-1-12
			C279.3,365.7,279.2,364.3,280.1,363z"/>
		<path fill="#5A2F2F" d="M280.1,363c0,1.3,0,2.7-0.1,4c-1.2-0.7-0.9-1.9-1-3c0-0.7,0-1.3,0-2c0.3-0.5,0.7-0.5,1,0
			C280,362.3,280,362.7,280.1,363z"/>
		<path fill="#343434" d="M289,515c-2,0-4,0-6,0c-1.5-0.8-2.1-2.1-2.4-3.6c-3.6-17-8.1-33.8-13.6-50.4c4,0,8,0,12-0.1c0,0,0,0,0,0
			c-0.7,2.6-0.3,5.1,0.4,7.7c3.9,13.1,7.2,26.3,10.1,39.6C290,510.6,290.8,512.9,289,515z"/>
		<path fill="#353535" d="M267,461.1c4.8,4.9,5.1,11.6,6.8,17.7c3.4,12,6.1,24.2,9.2,36.3c-2.3,0-4.7,0-7,0
			c-3-16.2-7.4-32.1-12.2-47.8C262.5,463.1,263.3,461.7,267,461.1z"/>
		<path fill="#EDEDED" d="M229,223c14.1,0.3,28.1,0.6,42.2,0.9c2.8,0.1,5.6,0.1,8.4,0.2c0,0,0.2,0,0.2,0c1.4,5,0.3,10,0.7,15
			c0.2,2.8-0.4,5.6,0.4,8.3c-0.4,4.2-0.2,8.4,0.2,12.6c-0.1,0.6-0.2,1.2-0.4,1.8c-14.7,0.9-29.4,0-44.1,0c-3.2,0-6.6,1-9.6-1
			c0-6.8,0-13.7,0-20.5c0.9-4.6,0.1-9.3,0.4-13.9C227.6,225.2,226.6,223.3,229,223z"/>
		<path fill="#2B2B2B" d="M280.9,247.4c-1.1-7.8-0.7-15.6-1.1-23.4c2.2,2,1.1,4.7,1.1,7C281.1,236.5,280.9,242,280.9,247.4z"/>
		<path fill="#2E2C2C" d="M306.1,385.2c14.3-0.1,28.6-0.2,42.9-0.4c-0.9,1.8-2.6,1-3.9,1.3c-6.7,0-13.3,0-20,0
			C318.7,385.5,312.3,387,306.1,385.2z"/>
		<path fill="#B43939" d="M276.2,344.9c-0.9-1-2.1-0.9-3.3-0.9c-13.7,0-27.3,0-41,0c-3,0-6,0-9,0c-6.4-1.6-8.5-6.3-5-11.1
			c1.9-2.1,4.5-2.1,7-2.3c15,0.1,30,0.2,45,0.2c2-1.7,4.5-1.1,6.8-1.6c0.8,0,1.6,0.1,2.1,0.8l0.1-0.1c1.1,1.6,0.3,3.4,0.6,5.1
			c-0.1,3.5,0.2,7.1-0.1,10.6c-0.7,0.8-1.5,0.9-2.2,0C276.8,345.5,276.5,345.2,276.2,344.9z"/>
		<path fill="#2D2D2D" d="M277.1,330.1c-2.2,1.8-4.7,0.7-7.1,0.8c-0.8-1.1-1.9-0.9-3-0.9c-0.1-5.3-4.7-8.6-6.3-14c3.2,0,6.3,0,9.3,0
			c2.1,3.8,3.7,8,7,11C277.7,328,277.8,329.1,277.1,330.1z"/>
		<path fill="#333333" d="M289,515c-0.9-11.6-5-22.5-7.4-33.7c-1.1-5-2.8-9.8-4.2-14.7c-0.7-2.2-1.2-4.4,1.7-5.6
			c0.7,0.3,1.3,0.7,2,1c2.5-0.3,2.7,1.4,3.3,3.3c4.6,14.8,8.2,29.8,11.7,44.9c0.9,4,0.2,5.5-4,4.9C291,514.9,290,515,289,515z"/>
		<path fill="#877D7D" d="M280.1,202.9c2.3-1.5,4.7-1.1,7.2-0.8C285,203.9,282.5,202.7,280.1,202.9z"/>
		<path fill="#B33D4A" d="M229,223c-2.5,2.7-0.9,6-1.3,9c-0.4,2.8,0.4,5.6-0.6,8.4c0-8.8-0.1-17.5-0.1-26.3c0-1.3-0.3-2.9,2-2
			C229,215.7,229,219.3,229,223z"/>
		<path fill="#BFBFF7" d="M212,46c0-1.3,0-2.7,0-4c1-2.3,0.1-4.9,1.6-7.1c0.6-1.5,1-3.3,3.2-3c1.7,0.3,1.9,2,2.5,3.3
			c1.2,2.5,1.3,5.4,2.6,7.8c0.1,1.1-0.2,2.3,1,3c1.2,1.5-0.2,3.5,1,5c0,1.3,0,2.6,0,4c0.7,1,0.7,2,0,3c-1.7-5.6-3.3-11.3-5.1-16.9
			c-0.4-1.3-0.7-3.4-2.4-3.4c-1.6,0.1-1.8,2.1-2.4,3.5c-0.9,2.2-1.3,4.4-1.1,6.8c0.7,1.3,0.6,2.2-1.2,2
			C211.4,48.7,211.2,47.3,212,46z"/>
		<path fill="#A8A8E9" d="M213,33c0-4.3,0.1-8.5,3-12c1.8,6.1,6.3,11.2,6,18c-3.7-1.4-2.5-5.7-4.7-8.1c-0.3-0.5-0.5-1.4-1.1-1.3
			c-1.1,0.2-0.9,1.5-1.3,2.3c-0.2,0.4-0.4,0.8-0.7,1.2C213.8,33.4,213.4,33.4,213,33z"/>
		<path fill="#B5B5F3" d="M214,33c0-0.3,0-0.7,0-1c0.8-1.7,1.4-3.8,4-2c1.3,3,2.7,6,4,9c0,1.3,0,2.7,0,4c-2.7-1.7-3.2-4.7-3.7-7.3
			c-1-5.1-2.4-2.9-4.3-0.7C213.5,34.3,213.4,33.7,214,33z"/>
		<path fill="#BBBBF6" d="M224,58c0-1,0-2,0-3c1.4,1.8,1.3,4,2,6c0,1.7,0,3.3,0,5c0,0.7,0,1.4,0,2C224.5,64.8,224.3,61.4,224,58z"/>
		<path fill="#B0B0F2" d="M224,51c-1.7-1.4-0.8-3.3-1-5C224.7,47.4,223.8,49.3,224,51z"/>
		<path fill="#B0B0EE" d="M214,33c0,0.7,0,1.3,0,2c-1.1,2.2-0.4,4.9-2,7c0-1.3,0-2.7,0-4c0.3-1.7,0.7-3.3,1-5
			C213.3,33,213.7,33,214,33z"/>
		<path fill="#AAAAEA" d="M347,34c-0.4-2.6,0.8-4.8,2-7c4.3,2.5,4.9,7,5.9,11.3c0.4,1.6,0.2,3.3,1.1,4.7c-0.1,1.4,0.5,2.9-1,4
			c0,0-0.1,0-0.1,0c-1.7-2.2-2.1-4.8-2.4-7.5C351.6,33.9,350.9,33.2,347,34z"/>
		<path fill="#F7F7FE" d="M229,145c0,6.3,0,12.7,0,19c-2.2-6.2-0.4-12.7-1-19c0-3.3,0-6.7,0-10c0.6-0.4,1.1-0.2,1.4,0.4
			C229.3,138.6,230,141.8,229,145z"/>
		<path fill="#F7F7FE" d="M226,116c-3.2-6-8-11.4-7-19c0.2,0,0.5-0.1,0.7-0.1c1.8,4.6,5.7,8.2,6.8,13.2c0.2,0.4,0.3,0.9,0.4,1.3
			c0.1,1.4,0.3,2.8-0.3,4.1C226.3,115.7,226.2,115.8,226,116z"/>
		<path fill="#F2F2FE" d="M229,135c-0.3,0-0.7,0-1,0c0-1.3,0-2.7,0-4c-1-2.5-0.3-5.1-0.4-7.6c0.3-0.6,0.8-0.7,1.4-0.4
			c0,3.7,0,7.3,0,11c0.3,0.2,0.4,0.4,0.3,0.7C229.2,134.9,229.1,135,229,135z"/>
		<path fill="#F7F7FE" d="M218,88c0.3,0,0.7,0,1,0c0.7,0.6,1,1.4,1.2,2.3c0.1,2.3,0.6,4.7-1.2,6.7v0C217,94.2,218.4,91,218,88z"/>
		<path fill="#F7F7FE" d="M228,123c0,2.7,0,5.3,0,8c-2-2.8-0.6-6-1-9c0.1-0.1,0.3-0.2,0.4-0.3c0.4,0,0.7,0.1,0.9,0.4
			C228.4,122.5,228.3,122.8,228,123z"/>
		<path fill="#F7F7FE" d="M227,122c-1.8-1.8-0.7-4-1-6v0c0.6-0.4,1-0.2,1.4,0.3C227.9,118.3,228.5,120.2,227,122L227,122z"/>
		<path fill="#F2F2FE" d="M227,122c0-2,0-4,0-6c-1.2-1.5,0.2-3.5-1-5c-0.6-2.7-1-5.4-2.5-7.8c-2.5-4-4.2-8.4-4.5-13.2
			c0-0.7,0-1.3,0-2c0.1-8.2-1.2-16.3-3-24.4c-3.3,0.9-0.9,4.3-3,5.4c-0.8-3.4-0.9-6.8-0.1-10.3c0.3-1.4,1-2.6,2.5-2.8
			c1.6-0.1,2.2,1.2,2.8,2.4c1.6,3.6,1.6,7.5,1.8,11.3c0.6,9.9,4.4,19,6.1,28.6c0.3,1.9-0.1,4,1,5.8c-0.1,4.4,1.6,8.6,1,13
			c0.7,1.7,0.7,3.3,0,5C227.7,122,227.3,122,227,122z"/>
		<path fill="#EDEDFE" d="M227,104c-4-13.1-8.4-26-9.1-39.9c-0.1-2.6,0.1-6.8-2.6-7c-2.1-0.2-1.2,4.2-2.1,6.5
			c-0.6,1.6-0.2,3.6-0.2,5.4c0,1.1,0.2,2.3-1,3c-0.7-1-0.7-2,0-3c0-1.7,0-3.3,0-5c-1.3-2.7,0.1-5.4,0.2-8.2c0.9-2.3,0.5-6.1,3.9-6
			c2.9,0.1,2.7,3.7,3.1,6c0.8,4,2,8,2.1,12.1c0,1.8-0.2,3.5,0.3,5.2c0.1,0.5,0.3,0.9,0.3,1.4c0.3,3.6,1.7,6.9,2.8,10.3
			c0.6,3.3,2.2,6.5,1.2,10.1C226.2,98,227.5,100.9,227,104z"/>
		<path fill="#ECECFE" d="M212,69c0,1,0,2,0,3c0.1,11.8-1.7,23.5-1,35.3c0.1,1-0.1,2-1,2.7c-0.8-2.7-0.8-5.3,0-8
			c-0.7-10.1,1.2-20.2,1-30.3C211,70.7,211.1,69.7,212,69z"/>
		<path fill="#ECECFE" d="M209,126c0-4.3,0-8.7,0-13c0.3-0.4,0.7-0.5,1,0c-0.6,6.7,1.3,13.4-1,20C208.2,130.7,208.2,128.3,209,126z"
			/>
		<path fill="#E6E6FD" d="M210,113c-0.3,0-0.7,0-1,0c0-3.7,0-7.3,0-11c0.3,0,0.7,0,1,0c0,2.7,0,5.3,0,8C210,111,210,112,210,113z"/>
		<path fill="#E6E6FD" d="M209,126c0,2.3,0,4.7,0,7c0,0.7,0,1.3,0,2c-0.3,0-0.7,0-1,0C208.4,132,207,128.8,209,126z"/>
		<path fill="#E7E7FD" d="M226,95c-0.7-3.3-1.3-6.7-2-10c-1.1-3.6-2-7.3-3-11c-1.2-1.5,0.2-3.5-1-5c-0.2-6.3-2.1-12.3-3.4-18.5
			c-3.4,0.7-1.7,4.2-3.6,5.5c-2.4-3,0.1-5.4,1-8c0-0.3,0-0.7,0-1c0.7-0.8,0.4-2.6,2.1-2.4c1.9,0.2,2,1.9,2.4,3.3
			c2.9,11.6,5.7,23.2,7.5,35c0.2,4,1.6,7.9,1,12C226.7,95,226.3,95,226,95z"/>
		<path fill="#EBEBFD" d="M229,135c0-0.3,0-0.7,0-1c2.1,3.5,0.5,7.4,1,11c-0.3,0-0.7,0-1,0C229,141.7,229,138.3,229,135z"/>
		<path fill="#EBEBFD" d="M228,122c0-1.7,0-3.3,0-5c1.8,1.8,0.7,4,1,6c-0.3,0-0.7,0-1,0C228,122.7,228,122.3,228,122z"/>
		<path fill="#FBFBFE" d="M346,135c-0.2-7.7,0.5-15.4,2-23c0.2-1.2,0.4-2.4,1.8-2.6c1.5-0.2,2,1,2.2,2.1c0.8,3.9,5.5,5.9,5,10.4
			c-3.9,0.2-4.8-3.3-6.4-5.7c-2.9,2-1.5,5.3-2.6,7.7c-1.4,2.5,0.3,5.5-1,8c0,1,0,2,0,3C346.7,135.5,346.3,135.5,346,135z"/>
		<path fill="#FCFCFE" d="M348,124c0-1.8-0.2-3.7,0.1-5.5c0.4-1.7,0.3-4.4,2.1-4.7c2.4-0.4,1.2,2.5,2.1,3.7c1.3,1.7,2.7,3.3,4.6,4.4
			c-0.1,2,0.4,3.7,2,5c-0.3,1-0.7,2-1,3c-1.2-4.6-7.5-5.7-7.1-11.4C347.8,119.6,350.1,122.9,348,124z"/>
		<path fill="#FCFCFE" d="M360,140c1.3,8.6,1,17.3,1,26c-1.5-1.3-1-3.1-1-4.7c0.1-7.1-0.1-14.2-1-21.3
			C359.3,139.5,359.7,139.5,360,140z"/>
		<path fill="#FBFBFE" d="M346,151c-0.3,0-0.7,0-1,0c0.6-4.3-1.2-8.8,1-13c0.8,2.7,0.8,5.3,0,8C346,147.7,346,149.3,346,151z"/>
		<path fill="#FCFCFE" d="M346,146c0-2.7,0-5.3,0-8c0-1,0-2,0-3c0.3,0,0.7,0,1,0C346.5,138.6,348.1,142.5,346,146z"/>
		<path fill="#FBFBFE" d="M360,140c-0.3,0-0.7,0-1,0c0-1.3,0-2.7,0-4c-0.7-1.7-0.8-3.3,0-5C361,133.8,359.6,137,360,140z"/>
		<path fill="#FCFCFE" d="M347,132c0.4-2.7-1-5.5,1-8C347.6,126.7,349,129.5,347,132z"/>
		<path fill="#FCFCFE" d="M359,131c0,1.7,0,3.3,0,5c-1.7-1.4-0.8-3.3-1-5C358.3,131,358.7,131,359,131z"/>
		<path fill="#F2F2FE" d="M359,104c0,2,0,4,0,6c-10-12.1-6.8-27.5-10.3-41.2c-2.7,0.4-0.9,3.4-2.7,4.2c-1-1.2-0.3-2.6-0.5-3.9
			c0-1.1-0.1-2.2,0.2-3.2c0.5-1.6,0.4-4.1,2.9-3.8c2.1,0.3,2.3,2.5,2.7,4.3c1.2,6.8,1.9,13.7,2.7,20.6c0.6,4.5,1.5,8.7,4.1,12.5
			c0.7,1.1,1.1,2.4,1.1,3.8C359.1,103.5,359,103.7,359,104z"/>
		<path fill="#F2F2FE" d="M343,100c0.6-5-1.2-10.1,1-15c0.1,0.2,0.3,0.5,0.4,0.7c-0.1,3.1,0.6,6.2-0.4,9.3c0,5.5,0,10.9,0,16.4
			c0,1.6,0.5,3.4-1,4.6C343,110.7,343,105.3,343,100z"/>
		<path fill="#F2F2FE" d="M346,69c0,1.3,0,2.7,0,4c0,0.3,0,0.7,0,1c-1.4,2.2,0.3,4.8-1,7c0,1.3,0,2.7,0,4c-0.3,0.5-0.7,0.5-1,0
			c0,0,0,0,0,0c0-5.4-0.3-10.7,1-16C345.3,68.6,345.7,68.5,346,69z"/>
		<path fill="#F2F2FE" d="M344,85c0.3,0,0.7,0,1,0c-0.5,3.3,1,6.8-1,10C344,91.7,344,88.3,344,85z"/>
		<path fill="#F2F2FE" d="M345,81c0.4-2.3-0.9-4.9,1-7C345.6,76.3,346.9,78.9,345,81z"/>
		<path fill="#E4E4FD" d="M360,87c0.4,3-1,6.2,1,9c0.2,1.7-0.6,3.6,1,5c0,1,0,2,0,3c0,2,0,4,0,6c0,2.3,0,4.6,0,7
			c0.7,1.7,0.8,3.4,0,5.1c-2.1-5.9-0.2-12.1-2-18c-2.5-12.3-6.8-24.3-8.3-36.8c-0.4-3.6-1.4-7.2-2-10.8c-0.3-1.6-1.2-2.7-2.6-3.4
			c-0.1-1.7,0.2-4.1,1.7-4.3c2.3-0.2,2.3,2.5,2.6,4.1c2.3,10.3,4.5,20.7,6.6,31c0.2,0.8,0.3,1.6,1,2.2C359.6,86.1,359.6,86.7,360,87
			z"/>
		<path fill="#ECECFE" d="M347,53c2.3-3,3.1-1.1,3.5,1.2c1,5.5,2.2,11,2.8,16.5c1,8.9,5.2,17,6.1,25.9c0.3,2.5,0.4,4.9,0.5,7.4
			c-0.3,0-0.7,0-1,0v0c-2.7-9.2-6.6-18-7-27.8c-0.2-4-1-7.9-1.6-11.8c-0.3-2.2-0.8-4.9-4.3-3.4C345.5,58.2,346.9,55.7,347,53z"/>
		<path fill="#DCDCFB" d="M362,122c0-1.7,0-3.4,0-5.1c0.3,0,0.6,0.1,0.9,0.1c0,4.3,0.1,8.6,0.1,12.9c0,2.7-0.1,5.3-0.1,8
			C360.9,132.8,362.5,127.3,362,122z"/>
		<path fill="#DBDBFD" d="M226,83c-2.7-11.3-5.3-22.7-8-34c-0.5-2-0.6-5.5-4-2c-0.1-1.4,0.2-2.6,0.9-3.8c0.4-0.7,0.8-1.6,1.7-1.5
			c0.9,0.1,1.2,1,1.4,1.8C221.3,56.5,225.3,69.4,226,83z"/>
		<path fill="#DBDBFD" d="M214,48c0,2.7-1.5,5.2-1,8c-0.1,2.7-1.5,5.2-1,8c-0.3,0-0.7,0-1,0c0-2,0-4,0-6c0-1,0-2,0.1-3
			c1.2-1.5-0.2-3.5,1-5c0.8-0.4,1-1.2,1-2C213.3,48,213.7,48,214,48z"/>
		<path fill="#D3D3FC" d="M360,87c-0.3-0.3-0.7-0.7-1-1c0-10.2-3.9-19.7-5.4-29.7c-0.5-2.9-1.6-5.7-2.2-8.6
			c-0.9-4.3-2.5-3.3-4.4-0.7c-0.7-1-0.7-2,0-3c0-0.3,0-0.7,0-1c0.8-1.1,0.6-3.3,2.6-3.1c1.6,0.1,2.3,1.6,3.1,2.9
			c1.2,1.9,0.3,4.2,1.3,6.2c1.2,7.8,2.8,15.4,5,23c0.9,0.8,0,2.2,1,3c0,1,0,2,0,3c0,2.3,0,4.6,0,7C360,85.6,360,86.3,360,87z"/>
		<path fill="#C8C8F9" d="M354,49c-1.4-1.5-1.6-3.4-2.2-5.2c-1.1-3.4-2.6-4.2-4.8-0.8c0.9-5.4,1.5-5.8,5-3c1.5,2.1,2.7,4.3,2,7
			C354,47.7,354,48.3,354,49z"/>
		<path fill="#BDBDF6" d="M354,47c-0.7-2.3-1.3-4.7-2-7c0-0.3,0-0.7,0-1c0.3-0.4,0.7-0.4,1,0c1.1,2.6,2.3,5.1,2,8
			C354.7,47,354.3,47,354,47z"/>
		<path fill="#B4B4E6" d="M360,75c-1.1-0.7-0.9-1.9-1-3c0-1,0-2,0-3c0.3,0,0.6,0,1,0C360,71,360,73,360,75z"/>
		<path fill="#F0F0FE" d="M346,61c1.7-0.9,0.3-3.3,2.5-4.4c2.4,3.3,2.3,7.2,2.8,11c1.5,10.6,3,21.1,7.3,31c0.7,1.6,0.3,3.6,0.4,5.4
			c-6.9-8.8-6.6-19.6-8-29.9c-0.5-3.8-0.8-7.7-2.1-11.4c-2.4,0.2-1.5,2.7-2.9,3.3c-0.7-1.3-0.7-2.7,0-4C346,61.7,346,61.3,346,61z"
			/>
		<path fill="#C8C8F9" d="M347,44c0,1,0,2,0,3c-1,2.2-0.4,4.9-2,7c0-2,0-4,0-6c1.4-1.1,0.8-2.6,1-4C346.3,44,346.7,44,347,44z"/>
		<path fill="#ECECFE" d="M346,62c0,1.3,0,2.7,0,4c0,1,0,2,0,3c-0.3,0-0.7,0-1,0C345.4,66.7,344.1,64.1,346,62z"/>
		<path fill="#B7B7E8" d="M212,50c-0.2,1.7,0.6,3.6-1,5c0-0.7,0-1.4,0-2c0.4-2.3-0.9-4.9,1-7C212,47.3,212,48.7,212,50z"/>
		<path fill="#B4B4F2" d="M353,39c-0.3,0-0.7,0-1,0c-0.4-5.3-3-4.3-6-2c0.3-1,0.7-2,1-3c1.8-2.5,3.4-3.4,4.7,0.4
			C352.3,35.9,353.2,37.3,353,39z"/>
		<path fill="#222121" d="M285,339c0.3-2-0.8-4.2,1-6C285.7,335,286.8,337.2,285,339z"/>
		<path fill="#502E2E" d="M277.1,330.1c0-1,0-2.1,0-3.1c0.6,0.3,1.3,0.7,1.9,1c0,0.3,0.1,0.7,0.1,1c-0.1,0.4-0.1,0.8-0.2,1.2
			C278.2,330.1,277.6,330.1,277.1,330.1z"/>
		<path fill="#413131" d="M279,346c0-3.7,0.1-7.3,0.1-11c0.3-0.4,0.6-0.5,0.9,0c0,6,0,12,0,18c-0.7,0.6-1.3,0.6-2,0c0-1,0-2,0-3
			C279.2,348.8,277.8,347.1,279,346z"/>
		<path fill="#323131" d="M278,353c0.7,0,1.3,0,2,0c0,3,0,6,0,9c0,0-0.5,0-0.5,0s-0.5,0-0.5,0C278.8,359,279.7,355.9,278,353z"/>
		<path fill="#222121" d="M280,335c-0.3,0-0.6,0-0.9,0c0-1.7-0.1-3.3-0.1-5C280.7,331.4,279.7,333.3,280,335z"/>
		<path fill="#553232" d="M279,346c-0.1,1.4,0.5,2.9-1,4c-0.3-1.4-0.6-2.8-0.9-4.2C277.8,345.8,278.4,345.9,279,346z"/>
		<path fill="#B0B0EE" d="M218,30c-1.9-0.4-2.9,0.9-4,2c0-1.8,0-3.8,1.9-4.5C217.5,27,217.8,28.7,218,30z"/>
		<path fill="#F5F5FE" d="M219,90c1.1,7.4,7.9,12.9,7,21c-1.5-5.1-6-8.7-7-14C219,94.7,219,92.3,219,90z"/>
		<path fill="#F5F5FE" d="M226,111c1.7,1.4,0.8,3.3,1,5c-0.3,0-0.7,0-1,0C226,114.3,226,112.7,226,111z"/>
		<path fill="#EAEAFE" d="M221,74c2.1,3.4,2.7,7.1,3,11C222,81.6,220.8,78,221,74z"/>
		<path fill="#EAEAFE" d="M220,69c1.7,1.4,0.8,3.3,1,5C219.3,72.6,220.2,70.7,220,69z"/>
	</g>
</g>
<g id="Calque_3">
	<polygon fill="#0010D1" points="346,461 218,461 97,248 128.1,196.9 203,198 203,183 236,183 236.4,200 336.1,200 336.3,183 
		366.7,183 367.1,200 442,201 470,254 	"/>
	<polygon fill="#1A1A1A" points="430,262 378.5,313.5 327,262 	"/>
	<polygon fill="#1A1A1A" points="247,262 195.5,313.5 144,262 	"/>
	<polygon fill="#FFFFFF" points="214,262 195.5,280.5 177,262 	"/>
	<polygon fill="#FFFFFF" points="398,262 379.5,280.5 361,262 	"/>
	<polygon fill="#FFFFFF" points="444,265 120,262.9 89,221 476,225 	"/>
</g>
<g id="Calque_4">
	<g>
		<circle fill="#383838" cx="276" cy="341" r="15"/>
		<circle fill="#343434" cx="276" cy="341" r="12.4"/>
		<g>
			<path fill="#4A4A4A" d="M276.1,368L276.1,368c-2.4,0-4.4-2-4.4-4.4v-21.2c0-2.4,2-4.4,4.4-4.4l0,0c2.4,0,4.4,2,4.4,4.4v21.2
				C280.5,366,278.5,368,276.1,368z"/>
			<path fill="#4A4A4A" d="M280.8,370h-9.2c-1.4,0-2.6-1.2-2.6-2.6v-4c0-1.4,1.2-2.6,2.6-2.6h9.2c1.4,0,2.6,1.2,2.6,2.6v4
				C283.3,368.8,282.2,370,280.8,370z"/>
		</g>
	</g>
</g>
</svg>
