<?xml version="1.0" encoding="utf-8"?>
<!-- Generator: Adobe Illustrator 18.1.1, SVG Export Plug-In . SVG Version: 6.00 Build 0)  -->
<svg version="1.1" id="Calque_1" xmlns="http://www.w3.org/2000/svg" xmlns:xlink="http://www.w3.org/1999/xlink" x="0px" y="0px"
	 viewBox="0 496.9 841.9 87" enable-background="new 0 496.9 841.9 87" xml:space="preserve">
<g>
	<defs>
		<rect id="SVGID_1_" y="496.9" width="841.9" height="87"/>
	</defs>
	<clipPath id="SVGID_2_">
		<use xlink:href="#SVGID_1_"  overflow="visible"/>
	</clipPath>
	<g clip-path="url(#SVGID_2_)">
		<polygon fill="#751615" points="0,653.4 841.9,653.4 841.9,558.4 818,541 739.1,558.4 692,549.5 636.2,558.4 561.4,544.7 
			475.1,558.4 448,536.7 415,558.4 366.6,558.4 312,534 243.3,557.6 191.5,536.7 145.9,558.4 90.4,558.4 18.8,541 0,558.4 		"/>
		<polygon fill="#A21C1B" points="841.9,653.4 0,653.4 0,570.8 56.8,554.3 102.8,570.8 149.9,563 205.7,570.8 280.4,558.7 
			366.8,570.8 393.9,551.8 426.9,570.8 475.3,570.8 517.2,562.5 598.6,570.1 650.4,551.8 696,570.8 751.5,570.8 793.5,558.1 
			841.9,570.8 		"/>
	</g>
</g>
</svg>
