<?xml version="1.0" encoding="utf-8"?>
<!-- Generator: Adobe Illustrator 22.1.0, SVG Export Plug-In . SVG Version: 6.00 Build 0)  -->
<svg version="1.1" xmlns="http://www.w3.org/2000/svg" xmlns:xlink="http://www.w3.org/1999/xlink" x="0px" y="0px"
	 viewBox="0 0 600 600" style="enable-background:new 0 0 600 600;" xml:space="preserve">
<style type="text/css">
	.st0{display:none;}
	.st1{display:inline;fill:#7505D6;}
	.st2{display:none;fill:#7505D6;}
	.st3{opacity:0.5;}
	
		.st4{fill:none;stroke:#FFFFFF;stroke-width:11;stroke-linecap:round;stroke-miterlimit:10;stroke-dasharray:37.2644,32.3612,10.7871,28.4386,0,0;}
	.st5{display:inline;}
	.st6{fill:#898989;}
	.st7{fill:#4C4C4C;}
	.st8{fill:#191919;}
	.st9{display:inline;fill:#FF3E3E;}
	.st10{fill:#FFFFFF;}
	.st11{fill:#D300D3;}
	.st12{clip-path:url(#SVGID_2_);}
</style>
<g id="Calque_7" class="st0">
	<rect x="-66" y="-67" class="st1" width="813" height="786"/>
</g>
<g id="crecle">
	<rect x="-43.5" y="-121.5" class="st2" width="3264" height="1511.5"/>
	<g class="st3">
		<circle class="st4" cx="302" cy="301" r="294.5"/>
	</g>
</g>
<g id="SG" class="st0">
</g>
<g id="canon" class="st0">
	<g class="st5">
		<circle class="st6" cx="830.2" cy="340.4" r="142.7"/>
	</g>
	<g class="st5">
		<circle class="st7" cx="830.2" cy="340.4" r="110.5"/>
	</g>
	<g class="st5">
		<g>
			
				<rect x="805.9" y="243.4" transform="matrix(0.8477 -0.5304 0.5304 0.8477 -6.6867 537.9107)" class="st8" width="255.3" height="74.4"/>
		</g>
		
			<ellipse transform="matrix(0.8477 -0.5304 0.5304 0.8477 -58.2482 491.569)" class="st8" cx="827.1" cy="347.2" rx="38.2" ry="37.2"/>
	</g>
	<g class="st5">
		
			<rect x="1031.4" y="131.5" transform="matrix(0.8477 -0.5304 0.5304 0.8477 57.4533 591.829)" class="st7" width="56.3" height="128.6"/>
	</g>
</g>
<g id="vie" class="st0">
	<polygon class="st9" points="1772.5,415 1298.5,415 1533.4,61.6 	"/>
	<g class="st5">
		<path class="st10" d="M1438.4,302v-17.8h31.3v-31.3h17.7v31.3h31.3V302h-31.3v31.3h-17.7V302H1438.4z"/>
		<path class="st10" d="M1609.3,343.3h-59.5v-22.9h14.2v-45c-2.6,0.7-6.1,1-10.6,1c-1.4,0-2.6-0.1-3.6-0.2v-22
			c0.6,0,1.2,0.1,1.8,0.1c6.2,0,12-1.2,17.4-3.6c5.4-2.5,9.3-5.4,11.7-8.8h14.9v78.6h13.7V343.3z"/>
	</g>
</g>
<g id="bouclier">
	<path class="st11" d="M109.3,181.5c0.7-13,8.1-21.3,21-22.2c18.6-1.3,35.3-8.4,51.1-17.4c19.4-11,38.1-23.5,57.5-34.6
		c14.8-8.5,30.4-15.5,45.4-23.7c15.7-8.6,30.4-5.7,45.8,1.4c28,12.9,53.7,29.6,79.8,45.7c16.8,10.3,33.9,20,53,25.3
		c5.8,1.6,11.8,2.5,17.8,3.1c12.6,1.3,20.5,9.3,19.7,21.9c-1.2,18.9-2.9,37.7-5,56.5c-3.4,30.2-9.6,60-18.4,89.1
		c-17.2,57.1-44.8,108.3-86.9,151c-22.1,22.4-47.2,41.1-74.4,56.8c-6.9,4-13.8,3.9-20.6-0.1c-59.4-34.4-105.2-81.8-135.8-143.5
		c-20.7-41.8-33.7-86-40.6-132C114.8,233.2,112.4,207.3,109.3,181.5z"/>
</g>
<g id="meteor" class="st0">
	<path class="st9" d="M306.8,449.9c0,0-71.5-62.4-131.1-129.4c-29.3-32.8-56.6-86.1-56.6-86.1l83.2,60.5c0,0-92-168.9-93.2-182.7
		l185.2,144.9c0,0-84.4-155-85.7-158.8s241.9,191.5,245.7,201.6S481.5,480.5,306.8,449.9z"/>
	<g class="st5">
		<defs>
			<circle id="SVGID_1_" cx="374.8" cy="368" r="105.8"/>
		</defs>
		<use xlink:href="#SVGID_1_"  style="overflow:visible;fill:#5E5E5E;"/>
		<clipPath id="SVGID_2_">
			<use xlink:href="#SVGID_1_"  style="overflow:visible;"/>
		</clipPath>
		<g class="st12">
			<circle class="st7" cx="329.4" cy="303.7" r="42.8"/>
		</g>
		<g class="st12">
			<circle class="st7" cx="456.7" cy="373" r="42.8"/>
		</g>
		<g class="st12">
			<g>
				<circle class="st7" cx="326.9" cy="443.6" r="42.8"/>
			</g>
		</g>
	</g>
</g>
</svg>
