<svg xmlns="http://www.w3.org/2000/svg" viewBox="0 0 600 600"><defs><style>.cls-1{opacity:0.5;}.cls-2{fill:none;stroke:#fff;stroke-linecap:round;stroke-miterlimit:10;stroke-width:11px;stroke-dasharray:37.26 32.36 10.79 28.44 0 0;}.cls-3{fill:#ff3e3e;}.cls-4{fill:#fff;}</style></defs><title>picto03</title><g id="crecle"><g class="cls-1"><circle class="cls-2" cx="300" cy="300" r="294.5"/></g></g><g id="vie"><polygon class="cls-3" points="530.5 414.04 56.5 414.04 291.42 60.61 530.5 414.04"/><path class="cls-4" d="M198.4,302V284.17h31.33V252.84h17.74v31.33h31.32V302H247.47v31.25H229.73V302Z" transform="translate(-2 -1)"/><path class="cls-4" d="M369.27,343.32H309.76V320.43h14.16v-45a43.87,43.87,0,0,1-10.58,1,25.42,25.42,0,0,1-3.58-.21v-22c.57.05,1.17.07,1.79.07a41.45,41.45,0,0,0,17.38-3.65q8.16-3.72,11.66-8.79h15v78.6h13.73Z" transform="translate(-2 -1)"/></g></svg>