<svg id="Calque_1" data-name="Calque 1" xmlns="http://www.w3.org/2000/svg" viewBox="0 0 600 600"><defs><style>.cls-1{opacity:0.5;}.cls-2{fill:none;stroke:#fff;stroke-linecap:round;stroke-miterlimit:10;stroke-width:11px;stroke-dasharray:37.26 32.36 10.79 28.44 0 0;}.cls-3{fill:#e5d900;}.cls-4{fill:#dba807;}</style></defs><title>pictosg</title><g id="crecle"><g class="cls-1"><circle class="cls-2" cx="300" cy="300" r="294.5"/></g></g><g id="space_gold" data-name="space gold"><circle class="cls-3" cx="300" cy="300" r="246"/><path class="cls-4" d="M280.83,253.73H228.37v-16.1q0-11.28-2-14.36t-6.71-3.09a8.55,8.55,0,0,0-7.72,4.17q-2.61,4.16-2.61,12.62,0,10.88,2.94,16.38t16,13.28q37.72,22.38,47.52,36.74t9.8,46.29q0,23.22-5.45,34.22t-21,18.44q-15.57,7.46-36.23,7.45-22.68,0-38.71-8.58t-21-21.87q-5-13.29-5-37.71V327.39h52.46v26.43q0,12.21,2.22,15.7c1.47,2.33,4.09,3.49,7.84,3.49a9.2,9.2,0,0,0,8.39-4.43q2.74-4.43,2.75-13.15,0-19.19-5.23-25.09T200.2,310.62q-21.07-14-27.91-20.26T161,272.91q-4.5-11.13-4.5-28.44,0-25,6.37-36.5t20.6-18q14.24-6.51,34.35-6.51,22,0,37.51,7.11t20.52,17.91q5,10.8,5,36.7Z" transform="translate(-2 -1)"/><path class="cls-4" d="M432.85,268H376.36V248.23q0-18.66-1.61-23.35c-1.08-3.13-3.62-4.7-7.65-4.7q-5.22,0-7.1,4t-1.89,20.66V349.13q0,14.61,1.89,19.25t7.51,4.63q6.17,0,8.39-5.23t2.21-20.4V321.62H366.7v-33h66.15v116.6h-35.5l-5.22-15.56a39.46,39.46,0,0,1-14.57,15.09q-8.81,5-20.75,5a53.9,53.9,0,0,1-26.65-6.91q-12.42-6.9-18.86-17.1a54,54,0,0,1-8.06-21.4q-1.62-11.21-1.61-33.62V266.21q0-31.14,3.35-45.22t19.25-25.83q15.91-11.74,41.14-11.74,24.81,0,41.18,10.2t21.33,24.22q5,14,5,40.72Z" transform="translate(-2 -1)"/></g></svg>