<?xml version="1.0" encoding="utf-8"?>
<!-- Generator: Adobe Illustrator 22.1.0, SVG Export Plug-In . SVG Version: 6.00 Build 0)  -->
<svg version="1.1" id="Calque_1" xmlns="http://www.w3.org/2000/svg" xmlns:xlink="http://www.w3.org/1999/xlink" x="0px" y="0px"
	 viewBox="0 0 600 600" style="enable-background:new 0 0 600 600;" xml:space="preserve">
<style type="text/css">
	.st0{display:none;}
	.st1{display:inline;fill:#7505D6;}
	.st2{display:none;fill:#7505D6;}
	.st3{opacity:0.5;}
	
		.st4{fill:none;stroke:#FFFFFF;stroke-width:11;stroke-linecap:round;stroke-miterlimit:10;stroke-dasharray:37.2644,32.3612,10.7871,28.4386,0,0;}
	.st5{display:inline;fill:#E5D900;}
	.st6{display:inline;}
	.st7{fill:#DBA807;}
	.st8{fill:#898989;}
	.st9{fill:#4C4C4C;}
	.st10{fill:#191919;}
	.st11{display:inline;fill:#FF3E3E;}
	.st12{fill:#FFFFFF;}
	.st13{display:inline;fill:#D300D3;}
	.st14{fill:#5E5E5E;}
	.st15{clip-path:url(#SVGID_3_);}
	.st16{clip-path:url(#SVGID_5_);}
	.st17{clip-path:url(#SVGID_7_);}
	.st18{display:inline;fill:#191919;}
	.st19{fill:#4940FF;}
</style>
<g id="Calque_7" class="st0">
	<rect x="-66" y="-67" class="st1" width="813" height="786"/>
</g>
<g id="crecle">
	<rect x="-43.5" y="-121.5" class="st2" width="3264" height="1511.5"/>
	<g class="st3">
		<circle class="st4" cx="302" cy="301" r="294.5"/>
	</g>
</g>
<g id="space_gold_1_" class="st0">
	<circle class="st5" cx="302" cy="301" r="246"/>
	<g class="st6">
		<path class="st7" d="M280.8,253.7h-52.5v-16.1c0-7.5-0.7-12.3-2-14.4c-1.3-2.1-3.6-3.1-6.7-3.1c-3.4,0-6,1.4-7.7,4.2
			c-1.7,2.8-2.6,7-2.6,12.6c0,7.3,1,12.7,2.9,16.4c1.9,3.7,7.2,8.1,16,13.3c25.2,14.9,41,27.2,47.5,36.7c6.5,9.6,9.8,25,9.8,46.3
			c0,15.5-1.8,26.9-5.4,34.2c-3.6,7.3-10.6,13.5-21,18.4c-10.4,5-22.4,7.4-36.2,7.4c-15.1,0-28-2.9-38.7-8.6s-17.7-13-21-21.9
			c-3.3-8.9-5-21.4-5-37.7v-14.2h52.5v26.4c0,8.1,0.7,13.4,2.2,15.7c1.5,2.3,4.1,3.5,7.8,3.5s6.6-1.5,8.4-4.4
			c1.8-3,2.8-7.3,2.8-13.1c0-12.8-1.7-21.2-5.2-25.1c-3.6-3.9-12.4-10.5-26.4-19.7c-14-9.3-23.4-16.1-27.9-20.3
			c-4.6-4.2-8.3-10-11.3-17.4c-3-7.4-4.5-16.9-4.5-28.4c0-16.6,2.1-28.8,6.4-36.5c4.2-7.7,11.1-13.7,20.6-18
			c9.5-4.3,20.9-6.5,34.3-6.5c14.7,0,27.2,2.4,37.5,7.1c10.3,4.7,17.2,10.7,20.5,17.9c3.4,7.2,5,19.4,5,36.7V253.7z"/>
		<path class="st7" d="M432.9,267.9h-56.5v-19.7c0-12.4-0.5-20.2-1.6-23.3c-1.1-3.1-3.6-4.7-7.6-4.7c-3.5,0-5.9,1.3-7.1,4
			c-1.3,2.7-1.9,9.6-1.9,20.7v104.3c0,9.7,0.6,16.2,1.9,19.3c1.2,3.1,3.8,4.6,7.5,4.6c4.1,0,6.9-1.7,8.4-5.2
			c1.5-3.5,2.2-10.3,2.2-20.4v-25.8h-11.4v-33h66.2v116.6h-35.5l-5.2-15.6c-3.8,6.7-8.7,11.7-14.6,15.1c-5.9,3.4-12.8,5-20.7,5
			c-9.5,0-18.4-2.3-26.7-6.9c-8.3-4.6-14.6-10.3-18.9-17.1c-4.3-6.8-7-13.9-8.1-21.4c-1.1-7.5-1.6-18.7-1.6-33.6v-64.5
			c0-20.8,1.1-35.8,3.3-45.2c2.2-9.4,8.7-18,19.3-25.8c10.6-7.8,24.3-11.7,41.1-11.7c16.5,0,30.3,3.4,41.2,10.2s18,14.9,21.3,24.2
			c3.3,9.3,5,22.9,5,40.7V267.9z"/>
	</g>
</g>
<g id="canon" class="st0">
	<g class="st6">
		<circle class="st8" cx="229.7" cy="325.4" r="142.7"/>
	</g>
	<g class="st6">
		<circle class="st9" cx="229.7" cy="325.4" r="110.5"/>
	</g>
	<g class="st6">
		<g>
			
				<rect x="205.4" y="228.4" transform="matrix(0.8477 -0.5304 0.5304 0.8477 -90.181 217.095)" class="st10" width="255.3" height="74.4"/>
		</g>
		
			<ellipse transform="matrix(0.8477 -0.5304 0.5304 0.8477 -141.7069 170.7559)" class="st10" cx="226.6" cy="332.2" rx="38.2" ry="37.2"/>
	</g>
	<g class="st6">
		
			<rect x="430.9" y="116.5" transform="matrix(0.8477 -0.5304 0.5304 0.8477 -26.0215 271.0017)" class="st9" width="56.3" height="128.6"/>
	</g>
</g>
<g id="robot">
	<g>
		<circle class="st8" cx="830.2" cy="340.4" r="142.7"/>
	</g>
	<g>
		<circle class="st9" cx="830.2" cy="340.4" r="110.5"/>
	</g>
	<g>
		<g>
			
				<rect x="805.9" y="243.4" transform="matrix(0.8477 -0.5304 0.5304 0.8477 -6.7048 537.8846)" class="st10" width="255.3" height="74.4"/>
		</g>
		
			<ellipse transform="matrix(0.8477 -0.5304 0.5304 0.8477 -58.2307 491.5455)" class="st10" cx="827" cy="347.2" rx="38.2" ry="37.2"/>
	</g>
	<g>
		
			<rect x="1031.3" y="131.5" transform="matrix(0.8477 -0.5304 0.5304 0.8477 57.4547 591.7913)" class="st9" width="56.3" height="128.6"/>
	</g>
</g>
<g id="vie" class="st0">
	<polygon class="st11" points="1772.5,415 1298.5,415 1533.4,61.6 	"/>
	<g class="st6">
		<path class="st12" d="M1438.4,302v-17.8h31.3v-31.3h17.7v31.3h31.3V302h-31.3v31.3h-17.7V302H1438.4z"/>
		<path class="st12" d="M1609.3,343.3h-59.5v-22.9h14.2v-45c-2.6,0.7-6.1,1-10.6,1c-1.4,0-2.6-0.1-3.6-0.2v-22
			c0.6,0,1.2,0.1,1.8,0.1c6.2,0,12-1.2,17.4-3.6c5.4-2.5,9.3-5.4,11.7-8.8h14.9v78.6h13.7V343.3z"/>
	</g>
</g>
<g id="bouclier" class="st0">
	<path class="st13" d="M109.3,181.5c0.7-13,8.1-21.3,21-22.2c18.6-1.3,35.3-8.4,51.1-17.4c19.4-11,38.1-23.5,57.5-34.6
		c14.8-8.5,30.4-15.5,45.4-23.7c15.7-8.6,30.4-5.7,45.8,1.4c28,12.9,53.7,29.6,79.8,45.7c16.8,10.3,33.9,20,53,25.3
		c5.8,1.6,11.8,2.5,17.8,3.1c12.6,1.3,20.5,9.3,19.7,21.9c-1.2,18.9-2.9,37.7-5,56.5c-3.4,30.2-9.6,60-18.4,89.1
		c-17.2,57.1-44.8,108.3-86.9,151c-22.1,22.4-47.2,41.1-74.4,56.8c-6.9,4-13.8,3.9-20.6-0.1c-59.4-34.4-105.2-81.8-135.8-143.5
		c-20.7-41.8-33.7-86-40.6-132C114.8,233.2,112.4,207.3,109.3,181.5z"/>
</g>
<g id="meteor" class="st0">
	<path class="st11" d="M306.8,449.9c0,0-71.5-62.4-131.1-129.4c-29.3-32.8-56.6-86.1-56.6-86.1l83.2,60.5c0,0-92-168.9-93.2-182.7
		l185.2,144.9c0,0-84.4-155-85.7-158.8s241.9,191.5,245.7,201.6S481.5,480.5,306.8,449.9z"/>
	<g class="st6">
		<g>
			<circle id="SVGID_1_" class="st14" cx="374.8" cy="368" r="105.8"/>
		</g>
		<g>
			<defs>
				<circle id="SVGID_2_" cx="374.8" cy="368" r="105.8"/>
			</defs>
			<clipPath id="SVGID_3_">
				<use xlink:href="#SVGID_2_"  style="overflow:visible;"/>
			</clipPath>
			<g class="st15">
				<circle class="st9" cx="329.4" cy="303.7" r="42.8"/>
			</g>
		</g>
		<g>
			<defs>
				<circle id="SVGID_4_" cx="374.8" cy="368" r="105.8"/>
			</defs>
			<clipPath id="SVGID_5_">
				<use xlink:href="#SVGID_4_"  style="overflow:visible;"/>
			</clipPath>
			<g class="st16">
				<circle class="st9" cx="456.7" cy="373" r="42.8"/>
			</g>
		</g>
		<g>
			<defs>
				<circle id="SVGID_6_" cx="374.8" cy="368" r="105.8"/>
			</defs>
			<clipPath id="SVGID_7_">
				<use xlink:href="#SVGID_6_"  style="overflow:visible;"/>
			</clipPath>
			<g class="st17">
				<g>
					<circle class="st9" cx="326.9" cy="443.6" r="42.8"/>
				</g>
			</g>
		</g>
	</g>
</g>
<g id="robot_1_" class="st0">
	<g class="st6">
		<rect x="105.2" y="235.4" class="st9" width="31.4" height="170.1"/>
		<rect x="461.6" y="235.4" class="st9" width="31.4" height="170.1"/>
	</g>
	<g class="st6">
		<circle class="st10" cx="140.8" cy="235.4" r="35.6"/>
		<circle class="st10" cx="457.4" cy="235.4" r="35.6"/>
	</g>
	<g class="st6">
		<rect x="140.8" y="195" class="st9" width="30.2" height="80.8"/>
		<rect x="425.5" y="195" class="st9" width="30.2" height="80.8"/>
	</g>
	<path class="st18" d="M171,131.9v254.5h254.5V131.9H171z M388.7,349.6H207.8V168.7h180.9V349.6z"/>
	<polygon class="st11" points="378.2,325.2 218.3,325.2 297.6,186.5 	"/>
	<g class="st6">
		<path class="st12" d="M287.7,303.5c0-4.6,3.2-7.9,7.5-7.9c4.6,0,7.5,3.3,7.5,7.9c0,4.5-2.9,7.9-7.5,7.9
			C290.7,311.4,287.7,307.9,287.7,303.5z M290.8,285.2l-1.8-61.3h12.3l-1.8,61.3H290.8z"/>
	</g>
	<g class="st6">
		<polygon class="st10" points="140.4,392.7 101.4,392.7 81.9,426.5 101.4,460.3 108.8,460.3 108.8,447.4 96.7,426.5 108.8,405.5 
			133.1,405.5 145.2,426.5 133.1,447.5 133,447.5 133,460.3 140.4,460.3 159.9,426.5 		"/>
		<polygon class="st10" points="496.8,392.7 457.8,392.7 438.3,426.5 457.8,460.3 465.1,460.3 465.1,447.4 453,426.5 465.2,405.5 
			489.4,405.5 501.6,426.5 489.4,447.5 489.4,447.5 489.4,460.3 496.8,460.3 516.3,426.5 		"/>
	</g>
</g>
<polygon class="st19" points="81,150.3 519,150.3 301.9,530.5 "/>
<g>
	<path class="st12" d="M281.9,405.1c0-12.6,8.7-21.7,20.6-21.7c12.6,0,20.6,9.1,20.6,21.7c0,12.2-8,21.7-20.6,21.7
		C290.3,426.8,281.9,417.3,281.9,405.1z M290.6,355.1l-4.9-167.8h33.6l-4.9,167.8H290.6z"/>
</g>
</svg>
