<?xml version="1.0" encoding="utf-8"?>
<!-- Generator: Adobe Illustrator 18.1.1, SVG Export Plug-In . SVG Version: 6.00 Build 0)  -->
<svg version="1.1" xmlns="http://www.w3.org/2000/svg" xmlns:xlink="http://www.w3.org/1999/xlink" x="0px" y="0px"
	 viewBox="0 0 566.9 566.9" enable-background="new 0 0 566.9 566.9" xml:space="preserve">
<g id="Calque_5" display="none">
	<linearGradient id="SVGID_1_" gradientUnits="userSpaceOnUse" x1="-804.5992" y1="325" x2="374.4008" y2="325">
		<stop  offset="0" style="stop-color:#FFFFFF"/>
		<stop  offset="1" style="stop-color:#000000"/>
	</linearGradient>
	<rect x="-804.6" y="-68" display="inline" fill="url(#SVGID_1_)" width="1179" height="786"/>
</g>
<g id="sg">
</g>
<g id="Calque_3">
</g>
<g id="Calque_4">
	<g id="_x2B_1_ship_1_">
		<g>
			<linearGradient id="SVGID_2_" gradientUnits="userSpaceOnUse" x1="54.4863" y1="343.7602" x2="79.961" y2="343.7602">
				<stop  offset="0" style="stop-color:#484848"/>
				<stop  offset="0.9961" style="stop-color:#030303"/>
			</linearGradient>
			<rect x="54.5" y="266.7" fill="url(#SVGID_2_)" stroke="#000000" stroke-miterlimit="10" width="25.5" height="154.1"/>
			<linearGradient id="SVGID_3_" gradientUnits="userSpaceOnUse" x1="20.4941" y1="451" x2="114.3477" y2="451">
				<stop  offset="0" style="stop-color:#484848"/>
				<stop  offset="0.9961" style="stop-color:#030303"/>
			</linearGradient>
			<polygon fill="url(#SVGID_3_)" stroke="#000000" stroke-miterlimit="10" points="90.9,411.5 44,411.5 20.5,451 44,490.5 
				61.9,490.5 61.9,475.5 53.1,475.5 38.8,451 53.1,426.5 81.7,426.5 96.1,451 81.7,475.5 71.9,475.5 71.9,490.5 90.9,490.5 
				114.3,451 			"/>
		</g>
		<g>
			<linearGradient id="SVGID_4_" gradientUnits="userSpaceOnUse" x1="487.1248" y1="345.7572" x2="512.5995" y2="345.7572">
				<stop  offset="0" style="stop-color:#484848"/>
				<stop  offset="0.9961" style="stop-color:#030303"/>
			</linearGradient>
			<rect x="487.1" y="270.6" fill="url(#SVGID_4_)" stroke="#000000" stroke-miterlimit="10" width="25.5" height="150.4"/>
			<linearGradient id="SVGID_5_" gradientUnits="userSpaceOnUse" x1="453.1325" y1="450" x2="546.9861" y2="450">
				<stop  offset="0" style="stop-color:#484848"/>
				<stop  offset="0.9961" style="stop-color:#030303"/>
			</linearGradient>
			<polygon fill="url(#SVGID_5_)" stroke="#000000" stroke-miterlimit="10" points="523.5,409.5 476.6,409.5 453.1,450 476.6,490.5 
				495.9,490.5 495.9,473.5 485.7,473.5 471.4,449 485.7,424.5 514.4,424.5 528.7,449 514.4,473.5 504.9,473.5 504.9,490.5 
				523.5,490.5 547,450 			"/>
		</g>
		<g>
			<linearGradient id="SVGID_6_" gradientUnits="userSpaceOnUse" x1="93.346" y1="320.8762" x2="93.346" y2="235.3847">
				<stop  offset="0" style="stop-color:#484848"/>
				<stop  offset="0.9961" style="stop-color:#030303"/>
			</linearGradient>
			<circle fill="url(#SVGID_6_)" stroke="#000000" stroke-miterlimit="10" cx="93.3" cy="278.1" r="42.7"/>
			<g>
				<circle fill="#FFFFFF" stroke="#000000" stroke-miterlimit="10" cx="116" cy="228.6" r="14.2"/>
				<circle fill="#FFFFFF" stroke="#000000" stroke-miterlimit="10" cx="116" cy="329.6" r="14.2"/>
			</g>
			<linearGradient id="SVGID_7_" gradientUnits="userSpaceOnUse" x1="114.7285" y1="329.1913" x2="114.7285" y2="228.2604">
				<stop  offset="0" style="stop-color:#484848"/>
				<stop  offset="0.9961" style="stop-color:#030303"/>
			</linearGradient>
			<rect x="93.4" y="228.3" fill="url(#SVGID_7_)" stroke="#000000" stroke-miterlimit="10" width="42.7" height="100.9"/>
			<circle fill="#FFFFFF" stroke="#000000" stroke-miterlimit="10" cx="114.7" cy="277.8" r="14.2"/>
		</g>
		<g>
			
				<linearGradient id="SVGID_8_" gradientUnits="userSpaceOnUse" x1="2150.6301" y1="-3254.8276" x2="2150.6301" y2="-3340.3191" gradientTransform="matrix(-1 0 0 -1 2624.8015 -3017.5005)">
				<stop  offset="0" style="stop-color:#484848"/>
				<stop  offset="0.9961" style="stop-color:#030303"/>
			</linearGradient>
			<circle fill="url(#SVGID_8_)" stroke="#000000" stroke-miterlimit="10" cx="474.2" cy="280.1" r="42.7"/>
			<g>
				<circle fill="#FFFFFF" stroke="#000000" stroke-miterlimit="10" cx="451.5" cy="329.6" r="14.2"/>
				<circle fill="#FFFFFF" stroke="#000000" stroke-miterlimit="10" cx="451.5" cy="228.6" r="14.2"/>
			</g>
			
				<linearGradient id="SVGID_9_" gradientUnits="userSpaceOnUse" x1="2172.0125" y1="-3246.5125" x2="2172.0125" y2="-3347.4434" gradientTransform="matrix(-1 0 0 -1 2624.8015 -3017.5005)">
				<stop  offset="0" style="stop-color:#484848"/>
				<stop  offset="0.9961" style="stop-color:#030303"/>
			</linearGradient>
			<rect x="431.4" y="229" fill="url(#SVGID_9_)" stroke="#000000" stroke-miterlimit="10" width="42.7" height="100.9"/>
			<circle fill="#FFFFFF" stroke="#000000" stroke-miterlimit="10" cx="452.8" cy="280.4" r="14.2"/>
		</g>
		<linearGradient id="SVGID_10_" gradientUnits="userSpaceOnUse" x1="133.9008" y1="279" x2="431.9008" y2="279">
			<stop  offset="0" style="stop-color:#484848"/>
			<stop  offset="0.9961" style="stop-color:#030303"/>
		</linearGradient>
		<path fill="url(#SVGID_10_)" stroke="#000000" stroke-miterlimit="10" d="M133.9,131.5v295h298v-295H133.9z M386.9,381.5h-207
			v-206h207V381.5z"/>
		<linearGradient id="SVGID_11_" gradientUnits="userSpaceOnUse" x1="283.5252" y1="176.0228" x2="283.5252" y2="382.5803">
			<stop  offset="0" style="stop-color:#FFFFFF;stop-opacity:0.2346"/>
			<stop  offset="0.2874" style="stop-color:#000000;stop-opacity:0.5962"/>
			<stop  offset="1" style="stop-color:#DB0000"/>
		</linearGradient>
		<rect x="180.2" y="176" fill="url(#SVGID_11_)" stroke="#000000" stroke-miterlimit="10" width="206.6" height="206.6"/>
		<ellipse cx="232.6" cy="241.9" rx="16.8" ry="38.8"/>
		<ellipse cx="331" cy="241.9" rx="16.8" ry="38.8"/>
		<rect x="180.2" y="336.2" fill="none" width="206.6" height="46.4"/>
		<text transform="matrix(1 0 0 1 218.9882 354.7334)" fill="#FFFFFF" font-family="'BatmanForeverAlternate'" font-size="31.0878">+1 ship</text>
	</g>
</g>
<g id="Calque_6">
</g>
<g id="Calque_7">
</g>
</svg>
