<?xml version="1.0" encoding="utf-8"?>
<!-- Generator: Adobe Illustrator 18.1.1, SVG Export Plug-In . SVG Version: 6.00 Build 0)  -->
<svg version="1.1" xmlns="http://www.w3.org/2000/svg" xmlns:xlink="http://www.w3.org/1999/xlink" x="0px" y="0px"
	 viewBox="0 0 566.9 566.9" enable-background="new 0 0 566.9 566.9" xml:space="preserve">
<g id="Calque_5" display="none">
	<linearGradient id="SVGID_1_" gradientUnits="userSpaceOnUse" x1="-212" y1="325" x2="967" y2="325">
		<stop  offset="0" style="stop-color:#FFFFFF"/>
		<stop  offset="1" style="stop-color:#000000"/>
	</linearGradient>
	<rect x="-212" y="-68" display="inline" fill="url(#SVGID_1_)" width="1179" height="786"/>
</g>
<g id="sg">
</g>
<g id="Calque_3">
</g>
<g id="Calque_4">
</g>
<g id="Calque_6">
</g>
<g id="Calque_7">
	<g>
		<g id="ultime_2_">
			<g>
				<linearGradient id="SVGID_2_" gradientUnits="userSpaceOnUse" x1="54.5697" y1="326.0077" x2="80.0444" y2="326.0077">
					<stop  offset="0" style="stop-color:#484848"/>
					<stop  offset="0.9961" style="stop-color:#030303"/>
				</linearGradient>
				<rect x="54.6" y="248.9" fill="url(#SVGID_2_)" stroke="#000000" stroke-miterlimit="10" width="25.5" height="154.1"/>
				<linearGradient id="SVGID_3_" gradientUnits="userSpaceOnUse" x1="20.5774" y1="433" x2="114.4311" y2="433">
					<stop  offset="0" style="stop-color:#484848"/>
					<stop  offset="0.9961" style="stop-color:#030303"/>
				</linearGradient>
				<polygon fill="url(#SVGID_3_)" stroke="#000000" stroke-miterlimit="10" points="91,392.5 44,392.5 20.6,433 44,473.5 
					61.5,473.5 61.5,456.5 53.2,456.5 38.9,432.5 53.2,408.5 81.8,408.5 96.2,432.5 81.8,456.5 74.5,456.5 74.5,473.5 91,473.5 
					114.4,433 				"/>
			</g>
			<g>
				<linearGradient id="SVGID_4_" gradientUnits="userSpaceOnUse" x1="487.2082" y1="328.0047" x2="512.6829" y2="328.0047">
					<stop  offset="0" style="stop-color:#484848"/>
					<stop  offset="0.9961" style="stop-color:#030303"/>
				</linearGradient>
				<rect x="487.2" y="252.8" fill="url(#SVGID_4_)" stroke="#000000" stroke-miterlimit="10" width="25.5" height="150.4"/>
				<linearGradient id="SVGID_5_" gradientUnits="userSpaceOnUse" x1="453.2159" y1="431.5" x2="547.0696" y2="431.5">
					<stop  offset="0" style="stop-color:#484848"/>
					<stop  offset="0.9961" style="stop-color:#030303"/>
				</linearGradient>
				<polygon fill="url(#SVGID_5_)" stroke="#000000" stroke-miterlimit="10" points="523.6,390.5 476.7,390.5 453.2,431.5 
					476.7,472.5 494.5,472.5 494.5,456.5 485.8,456.5 471.5,431.5 485.8,406.5 514.5,406.5 528.8,431.5 514.5,456.5 505.5,456.5 
					505.5,472.5 523.6,472.5 547.1,431.5 				"/>
			</g>
			<g>
				<linearGradient id="SVGID_6_" gradientUnits="userSpaceOnUse" x1="93.4294" y1="303.1236" x2="93.4294" y2="217.6322">
					<stop  offset="0" style="stop-color:#484848"/>
					<stop  offset="0.9961" style="stop-color:#030303"/>
				</linearGradient>
				<circle fill="url(#SVGID_6_)" stroke="#000000" stroke-miterlimit="10" cx="93.4" cy="260.4" r="42.7"/>
				<g>
					<circle fill="#FFFFFF" stroke="#000000" stroke-miterlimit="10" cx="116.1" cy="210.8" r="14.2"/>
					<circle fill="#FFFFFF" stroke="#000000" stroke-miterlimit="10" cx="116.1" cy="311.9" r="14.2"/>
				</g>
				<linearGradient id="SVGID_7_" gradientUnits="userSpaceOnUse" x1="114.8119" y1="311.4388" x2="114.8119" y2="210.5079">
					<stop  offset="0" style="stop-color:#484848"/>
					<stop  offset="0.9961" style="stop-color:#030303"/>
				</linearGradient>
				<rect x="93.4" y="210.5" fill="url(#SVGID_7_)" stroke="#000000" stroke-miterlimit="10" width="42.7" height="100.9"/>
				<circle fill="#FFFFFF" stroke="#000000" stroke-miterlimit="10" cx="114.8" cy="260.1" r="14.2"/>
			</g>
			<g>
				
					<linearGradient id="SVGID_8_" gradientUnits="userSpaceOnUse" x1="3335.7451" y1="-3237.075" x2="3335.7451" y2="-3322.5664" gradientTransform="matrix(-1 0 0 -1 3810 -3017.5005)">
					<stop  offset="0" style="stop-color:#484848"/>
					<stop  offset="0.9961" style="stop-color:#030303"/>
				</linearGradient>
				<circle fill="url(#SVGID_8_)" stroke="#000000" stroke-miterlimit="10" cx="474.3" cy="262.3" r="42.7"/>
				<g>
					<circle fill="#FFFFFF" stroke="#000000" stroke-miterlimit="10" cx="451.6" cy="311.9" r="14.2"/>
					<circle fill="#FFFFFF" stroke="#000000" stroke-miterlimit="10" cx="451.6" cy="210.8" r="14.2"/>
				</g>
				
					<linearGradient id="SVGID_9_" gradientUnits="userSpaceOnUse" x1="3357.1277" y1="-3228.7598" x2="3357.1277" y2="-3329.6907" gradientTransform="matrix(-1 0 0 -1 3810 -3017.5005)">
					<stop  offset="0" style="stop-color:#484848"/>
					<stop  offset="0.9961" style="stop-color:#030303"/>
				</linearGradient>
				<rect x="431.5" y="211.3" fill="url(#SVGID_9_)" stroke="#000000" stroke-miterlimit="10" width="42.7" height="100.9"/>
				<circle fill="#FFFFFF" stroke="#000000" stroke-miterlimit="10" cx="452.9" cy="262.6" r="14.2"/>
			</g>
			<linearGradient id="SVGID_10_" gradientUnits="userSpaceOnUse" x1="136.5" y1="261.5" x2="429.5" y2="261.5">
				<stop  offset="0" style="stop-color:#484848"/>
				<stop  offset="0.9961" style="stop-color:#030303"/>
			</linearGradient>
			<path fill="url(#SVGID_10_)" stroke="#000000" stroke-miterlimit="10" d="M136.5,114.5v294h293v-294H136.5z M385.5,364.5h-206
				v-207h206V364.5z"/>
			<linearGradient id="SVGID_11_" gradientUnits="userSpaceOnUse" x1="283.6086" y1="158.2703" x2="283.6086" y2="364.8277">
				<stop  offset="0" style="stop-color:#FFFFFF;stop-opacity:0.2346"/>
				<stop  offset="0.2874" style="stop-color:#000000;stop-opacity:0.5962"/>
				<stop  offset="1" style="stop-color:#FCFF17"/>
			</linearGradient>
			<rect x="180.3" y="158.3" fill="url(#SVGID_11_)" stroke="#000000" stroke-miterlimit="10" width="206.6" height="206.6"/>
			<ellipse cx="232.7" cy="224.2" rx="16.8" ry="38.8"/>
			<ellipse cx="331.1" cy="224.2" rx="16.8" ry="38.8"/>
			<rect x="180.3" y="318.5" fill="none" width="206.6" height="46.4"/>
			
				<text transform="matrix(1 0 0 1 214.9985 336.9805)" fill="#FFFFFF" font-family="'BatmanForeverAlternate'" font-size="31.0878">ultime</text>
		</g>
	</g>
</g>
</svg>
