<?xml version="1.0" encoding="utf-8"?>
<!-- Generator: Adobe Illustrator 18.1.1, SVG Export Plug-In . SVG Version: 6.00 Build 0)  -->
<svg version="1.1" xmlns="http://www.w3.org/2000/svg" xmlns:xlink="http://www.w3.org/1999/xlink" x="0px" y="0px"
	 viewBox="0 0 566.9 566.9" enable-background="new 0 0 566.9 566.9" xml:space="preserve">
<g id="Calque_5" display="none">
</g>
<g id="sg">
</g>
<g id="Calque_3">
</g>
<g id="Calque_4">
</g>
<g id="Calque_6">
	<g id="fire_up_2_">
		<g>
			<linearGradient id="SVGID_1_" gradientUnits="userSpaceOnUse" x1="54.5804" y1="319.0077" x2="80.0552" y2="319.0077">
				<stop  offset="0" style="stop-color:#484848"/>
				<stop  offset="0.9961" style="stop-color:#030303"/>
			</linearGradient>
			<rect x="54.6" y="241.9" fill="url(#SVGID_1_)" stroke="#000000" stroke-miterlimit="10" width="25.5" height="154.1"/>
			<linearGradient id="SVGID_2_" gradientUnits="userSpaceOnUse" x1="20.5882" y1="426" x2="114.4418" y2="426">
				<stop  offset="0" style="stop-color:#484848"/>
				<stop  offset="0.9961" style="stop-color:#030303"/>
			</linearGradient>
			<polygon fill="url(#SVGID_2_)" stroke="#000000" stroke-miterlimit="10" points="91,385.5 44.1,385.5 20.6,426 44.1,466.5 
				62.7,466.5 62.7,449.5 53.2,449.5 38.9,425.5 53.2,401.5 81.8,401.5 96.2,425.5 81.8,449.5 71.7,449.5 71.7,466.5 91,466.5 
				114.4,426 			"/>
		</g>
		<g>
			<linearGradient id="SVGID_3_" gradientUnits="userSpaceOnUse" x1="487.2189" y1="321.0047" x2="512.6937" y2="321.0047">
				<stop  offset="0" style="stop-color:#484848"/>
				<stop  offset="0.9961" style="stop-color:#030303"/>
			</linearGradient>
			<rect x="487.2" y="245.8" fill="url(#SVGID_3_)" stroke="#000000" stroke-miterlimit="10" width="25.5" height="150.4"/>
			<linearGradient id="SVGID_4_" gradientUnits="userSpaceOnUse" x1="453.2267" y1="424.5" x2="547.0803" y2="424.5">
				<stop  offset="0" style="stop-color:#484848"/>
				<stop  offset="0.9961" style="stop-color:#030303"/>
			</linearGradient>
			<polygon fill="url(#SVGID_4_)" stroke="#000000" stroke-miterlimit="10" points="523.6,383.5 476.7,383.5 453.2,424.5 
				476.7,465.5 495.7,465.5 495.7,449.5 485.8,449.5 471.5,424.5 485.8,399.5 514.5,399.5 528.8,424.5 514.5,449.5 505.7,449.5 
				505.7,465.5 523.6,465.5 547.1,424.5 			"/>
		</g>
		<g>
			<linearGradient id="SVGID_5_" gradientUnits="userSpaceOnUse" x1="93.4402" y1="296.1236" x2="93.4402" y2="210.6322">
				<stop  offset="0" style="stop-color:#484848"/>
				<stop  offset="0.9961" style="stop-color:#030303"/>
			</linearGradient>
			<circle fill="url(#SVGID_5_)" stroke="#000000" stroke-miterlimit="10" cx="93.4" cy="253.4" r="42.7"/>
			<g>
				<circle fill="#FFFFFF" stroke="#000000" stroke-miterlimit="10" cx="116.1" cy="203.8" r="14.2"/>
				<circle fill="#FFFFFF" stroke="#000000" stroke-miterlimit="10" cx="116.1" cy="304.9" r="14.2"/>
			</g>
			<linearGradient id="SVGID_6_" gradientUnits="userSpaceOnUse" x1="114.8227" y1="304.4388" x2="114.8227" y2="203.5079">
				<stop  offset="0" style="stop-color:#484848"/>
				<stop  offset="0.9961" style="stop-color:#030303"/>
			</linearGradient>
			<rect x="93.5" y="203.5" fill="url(#SVGID_6_)" stroke="#000000" stroke-miterlimit="10" width="42.7" height="100.9"/>
			<circle fill="#FFFFFF" stroke="#000000" stroke-miterlimit="10" cx="114.8" cy="253.1" r="14.2"/>
		</g>
		<g>
			
				<linearGradient id="SVGID_7_" gradientUnits="userSpaceOnUse" x1="-219.8609" y1="-3230.075" x2="-219.8609" y2="-3315.5664" gradientTransform="matrix(-1 0 0 -1 254.4048 -3017.5005)">
				<stop  offset="0" style="stop-color:#484848"/>
				<stop  offset="0.9961" style="stop-color:#030303"/>
			</linearGradient>
			<circle fill="url(#SVGID_7_)" stroke="#000000" stroke-miterlimit="10" cx="474.3" cy="255.3" r="42.7"/>
			<g>
				<circle fill="#FFFFFF" stroke="#000000" stroke-miterlimit="10" cx="451.6" cy="304.9" r="14.2"/>
				<circle fill="#FFFFFF" stroke="#000000" stroke-miterlimit="10" cx="451.6" cy="203.8" r="14.2"/>
			</g>
			
				<linearGradient id="SVGID_8_" gradientUnits="userSpaceOnUse" x1="-198.4784" y1="-3221.7598" x2="-198.4784" y2="-3322.6907" gradientTransform="matrix(-1 0 0 -1 254.4048 -3017.5005)">
				<stop  offset="0" style="stop-color:#484848"/>
				<stop  offset="0.9961" style="stop-color:#030303"/>
			</linearGradient>
			<rect x="431.5" y="204.3" fill="url(#SVGID_8_)" stroke="#000000" stroke-miterlimit="10" width="42.7" height="100.9"/>
			<circle fill="#FFFFFF" stroke="#000000" stroke-miterlimit="10" cx="452.9" cy="255.6" r="14.2"/>
		</g>
		<linearGradient id="SVGID_9_" gradientUnits="userSpaceOnUse" x1="133.7024" y1="254.5" x2="431.7024" y2="254.5">
			<stop  offset="0" style="stop-color:#484848"/>
			<stop  offset="0.9961" style="stop-color:#030303"/>
		</linearGradient>
		<path fill="url(#SVGID_9_)" stroke="#000000" stroke-miterlimit="10" d="M133.7,107.5v294h298v-294H133.7z M387.7,357.5h-207v-207
			h207V357.5z"/>
		<linearGradient id="SVGID_10_" gradientUnits="userSpaceOnUse" x1="283.6194" y1="151.2703" x2="283.6194" y2="357.8277">
			<stop  offset="0" style="stop-color:#FFFFFF;stop-opacity:0.2346"/>
			<stop  offset="0.2874" style="stop-color:#000000;stop-opacity:0.5962"/>
			<stop  offset="1" style="stop-color:#00BB17"/>
		</linearGradient>
		<rect x="180.3" y="151.3" fill="url(#SVGID_10_)" stroke="#000000" stroke-miterlimit="10" width="206.6" height="206.6"/>
		<ellipse cx="232.7" cy="217.2" rx="16.8" ry="38.8"/>
		<ellipse cx="331.1" cy="217.2" rx="16.8" ry="38.8"/>
		<rect x="180.3" y="311.5" fill="none" width="206.6" height="46.4"/>
		<text transform="matrix(1 0 0 1 209.3513 329.9805)" fill="#FFFFFF" font-family="'BatmanForeverAlternate'" font-size="31.0878">fire up</text>
	</g>
</g>
<g id="Calque_7">
</g>
</svg>
