<?xml version="1.0" encoding="utf-8"?>
<!-- Generator: Adobe Illustrator 18.1.1, SVG Export Plug-In . SVG Version: 6.00 Build 0)  -->
<svg version="1.1" xmlns="http://www.w3.org/2000/svg" xmlns:xlink="http://www.w3.org/1999/xlink" x="0px" y="0px"
	 viewBox="0 0 566.9 566.9" enable-background="new 0 0 566.9 566.9" xml:space="preserve">
<g id="Calque_5" display="none">
</g>
<g id="sg">
</g>
<g id="Calque_3">
	<g id="bouclier_1_">
		<g>
			<linearGradient id="SVGID_1_" gradientUnits="userSpaceOnUse" x1="54.6955" y1="335.7602" x2="80.1702" y2="335.7602">
				<stop  offset="0" style="stop-color:#484848"/>
				<stop  offset="0.9961" style="stop-color:#030303"/>
			</linearGradient>
			<rect x="54.7" y="258.7" fill="url(#SVGID_1_)" stroke="#000000" stroke-miterlimit="10" width="25.5" height="154.1"/>
			<linearGradient id="SVGID_2_" gradientUnits="userSpaceOnUse" x1="20.7032" y1="443" x2="114.5569" y2="443">
				<stop  offset="0" style="stop-color:#484848"/>
				<stop  offset="0.9961" style="stop-color:#030303"/>
			</linearGradient>
			<polygon fill="url(#SVGID_2_)" stroke="#000000" stroke-miterlimit="10" points="91.1,403.5 44.2,403.5 20.7,443 44.2,482.5 
				62.3,482.5 62.3,467.5 53.3,467.5 39,443 53.3,418.5 82,418.5 96.3,443 82,467.5 73.3,467.5 73.3,482.5 91.1,482.5 114.6,443 			
				"/>
		</g>
		<g>
			<linearGradient id="SVGID_3_" gradientUnits="userSpaceOnUse" x1="487.334" y1="337.7572" x2="512.8087" y2="337.7572">
				<stop  offset="0" style="stop-color:#484848"/>
				<stop  offset="0.9961" style="stop-color:#030303"/>
			</linearGradient>
			<rect x="487.3" y="262.6" fill="url(#SVGID_3_)" stroke="#000000" stroke-miterlimit="10" width="25.5" height="150.4"/>
			<linearGradient id="SVGID_4_" gradientUnits="userSpaceOnUse" x1="453.3417" y1="442" x2="547.1954" y2="442">
				<stop  offset="0" style="stop-color:#484848"/>
				<stop  offset="0.9961" style="stop-color:#030303"/>
			</linearGradient>
			<polygon fill="url(#SVGID_4_)" stroke="#000000" stroke-miterlimit="10" points="523.7,401.5 476.8,401.5 453.3,442 476.8,482.5 
				493.3,482.5 493.3,465.5 485.9,465.5 471.6,441 485.9,416.5 514.6,416.5 528.9,441 514.6,465.5 506.3,465.5 506.3,482.5 
				523.7,482.5 547.2,442 			"/>
		</g>
		<g>
			<linearGradient id="SVGID_5_" gradientUnits="userSpaceOnUse" x1="93.5552" y1="312.8762" x2="93.5552" y2="227.3847">
				<stop  offset="0" style="stop-color:#484848"/>
				<stop  offset="0.9961" style="stop-color:#030303"/>
			</linearGradient>
			<circle fill="url(#SVGID_5_)" stroke="#000000" stroke-miterlimit="10" cx="93.6" cy="270.1" r="42.7"/>
			<g>
				<circle fill="#FFFFFF" stroke="#000000" stroke-miterlimit="10" cx="116.2" cy="220.6" r="14.2"/>
				<circle fill="#FFFFFF" stroke="#000000" stroke-miterlimit="10" cx="116.2" cy="321.6" r="14.2"/>
			</g>
			<linearGradient id="SVGID_6_" gradientUnits="userSpaceOnUse" x1="114.9377" y1="321.1913" x2="114.9377" y2="220.2604">
				<stop  offset="0" style="stop-color:#484848"/>
				<stop  offset="0.9961" style="stop-color:#030303"/>
			</linearGradient>
			<rect x="93.6" y="220.3" fill="url(#SVGID_6_)" stroke="#000000" stroke-miterlimit="10" width="42.7" height="100.9"/>
			<circle fill="#FFFFFF" stroke="#000000" stroke-miterlimit="10" cx="114.9" cy="269.8" r="14.2"/>
		</g>
		<g>
			
				<linearGradient id="SVGID_7_" gradientUnits="userSpaceOnUse" x1="965.2225" y1="-3246.8276" x2="965.2225" y2="-3332.3191" gradientTransform="matrix(-1 0 0 -1 1439.6031 -3017.5005)">
				<stop  offset="0" style="stop-color:#484848"/>
				<stop  offset="0.9961" style="stop-color:#030303"/>
			</linearGradient>
			<circle fill="url(#SVGID_7_)" stroke="#000000" stroke-miterlimit="10" cx="474.4" cy="272.1" r="42.7"/>
			<g>
				<circle fill="#FFFFFF" stroke="#000000" stroke-miterlimit="10" cx="451.7" cy="321.6" r="14.2"/>
				<circle fill="#FFFFFF" stroke="#000000" stroke-miterlimit="10" cx="451.7" cy="220.6" r="14.2"/>
			</g>
			
				<linearGradient id="SVGID_8_" gradientUnits="userSpaceOnUse" x1="986.605" y1="-3238.5125" x2="986.605" y2="-3339.4434" gradientTransform="matrix(-1 0 0 -1 1439.6031 -3017.5005)">
				<stop  offset="0" style="stop-color:#484848"/>
				<stop  offset="0.9961" style="stop-color:#030303"/>
			</linearGradient>
			<rect x="431.6" y="221" fill="url(#SVGID_8_)" stroke="#000000" stroke-miterlimit="10" width="42.7" height="100.9"/>
			<circle fill="#FFFFFF" stroke="#000000" stroke-miterlimit="10" cx="453" cy="272.4" r="14.2"/>
		</g>
		<linearGradient id="SVGID_9_" gradientUnits="userSpaceOnUse" x1="135.3016" y1="271" x2="429.3016" y2="271">
			<stop  offset="0" style="stop-color:#484848"/>
			<stop  offset="0.9961" style="stop-color:#030303"/>
		</linearGradient>
		<path fill="url(#SVGID_9_)" stroke="#000000" stroke-miterlimit="10" d="M135.3,123.5v295h294v-295H135.3z M388.3,373.5h-206v-206
			h206V373.5z"/>
		<linearGradient id="SVGID_10_" gradientUnits="userSpaceOnUse" x1="283.7344" y1="168.7947" x2="283.7344" y2="375.3521">
			<stop  offset="1.968504e-002" style="stop-color:#0000FF;stop-opacity:0.2"/>
			<stop  offset="1" style="stop-color:#0000FF"/>
		</linearGradient>
		<rect x="180.5" y="168.8" fill="url(#SVGID_10_)" width="206.6" height="206.6"/>
		<ellipse cx="232.8" cy="233.9" rx="16.8" ry="38.8"/>
		<ellipse cx="331.3" cy="233.9" rx="16.8" ry="38.8"/>
		<rect x="180.5" y="328.2" fill="none" width="206.6" height="46.4"/>
		<text transform="matrix(1 0 0 1 192.6478 346.7334)" fill="#FFFFFF" font-family="'BatmanForeverAlternate'" font-size="31.0878">bouclier</text>
	</g>
</g>
<g id="Calque_4">
</g>
<g id="Calque_6">
</g>
<g id="Calque_7">
</g>
</svg>
