<?xml version="1.0" encoding="utf-8"?>
<!-- Generator: Adobe Illustrator 18.1.1, SVG Export Plug-In . SVG Version: 6.00 Build 0)  -->
<svg version="1.1" xmlns="http://www.w3.org/2000/svg" xmlns:xlink="http://www.w3.org/1999/xlink" x="0px" y="0px"
	 viewBox="0 0 566.9 566.9" enable-background="new 0 0 566.9 566.9" xml:space="preserve">
<g id="Calque_5" display="none">
</g>
<g id="sg">
	<g id="bouclier_2_">
		<g>
			<linearGradient id="SVGID_1_" gradientUnits="userSpaceOnUse" x1="55.4971" y1="335.7602" x2="80.9718" y2="335.7602">
				<stop  offset="0" style="stop-color:#484848"/>
				<stop  offset="0.9961" style="stop-color:#030303"/>
			</linearGradient>
			<rect x="55.5" y="258.7" fill="url(#SVGID_1_)" stroke="#000000" stroke-miterlimit="10" width="25.5" height="154.1"/>
			<linearGradient id="SVGID_2_" gradientUnits="userSpaceOnUse" x1="21.5048" y1="443" x2="115.3585" y2="443">
				<stop  offset="0" style="stop-color:#484848"/>
				<stop  offset="0.9961" style="stop-color:#030303"/>
			</linearGradient>
			<polygon fill="url(#SVGID_2_)" stroke="#000000" stroke-miterlimit="10" points="91.9,403.5 45,403.5 21.5,443 45,482.5 
				63.1,482.5 63.1,467.5 54.1,467.5 39.8,443 54.1,418.5 82.8,418.5 97.1,443 82.8,467.5 74.1,467.5 74.1,482.5 91.9,482.5 
				115.4,443 			"/>
		</g>
		<g>
			<linearGradient id="SVGID_3_" gradientUnits="userSpaceOnUse" x1="488.1356" y1="337.7572" x2="513.6103" y2="337.7572">
				<stop  offset="0" style="stop-color:#484848"/>
				<stop  offset="0.9961" style="stop-color:#030303"/>
			</linearGradient>
			<rect x="488.1" y="262.6" fill="url(#SVGID_3_)" stroke="#000000" stroke-miterlimit="10" width="25.5" height="150.4"/>
			<linearGradient id="SVGID_4_" gradientUnits="userSpaceOnUse" x1="454.1433" y1="442" x2="547.9969" y2="442">
				<stop  offset="0" style="stop-color:#484848"/>
				<stop  offset="0.9961" style="stop-color:#030303"/>
			</linearGradient>
			<polygon fill="url(#SVGID_4_)" stroke="#000000" stroke-miterlimit="10" points="524.5,401.5 477.6,401.5 454.1,442 477.6,482.5 
				494.1,482.5 494.1,465.5 486.7,465.5 472.4,441 486.7,416.5 515.4,416.5 529.7,441 515.4,465.5 507.1,465.5 507.1,482.5 
				524.5,482.5 548,442 			"/>
		</g>
		<g>
			<linearGradient id="SVGID_5_" gradientUnits="userSpaceOnUse" x1="94.3568" y1="312.8762" x2="94.3568" y2="227.3847">
				<stop  offset="0" style="stop-color:#484848"/>
				<stop  offset="0.9961" style="stop-color:#030303"/>
			</linearGradient>
			<circle fill="url(#SVGID_5_)" stroke="#000000" stroke-miterlimit="10" cx="94.4" cy="270.1" r="42.7"/>
			<g>
				<circle fill="#FFFFFF" stroke="#000000" stroke-miterlimit="10" cx="117" cy="220.6" r="14.2"/>
				<circle fill="#FFFFFF" stroke="#000000" stroke-miterlimit="10" cx="117" cy="321.6" r="14.2"/>
			</g>
			<linearGradient id="SVGID_6_" gradientUnits="userSpaceOnUse" x1="115.7393" y1="321.1913" x2="115.7393" y2="220.2604">
				<stop  offset="0" style="stop-color:#484848"/>
				<stop  offset="0.9961" style="stop-color:#030303"/>
			</linearGradient>
			<rect x="94.4" y="220.3" fill="url(#SVGID_6_)" stroke="#000000" stroke-miterlimit="10" width="42.7" height="100.9"/>
			<circle fill="#FFFFFF" stroke="#000000" stroke-miterlimit="10" cx="115.7" cy="269.8" r="14.2"/>
		</g>
		<g>
			
				<linearGradient id="SVGID_7_" gradientUnits="userSpaceOnUse" x1="-1403.976" y1="-3246.8276" x2="-1403.976" y2="-3332.3191" gradientTransform="matrix(-1 0 0 -1 -930.7936 -3017.5005)">
				<stop  offset="0" style="stop-color:#484848"/>
				<stop  offset="0.9961" style="stop-color:#030303"/>
			</linearGradient>
			<circle fill="url(#SVGID_7_)" stroke="#000000" stroke-miterlimit="10" cx="473.2" cy="272.1" r="42.7"/>
			<g>
				<circle fill="#FFFFFF" stroke="#000000" stroke-miterlimit="10" cx="450.5" cy="321.6" r="14.2"/>
				<circle fill="#FFFFFF" stroke="#000000" stroke-miterlimit="10" cx="450.5" cy="220.6" r="14.2"/>
			</g>
			
				<linearGradient id="SVGID_8_" gradientUnits="userSpaceOnUse" x1="-1382.5934" y1="-3238.5125" x2="-1382.5934" y2="-3339.4434" gradientTransform="matrix(-1 0 0 -1 -930.7936 -3017.5005)">
				<stop  offset="0" style="stop-color:#484848"/>
				<stop  offset="0.9961" style="stop-color:#030303"/>
			</linearGradient>
			<rect x="430.4" y="221" fill="url(#SVGID_8_)" stroke="#000000" stroke-miterlimit="10" width="42.7" height="100.9"/>
			<circle fill="#FFFFFF" stroke="#000000" stroke-miterlimit="10" cx="451.8" cy="272.4" r="14.2"/>
		</g>
		<linearGradient id="SVGID_9_" gradientUnits="userSpaceOnUse" x1="136.1032" y1="271" x2="430.1032" y2="271">
			<stop  offset="0" style="stop-color:#484848"/>
			<stop  offset="0.9961" style="stop-color:#030303"/>
		</linearGradient>
		<path fill="url(#SVGID_9_)" stroke="#000000" stroke-miterlimit="10" d="M136.1,123.5v295h294v-295H136.1z M389.1,373.5h-206v-206
			h206V373.5z"/>
		<linearGradient id="SVGID_10_" gradientUnits="userSpaceOnUse" x1="286.1032" y1="167.6479" x2="286.1032" y2="373">
			<stop  offset="1.968504e-002" style="stop-color:#09FF00;stop-opacity:0.2"/>
			<stop  offset="1" style="stop-color:#B5D400"/>
		</linearGradient>
		<rect x="183.6" y="167.6" display="none" fill="url(#SVGID_10_)" width="205" height="205.4"/>
		<rect x="182.6" y="224" fill="none" width="206.6" height="95.4"/>
		<text transform="matrix(1 0 0 1 195.2978 250.8193)"><tspan x="0" y="0" fill="#F0FF24" font-family="'BatmanForeverAlternate'" font-size="45">space</tspan><tspan x="18.9" y="54" fill="#F0FF24" font-family="'BatmanForeverAlternate'" font-size="45">Gold</tspan></text>
	</g>
</g>
<g id="Calque_3">
</g>
<g id="Calque_4">
</g>
<g id="Calque_6">
</g>
<g id="Calque_7">
</g>
</svg>
